<?xml version="1.0" standalone="no"?>
<!DOCTYPE svg PUBLIC "-//W3C//DTD SVG 1.1//EN" "http://www.w3.org/Graphics/SVG/1.1/DTD/svg11.dtd" >
<svg xmlns="http://www.w3.org/2000/svg" xmlns:xlink="http://www.w3.org/1999/xlink" version="1.1">
<metadata>
Created by FontForge 20200427 at Mon Aug 20 00:38:02 2018
 By www
Copyright (c) 2016 Swiss Typefaces Sarl. All rights reserved. |DCNT
</metadata>
<defs>
<font id="SuisseIntl-Bold" horiz-adv-x="0" >
  <font-face 
    font-family="Suisse Intl"
    font-weight="700"
    font-stretch="normal"
    units-per-em="1000"
    panose-1="2 11 5 4 0 0 0 0 0 0"
    ascent="750"
    descent="-250"
    x-height="538"
    cap-height="725"
    bbox="-233 -699 2813 1154"
    underline-thickness="70"
    underline-position="-250"
    unicode-range="U+0020-FEFC"
  />
<missing-glyph horiz-adv-x="500" 
d="M0 0v725h500v-725h-500zM239 362l-220 334v-667zM260 362l221 -333v667zM250 346l-217 -327h433zM33 706l217 -328l216 328h-433z" />
    <glyph glyph-name="uniFC43" unicode="&#xfedf;&#xfef0;" horiz-adv-x="891" arabic-form="isolated" 
d="M668 725h149v-520q0 -98 -59 -152q-32 -29 -84 -43q-22 -49 -52 -88q-101 -137 -309 -137q-135 0 -212 71.5t-77 202.5q0 91 43 226h136q-42 -112 -42 -189q0 -79 42 -116.5t131 -37.5q86 0 148 31q27 13 48 30l-22 3q-46 9 -90 23l8 152q86 -24 158 -24q46 0 65 21
t19 69v478z" />
    <glyph glyph-name="uniFC86" unicode="&#xfee0;&#xfef0;" horiz-adv-x="908" arabic-form="final" 
d="M673 725h149l1 -478q0 -48 19 -69t65 -21q10 0 10 -10l1 -136q0 -11 -10 -11q-117 0 -176 53l-8 8l-10 -8q-18 -17 -33 -26q-27 -63 -59 -105q-101 -137 -309 -137q-135 0 -212 71.5t-77 202.5q0 91 43 226h136q-42 -112 -42 -189q0 -79 42 -116.5t131 -37.5q86 0 148 31
q27 13 48 30l-22 3q-46 9 -90 23l8 152q86 -24 158 -24q32 0 62 11q11 4 29 14q-1 7 -1 23z" />
    <glyph glyph-name="uniFEF5" unicode="&#xfedf;&#xfe82;" horiz-adv-x="608" arabic-form="isolated" 
d="M353 775h149v-202q0 -83 -30 -150q-11 -23 -26 -50l56 -51q81 -75 81 -152q0 -74 -48.5 -122t-142.5 -48h-315l-68 157q190 96 263 179q2 2 4.5 5t5 6.5t4.5 5.5l-266 237l4 10h175l143 -131q11 49 11 104v202zM286 207q-37 -26 -80 -50h181q44 0 44 36q0 32 -59 85
q-45 -43 -86 -71zM72 779q22 0 65 -18.5t65 -18.5q45 0 80 26l-1 -93q-33 -25 -77 -25q-24 0 -62.5 18.5t-57.5 18.5q-45 0 -51 -39h-71q0 62 29.5 96.5t80.5 34.5z" />
    <glyph glyph-name="uniFEF6" unicode="&#xfee0;&#xfe82;" horiz-adv-x="681" arabic-form="final" 
d="M445 725h149l1 -478q0 -48 19 -69t65 -21q10 0 10 -10l1 -136q0 -11 -10 -11q-117 0 -176 53l-1 1l-34 -14q-117 -40 -214 -40q-139 0 -241 34v152q60 -17 121 -23q48 -4 65 -5q-1 22 -7 64q-5 35 -83 378h151q66 -299 75 -368q3 -26 2 -55q0 -11 -1 -16q16 1 41 5l61 9
l8 2q-1 9 -1 28zM140 782q22 0 65 -18.5t65 -18.5q45 0 80 26l-1 -93q-33 -25 -77 -25q-24 0 -62.5 18.5t-57.5 18.5q-45 0 -51 -39h-71q0 62 29.5 96.5t80.5 34.5z" />
    <glyph glyph-name="uniFEF7" unicode="&#xfedf;&#xfe84;" horiz-adv-x="608" arabic-form="isolated" 
d="M353 775h149v-202q0 -83 -30 -150q-11 -23 -26 -50l56 -51q81 -75 81 -152q0 -74 -48.5 -122t-142.5 -48h-315l-68 157q190 96 263 179q2 2 4.5 5t5 6.5t4.5 5.5l-266 237l4 10h175l143 -131q11 49 11 104v202zM286 207q-37 -26 -80 -50h181q44 0 44 36q0 32 -59 85
q-45 -43 -86 -71zM152 737h93l-20 -81h-167q-37 0 -75 -12v79q28 10 40 11q10 2 17 2q-22 21 -22 53q0 39 28.5 65.5t70.5 26.5q52 0 90 -20v-77q-40 15 -65 15q-18 0 -29.5 -8.5t-11.5 -22.5q0 -15 14.5 -23t36.5 -8z" />
    <glyph glyph-name="uniFEF8" unicode="&#xfee0;&#xfe84;" horiz-adv-x="681" arabic-form="final" 
d="M445 725h149l1 -478q0 -48 19 -69t65 -21q10 0 10 -10l1 -136q0 -11 -10 -11q-117 0 -176 53l-1 1l-34 -14q-117 -40 -214 -40q-139 0 -241 34v152q60 -17 121 -23q48 -4 65 -5q-1 22 -7 64q-5 35 -83 378h151q66 -299 75 -368q3 -26 2 -55q0 -11 -1 -16q16 1 41 5l61 9
l8 2q-1 9 -1 28zM209 739h99l-20 -81h-167q-37 0 -75 -12v79q28 10 39 11q10 2 18 2q-22 21 -22 53q0 39 28.5 65.5t70.5 26.5q52 0 90 -20v-77q-40 15 -65 15q-18 0 -29.5 -8.5t-11.5 -22.5q0 -16 15 -24q12 -5 30 -7z" />
    <glyph glyph-name="uniFEF9" unicode="&#xfedf;&#xfe88;" horiz-adv-x="608" arabic-form="isolated" 
d="M353 775h149v-202q0 -83 -30 -150q-11 -23 -26 -50l56 -51q81 -75 81 -152q0 -74 -48.5 -122t-142.5 -48h-315l-68 157q190 96 263 179q2 2 4.5 5t5 6.5t4.5 5.5l-266 237l4 10h175l143 -131q11 49 11 104v202zM286 207q-37 -26 -80 -50h181q44 0 44 36q0 32 -59 85
q-45 -43 -86 -71zM357 -178h93l-20 -82h-167q-37 0 -75 -12v80q26 9 40 12l17 2q-22 19 -22 51q0 39 28.5 65.5t70.5 26.5q52 0 90 -20v-77q-39 16 -65 16q-17 0 -29 -9t-12 -23q0 -30 51 -30z" />
    <glyph glyph-name="uniFEFA" unicode="&#xfee0;&#xfe88;" horiz-adv-x="681" arabic-form="final" 
d="M445 725h149l1 -478q0 -48 19 -69t65 -21q10 0 10 -10l1 -136q0 -11 -10 -11q-117 0 -176 53l-1 1l-34 -14q-117 -40 -214 -40q-139 0 -241 34v152q60 -17 121 -23q48 -4 65 -5q-1 22 -7 64q-5 35 -83 378h151q66 -299 75 -368q3 -26 2 -55q0 -11 -1 -16q16 1 41 5l61 9
l8 2q-1 9 -1 28zM349 -179h93l-20 -82h-167q-37 0 -75 -12v80q26 9 39 12l17 2q-21 19 -21 51q0 39 28.5 65.5t70.5 26.5q52 0 90 -20v-77q-39 16 -65 16q-17 0 -29 -9t-12 -23q0 -30 51 -30z" />
    <glyph glyph-name="uniFEFB" unicode="&#xfedf;&#xfe8e;" horiz-adv-x="608" arabic-form="isolated" 
d="M353 775h149v-202q0 -83 -30 -150q-11 -23 -26 -50l56 -51q81 -75 81 -152q0 -74 -48.5 -122t-142.5 -48h-315l-68 157q190 96 263 179q2 2 4.5 5t5 6.5t4.5 5.5l-266 237l4 10h175l143 -131q11 49 11 104v202zM286 207q-37 -26 -80 -50h181q44 0 44 36q0 32 -59 85
q-45 -43 -86 -71z" />
    <glyph glyph-name="uniFEFC" unicode="&#xfee0;&#xfe8e;" horiz-adv-x="681" arabic-form="final" 
d="M445 725h149l1 -478q0 -48 19 -69t65 -21q10 0 10 -10l1 -136q0 -11 -10 -11q-117 0 -176 53l-1 1l-34 -14q-117 -40 -214 -40q-139 0 -241 34v152q60 -17 121 -23q48 -4 65 -5q-1 22 -7 64q-5 35 -83 378h151q66 -299 75 -368q3 -26 2 -55q0 -11 -1 -16q16 1 41 5l61 9
l8 2q-1 9 -1 28z" />
    <glyph glyph-name="uni0407_uni0407" unicode="&#x407;&#x407;" horiz-adv-x="583" 
d="M462 886h171v-113h-171v113zM237 725v-725h-171v725h171zM517 725v-725h-171v725h171zM206 886h171v-113h-171v113zM-49 886h171v-113h-171v113z" />
    <glyph glyph-name="uni0457_uni0457" unicode="&#x457;&#x457;" horiz-adv-x="573" 
d="M348 538h166v-538h-166v538zM59 538h166v-538h-166v538zM-42 725h148v-116h-148v116zM468 725h148v-116h-148v116zM212 725h148v-116h-148v116z" />
    <glyph glyph-name="uniFEDF_uniFB51" unicode="&#xfedf;&#xfb51;" horiz-adv-x="608" 
d="M353 775h149v-202q0 -83 -30 -150q-11 -23 -26 -50l56 -51q81 -75 81 -152q0 -74 -48.5 -122t-142.5 -48h-315l-68 157q190 96 263 179q2 2 4.5 5t5 6.5t4.5 5.5l-266 237l4 10h175l143 -131q11 49 11 104v202zM286 207q-37 -26 -80 -50h181q44 0 44 36q0 32 -59 85
q-45 -43 -86 -71zM194 839q41 0 69 -27t28 -66q0 -49 -41.5 -76t-114.5 -27q-76 0 -152 30l22 70q32 -11 42 -13l30 37q63 72 117 72zM137 719q68 0 68 26q0 9 -7.5 15t-18.5 6q-26 0 -72 -43l-2 -3q12 -1 32 -1z" />
    <glyph glyph-name="uniFEE0_uniFB51" unicode="&#xfee0;&#xfb51;" horiz-adv-x="681" 
d="M445 725h149l1 -478q0 -48 19 -69t65 -21q10 0 10 -10l1 -136q0 -11 -10 -11q-117 0 -176 53l-1 1l-34 -14q-117 -40 -214 -40q-139 0 -241 34v152q60 -17 121 -23q48 -4 65 -5q-1 22 -7 64q-5 35 -83 378h151q66 -299 75 -368q3 -26 2 -55q0 -11 -1 -16q16 1 41 5l61 9
l8 2q-1 9 -1 28zM240 842q41 0 69 -27t28 -66q0 -49 -41.5 -76t-114.5 -27q-76 0 -152 30l22 70q35 -12 41 -13q6 8 17 20.5t14 16.5q63 72 117 72zM183 722q68 0 68 26q0 9 -7.5 15t-18.5 6q-26 0 -72 -43l-3 -3q12 -1 33 -1z" />
    <glyph glyph-name="uni066E.init" unicode="&#x66e;" horiz-adv-x="279" 
d="M56 485h149q29 -188 29 -280q0 -99 -59 -152t-175 -53q-10 0 -10 11l1 136q0 10 10 10q47 0 66 21t19 69q0 51 -30 238z" />
    <glyph glyph-name="uni066E.medi" unicode="&#x66e;" horiz-adv-x="328" 
d="M103 370h137q0 -79 -9 -142l-9 -45q24 -13 38 -16q31 -10 68 -10q10 0 10 -10v-136q0 -11 -10 -11q-88 0 -159 69q-17 -21 -43 -38q-47 -31 -126 -31q-10 0 -10 11v136q0 10 10 10q60 0 82 42q21 41 21 171z" />
    <glyph glyph-name="uni066E.fina" unicode="&#x66e;" horiz-adv-x="848" 
d="M623 370h137q0 -79 -9 -142l-9 -45q24 -13 38 -16q31 -10 68 -10q10 0 10 -10v-136q0 -11 -10 -11q-88 0 -159 69q-17 -21 -43 -38q-39 -25 -99 -30q-1 -1 -5 -1h-11h-11h-237q-259 0 -259 244q0 76 24 196h136q-18 -90 -18 -154q0 -68 34 -98.5t119 -30.5h198h3h9
q52 3 73 42q21 41 21 171z" />
    <glyph glyph-name="uni066F.fina" unicode="&#x66f;" horiz-adv-x="795" 
d="M511 502q99 0 159.5 -64.5t67.5 -180.5l3 -84v-16h54q10 0 10 -10v-136q0 -11 -10 -11h-56q-4 -26 -16 -55q-67 -160 -358 -160q-341 0 -341 274q0 91 43 226h136q-42 -112 -42 -189q0 -90 54 -132t172 -42q75 0 126 20t73 54l3 4h-62q-117 0 -186 65.5t-69 180.5
q0 109 68.5 182.5t170.5 73.5zM597 153l-6 93q-8 104 -90 104q-39 0 -65 -27.5t-26 -71.5q0 -100 132 -100q25 0 35 1q13 0 20 1z" />
    <glyph glyph-name="uni06A1.init" unicode="&#x6a1;" horiz-adv-x="535" 
d="M263 512q103 0 170.5 -68t67.5 -171q0 -123 -75 -198t-201 -75h-225q-10 0 -10 11v136q0 10 10 10h81q-1 1 -1 2q-48 66 -48 130q0 95 66 159t165 64zM218 157h8q59 0 92 30t33 83q0 41 -26 68.5t-65 27.5q-41 0 -66.5 -27.5t-25.5 -69.5q0 -37 35 -89z" />
    <glyph glyph-name="uni06A1.medi" unicode="&#x6a1;" horiz-adv-x="537" 
d="M267 512q99 0 163.5 -64.5t64.5 -157.5q0 -64 -49 -127q38 -6 91 -6q10 0 10 -10v-136q0 -11 -10 -11q-109 0 -250 43l-6 2l-19 -7q-119 -38 -262 -38q-10 1 -10 11v136q0 10 10 10q49 0 88 3l-1 1q-45 55 -45 130q0 92 62.5 156.5t162.5 64.5zM326 206q23 31 23 66
q0 41 -25.5 67t-63.5 26q-39 0 -63 -26t-24 -66q0 -35 23 -67q22 -29 63 -44q44 15 67 44z" />
    <glyph glyph-name="uni06A1.fina" unicode="&#x6a1;" horiz-adv-x="945" 
d="M675 512q99 0 163.5 -64.5t64.5 -157.5q0 -64 -49 -127q37 -6 91 -6q10 0 10 -10v-136q0 -11 -10 -11q-109 0 -250 43l-6 2l-19 -7q-119 -38 -262 -38q-10 1 -10 11v136q0 10 10 10q49 0 88 3l-1 1q-45 55 -45 130q0 92 62.5 156.5t162.5 64.5zM734 206q23 31 23 66
q0 41 -25.5 67t-63.5 26q-39 0 -63 -26t-24 -66q0 -35 23 -67q22 -29 63 -44q44 15 67 44zM45 388h135q-14 -64 -14 -102q0 -68 34 -98.5t119 -30.5h103q10 0 10 -10v-136q0 -11 -10 -11h-139q-257 0 -257 243q0 56 19 145z" />
    <glyph glyph-name="uni06AA.init" unicode="&#x6aa;" horiz-adv-x="815" 
d="M246 725h197l-276 -277h360q113 0 183 -59.5t70 -156.5q0 -109 -63 -170.5t-175 -61.5h-542q-10 0 -10 11v136q0 10 10 10h538q44 0 68.5 20t24.5 55t-25.5 55.5t-71.5 20.5h-436l-80 140z" />
    <glyph glyph-name="uni06AA.medi" unicode="&#x6aa;" horiz-adv-x="851" 
d="M246 725h197l-276 -277h360q113 0 183 -59.5t70 -156.5q0 -109 -63 -170.5t-175 -61.5h-542q-10 0 -10 11v136q0 10 10 10h538q44 0 68.5 20t24.5 55t-25.5 55.5t-71.5 20.5h-436l-80 140zM653 116l65 85q59 -44 133 -44q10 0 10 -10v-136q0 -11 -10 -11q-114 0 -198 116
z" />
    <glyph glyph-name="uni06AA.fina" unicode="&#x6aa;" horiz-adv-x="938" 
d="M351 725h197l-276 -277h344q113 0 183 -59.5t70 -156.5q0 -109 -63 -170.5t-175 -61.5h-384q-116 0 -230 72l64 138q96 -53 183 -53h363q43 0 68 20t25 55t-26 55.5t-71 20.5h-420l-80 140zM740 116l65 85q59 -44 133 -44q10 0 10 -10v-136q0 -11 -10 -11
q-114 0 -198 116z" />
    <glyph glyph-name="uni06C2.fina" unicode="&#x6c2;" horiz-adv-x="539" 
d="M333 538h149v-321q0 -60 58 -60q10 0 10 -10v-136q0 -11 -10 -11q-101 0 -150 46q-40 -21 -62 -29q-42 -17 -86 -17q-103 0 -160.5 54.5t-57.5 151.5q0 77 51.5 144.5t150.5 106.5q46 19 107 30v51zM226 322q-60 -40 -60 -99q0 -33 20.5 -52.5t58.5 -19.5q45 0 90 16
q-2 26 -2 41v156q-65 -14 -107 -42zM431 682h93l-20 -81h-167q-37 0 -75 -12v79q28 10 40 11q10 2 17 2q-22 21 -22 53q0 39 28.5 65.5t70.5 26.5q52 0 90 -20v-77q-40 15 -65 15q-18 0 -29.5 -8.5t-11.5 -22.5q0 -15 14.5 -23t36.5 -8z" />
    <glyph glyph-name="uni06C3.fina" unicode="&#x6c3;" horiz-adv-x="630" 
d="M308 451q63 0 108.5 -35t87.5 -115q3 -6 19.5 -38t23.5 -42t22 -30t29.5 -27t31.5 -7q10 0 10 -10v-136q0 -11 -10 -11q-76 0 -122 36t-88 129q-32 71 -55 98.5t-58 27.5q-33 0 -60 -29.5t-60 -104.5l-37 -84l-126 58l37 84q57 129 112 182.5t135 53.5zM122 620l100 101
l77 -75l76 75l102 -101l-100 -100l-77 74l-76 -74z" />
    <glyph glyph-name="uniFB51" unicode="&#x671;" horiz-adv-x="309" arabic-form="final" 
d="M74 600h149l1 -353q0 -48 19 -69t66 -21q10 0 10 -10v-136q0 -11 -10 -11q-116 0 -175 53t-59 152zM196 821q41 0 69 -27t28 -66q0 -49 -41.5 -76t-114.5 -27q-76 0 -152 30l22 70q32 -11 42 -13l30 37q63 72 117 72zM139 701q68 0 68 26q0 9 -7.5 15t-18.5 6
q-26 0 -72 -43l-2 -3q12 -1 32 -1z" />
    <glyph glyph-name="uniFB57" unicode="&#x67e;" horiz-adv-x="848" arabic-form="final" 
d="M623 370h137q0 -79 -9 -142l-9 -45q24 -13 38 -16q31 -10 68 -10q10 0 10 -10v-136q0 -11 -10 -11q-88 0 -159 69q-17 -21 -43 -38q-39 -25 -99 -30q-1 -1 -5 -1h-22h-3h-234q-259 0 -259 244q0 76 24 196h136q-18 -90 -18 -154q0 -68 34 -98.5t119 -30.5h198h3h9
q52 3 73 42q21 41 21 171zM267 -158l100 101l79 -77l78 77l102 -101l-101 -102l-79 78l-77 -78zM376 -293l69 71l71 -71l-70 -70z" />
    <glyph glyph-name="uniFB58" unicode="&#x67e;" horiz-adv-x="360" arabic-form="initial" 
d="M139 485h150q29 -188 29 -280q0 -99 -59 -152t-175 -53h-84q-10 0 -10 11l1 136q0 10 10 10h84q46 0 65 21t19 69q0 51 -30 238zM-31 -155l100 101l79 -77l78 77l102 -101l-101 -102l-79 78l-77 -78zM78 -290l69 71l71 -71l-70 -70z" />
    <glyph glyph-name="uniFB59" unicode="&#x67e;" horiz-adv-x="381" arabic-form="medial" 
d="M131 370h137q0 -72 -8 -141q-2 -18 -6 -34q23 -15 55 -26q37 -12 72 -12q10 0 10 -10v-136q0 -11 -10 -11q-58 0 -111 31q-33 19 -64 51q-24 -31 -61 -52q-54 -30 -145 -30q-10 0 -10 11v136q0 10 10 10q76 0 104 40q27 37 27 173zM4 -156l100 101l79 -77l78 77l102 -101
l-101 -102l-79 78l-77 -78zM113 -291l69 71l71 -71l-70 -70z" />
    <glyph glyph-name="uniFB67" unicode="&#x679;" horiz-adv-x="848" arabic-form="final" 
d="M623 370h137q0 -79 -9 -142l-9 -45q24 -13 38 -16q31 -10 68 -10q10 0 10 -10v-136q0 -11 -10 -11q-88 0 -159 69q-17 -21 -43 -38q-39 -25 -99 -30q-1 -1 -5 -1h-259q-259 0 -259 244q0 76 24 196h136q-18 -90 -18 -154q0 -68 34 -98.5t119 -30.5h210q52 3 73 42
q21 41 21 171zM351 670h66v-80l-3 -16q15 18 35 34q41 32 75 32q44 0 72.5 -27.5t28.5 -67.5q0 -49 -45.5 -77t-123.5 -28h-129l-36 73h60v157zM422 513h35q81 0 81 31q0 11 -8.5 17.5t-20.5 6.5q-28 0 -79 -48z" />
    <glyph glyph-name="uniFB68" unicode="&#x679;" horiz-adv-x="382" arabic-form="initial" 
d="M139 485h150q29 -188 29 -280q0 -99 -59 -152t-175 -53h-84q-10 0 -10 11l1 136q0 10 10 10h84q46 0 65 21t19 69q0 51 -30 238zM91 768h66v-80l-3 -16q18 19 36 34q41 32 74 32q44 0 72.5 -27.5t28.5 -67.5q0 -49 -45.5 -77t-123.5 -28h-129l-36 73h60v157zM163 611h34
q81 0 81 31q0 11 -8.5 17.5t-20.5 6.5q-30 0 -78 -48z" />
    <glyph glyph-name="uniFB69" unicode="&#x679;" horiz-adv-x="381" arabic-form="medial" 
d="M131 370h137q0 -72 -8 -141q-2 -18 -6 -34q23 -15 55 -26q37 -12 72 -12q10 0 10 -10v-136q0 -11 -10 -11q-58 0 -111 31q-33 19 -64 51q-24 -31 -61 -52q-54 -30 -145 -30q-10 0 -10 11v136q0 10 10 10q76 0 104 40q27 37 27 173zM90 671h66v-80l-3 -16q18 19 36 34
q41 32 74 32q44 0 72.5 -27.5t28.5 -67.5q0 -49 -45.5 -77t-123.5 -28h-129l-36 73h60v157zM162 514h34q81 0 81 31q0 11 -8.5 17.5t-20.5 6.5q-30 0 -78 -48z" />
    <glyph glyph-name="uniFB6B" unicode="&#x6a4;" horiz-adv-x="945" arabic-form="final" 
d="M675 512q99 0 163.5 -64.5t64.5 -157.5q0 -64 -49 -127q37 -6 91 -6q10 0 10 -10v-136q0 -11 -10 -11q-109 0 -250 43l-6 2l-19 -7q-119 -38 -262 -38q-10 1 -10 11v136q0 10 10 10q49 0 88 3l-1 1q-45 55 -45 130q0 92 62.5 156.5t162.5 64.5zM734 206q23 31 23 66
q0 41 -25.5 67t-63.5 26q-39 0 -63 -26t-24 -66q0 -35 23 -67q22 -29 63 -44q44 15 67 44zM45 388h135q-14 -64 -14 -102q0 -68 34 -98.5t119 -30.5h103q10 0 10 -10v-136q0 -11 -10 -11h-139q-257 0 -257 243q0 56 19 145zM496 648l100 102l79 -79l79 79l101 -102
l-100 -101l-80 78l-78 -78zM606 788l69 70l71 -70l-70 -70z" />
    <glyph glyph-name="uniFB6C" unicode="&#x6a4;" horiz-adv-x="535" arabic-form="initial" 
d="M263 512q103 0 170.5 -68t67.5 -171q0 -123 -75 -198t-201 -75h-225q-10 0 -10 11v136q0 10 10 10h81q-1 1 -1 2q-48 66 -48 130q0 95 66 159t165 64zM218 157h8q59 0 92 30t33 83q0 41 -26 68.5t-65 27.5q-41 0 -66.5 -27.5t-25.5 -69.5q0 -37 35 -89zM88 648l100 102
l79 -79l79 79l101 -102l-100 -101l-80 78l-78 -78zM198 788l69 70l71 -70l-70 -70z" />
    <glyph glyph-name="uniFB6D" unicode="&#x6a4;" horiz-adv-x="537" arabic-form="medial" 
d="M267 512q99 0 163.5 -64.5t64.5 -157.5q0 -64 -49 -127q38 -6 91 -6q10 0 10 -10v-136q0 -11 -10 -11q-109 0 -250 43l-6 2l-19 -7q-119 -38 -262 -38q-10 1 -10 11v136q0 10 10 10q49 0 88 3l-1 1q-45 55 -45 130q0 92 62.5 156.5t162.5 64.5zM326 206q23 31 23 66
q0 41 -25.5 67t-63.5 26q-39 0 -63 -26t-24 -66q0 -35 23 -67q22 -29 63 -44q44 15 67 44zM86 648l100 102l79 -79l79 79l101 -102l-100 -101l-80 78l-78 -78zM196 788l69 70l71 -70l-70 -70z" />
    <glyph glyph-name="uniFB7B" unicode="&#x686;" horiz-adv-x="651" arabic-form="final" 
d="M199 539q49 0 100.5 -24.5t91 -55.5t99 -64t119.5 -46l-43 -155q-28 0 -42 -1q1 -1 1 -3q3 -23 26 -28t100 -5q10 0 10 -10v-136q0 -11 -10 -11q-95 0 -145.5 45t-50.5 133v6q-14 -1 -31 -6q-108 -23 -180 -78t-72 -126q0 -73 71 -155l-132 -49q-82 101 -82 193
q0 108 72 183t197 115q49 16 104 27q-18 8 -26 13q-11 6 -50 30t-53 30.5t-41.5 15.5t-52.5 9q-47 0 -110 -25v136q64 42 130 42zM278 -156l100 101l79 -77l78 77l102 -101l-101 -102l-79 78l-77 -78zM387 -291l69 71l71 -71l-70 -70z" />
    <glyph glyph-name="uniFB7C" unicode="&#x686;" horiz-adv-x="599" arabic-form="initial" 
d="M190 502q48 0 96.5 -21.5t85.5 -49t95 -59t118 -45.5l-43 -155q-61 -10 -112.5 -31.5t-89 -44.5t-80 -45.5t-108 -36.5t-151.5 -14q-11 0 -11 11v136q0 10 11 10q61 0 108.5 4t91 15.5t62 17t65 25t55.5 23.5l23 9q-19 8 -49 23q-10 6 -39 22.5t-40 22t-32.5 15
t-39.5 12.5t-38 3q-47 0 -110 -24v135q66 42 132 42zM108 -156l100 101l79 -77l78 77l102 -101l-101 -102l-79 78l-77 -78zM217 -291l69 71l71 -71l-70 -70z" />
    <glyph glyph-name="uniFB7D" unicode="&#x686;" horiz-adv-x="631" arabic-form="medial" 
d="M190 502q48 0 96.5 -21.5t85.5 -49t95 -59t118 -45.5l-42 -152q12 -7 29 -12q22 -6 59 -6q10 0 10 -10v-136q0 -11 -10 -11q-87 0 -137 47q-40 38 -47 101q-1 -1 -3 -1q-40 -15 -91 -44t-87 -49.5t-106 -37t-159 -16.5q-11 0 -11 11v136q0 10 11 10q61 0 108.5 4t91 15.5
t62 17t65 25t55.5 23.5l23 9q-19 8 -49 23q-10 6 -39 22.5t-40 22t-32.5 15t-39.5 12.5t-38 3q-47 0 -110 -24v135q66 42 132 42zM108 -156l100 101l79 -77l78 77l102 -101l-101 -102l-79 78l-77 -78zM217 -291l69 71l71 -71l-70 -70z" />
    <glyph glyph-name="uniFB89" unicode="&#x688;" horiz-adv-x="502" arabic-form="final" 
d="M4 34v152q100 -29 181 -29q38 0 76 5l24 4l-2 8q-36 106 -74 311h151q26 -172 47 -239q26 -89 95 -89q10 0 10 -10v-136q0 -11 -10 -11q-78 0 -134 44q-10 8 -15 13q-41 -26 -76 -39q-49 -17 -105 -17q-72 0 -168 33zM152 768h66v-80l-3 -16q18 19 36 34q41 32 74 32
q44 0 72.5 -27.5t28.5 -67.5q0 -49 -45.5 -77t-123.5 -28h-129l-36 73h60v157zM224 611h34q81 0 81 31q0 11 -8.5 17.5t-20.5 6.5q-30 0 -78 -48z" />
    <glyph glyph-name="uniFB8B" unicode="&#x698;" horiz-adv-x="366" arabic-form="final" 
d="M91 440h149q15 -110 23 -210q8 -94 10 -193q-26 31 -28 83l-3 163h14l8 -60q10 -66 102 -66q10 0 10 -10v-136q0 -11 -10 -11q-57 0 -89 32l-4 5v-15q0 -237 -278 -237v127q60 0 97 29.5t37 88.5q0 35 -1.5 70t-7 85.5t-7.5 73t-11 94.5t-11 87zM-22 612l100 102l79 -79
l79 79l101 -102l-100 -101l-80 78l-78 -78zM88 752l69 70l71 -70l-70 -70z" />
    <glyph glyph-name="uniFB8D" unicode="&#x691;" horiz-adv-x="366" arabic-form="final" 
d="M91 440h149q15 -110 23 -210q8 -94 10 -193q-26 31 -28 83l-3 163h14l8 -60q10 -66 102 -66q10 0 10 -10v-136q0 -11 -10 -11q-57 0 -89 32l-4 5v-15q0 -237 -278 -237v127q60 0 97 29.5t37 88.5q0 35 -1.5 70t-7 85.5t-7.5 73t-11 94.5t-11 87zM58 725h66v-80l-3 -16
q15 18 35 34q41 32 75 32q44 0 72.5 -27.5t28.5 -67.5q0 -49 -45.5 -77t-123.5 -28h-129l-36 73h60v157zM129 568h35q81 0 81 31q0 11 -8.5 17.5t-20.5 6.5q-28 0 -79 -48z" />
    <glyph glyph-name="uniFB8F" unicode="&#x6a9;" horiz-adv-x="1015" arabic-form="final" 
d="M49 440h136q-18 -90 -18 -154q0 -68 34 -98.5t119 -30.5h223q10 0 10 -10v-136q0 -11 -10 -11h-259q-259 0 -259 244q0 76 24 196zM684 795h213v-6l-340 -279l160 -68q91 -38 134 -92.5t43 -131.5q0 -103 -69 -160.5t-194 -57.5h-298q-10 0 -10 11v136q0 10 10 10h306
q48 0 77 16t29 44q0 26 -23.5 48t-77.5 45l-256 113v103zM817 116l65 85q59 -44 133 -44q10 0 10 -10v-136q0 -11 -10 -11q-114 0 -198 116z" />
    <glyph glyph-name="uniFB90" unicode="&#x6a9;" horiz-adv-x="586" arabic-form="initial" 
d="M351 795h213v-6l-340 -279l160 -68q91 -38 134 -92.5t43 -131.5q0 -103 -69 -160.5t-194 -57.5h-298q-10 0 -10 11v136q0 10 10 10h306q48 0 77 16t29 44q0 26 -23.5 48t-77.5 45l-256 113v103z" />
    <glyph glyph-name="uniFB91" unicode="&#x6a9;" horiz-adv-x="660" arabic-form="medial" 
d="M351 795h213v-6l-340 -279l160 -68q91 -38 134 -92.5t43 -131.5q0 -103 -69 -160.5t-194 -57.5h-298q-10 0 -10 11v136q0 10 10 10h306q48 0 77 16t29 44q0 26 -23.5 48t-77.5 45l-256 113v103zM462 116l65 85q59 -44 133 -44q10 0 10 -10v-136q0 -11 -10 -11
q-114 0 -198 116z" />
    <glyph glyph-name="uniFB93" unicode="&#x6af;" horiz-adv-x="1015" arabic-form="final" 
d="M49 440h136q-18 -90 -18 -154q0 -68 34 -98.5t119 -30.5h223q10 0 10 -10v-136q0 -11 -10 -11h-259q-259 0 -259 244q0 76 24 196zM684 795h213v-6l-340 -279l160 -68q91 -38 134 -92.5t43 -131.5q0 -103 -69 -160.5t-194 -57.5h-298q-10 0 -10 11v136q0 10 10 10h306
q48 0 77 16t29 44q0 26 -23.5 48t-77.5 45l-256 113v103zM817 116l65 85q59 -44 133 -44q10 0 10 -10v-136q0 -11 -10 -11q-114 0 -198 116zM544 795v-4l-216 -203l-49 51l154 156h111z" />
    <glyph glyph-name="uniFB94" unicode="&#x6af;" horiz-adv-x="736" arabic-form="initial" 
d="M501 795h213v-6l-340 -279l160 -68q91 -38 134 -92.5t43 -131.5q0 -103 -69 -160.5t-194 -57.5h-298q-10 0 -10 11v136q0 10 10 10h306q48 0 77 16t29 44q0 26 -23.5 48t-77.5 45l-256 113v103zM336 795v-4l-216 -203l-49 51l154 156h111zM0 157h194q10 0 10 -10v-136
q0 -11 -10 -11h-194q-10 0 -10 11v136q0 10 10 10z" />
    <glyph glyph-name="uniFB95" unicode="&#x6af;" horiz-adv-x="826" arabic-form="medial" 
d="M517 795h213v-6l-340 -279l160 -68q91 -38 134 -92.5t43 -131.5q0 -103 -69 -160.5t-194 -57.5h-298q-10 0 -10 11v136q0 10 10 10h306q48 0 77 16t29 44q0 26 -23.5 48t-77.5 45l-256 113v103zM628 116l65 85q59 -44 133 -44q10 0 10 -10v-136q0 -11 -10 -11
q-114 0 -198 116zM352 795v-4l-216 -203l-49 51l154 156h111zM0 157h194q10 0 10 -10v-136q0 -11 -10 -11h-194q-10 0 -10 11v136q0 10 10 10z" />
    <glyph glyph-name="uniFB9F" unicode="&#x6ba;" horiz-adv-x="706" arabic-form="final" 
d="M427 440h149q21 -144 26 -199l3 -18q10 -66 102 -66q10 0 10 -10v-136q0 -11 -10 -11q-57 0 -89 32l-10 12q-10 -110 -75 -177q-76 -82 -230 -82q-134 0 -206.5 70.5t-72.5 203.5q0 91 43 226h136q-42 -112 -42 -189q0 -72 36 -113t108 -41q160 0 160 168q0 99 -38 330z
" />
    <glyph glyph-name="uniFBA7" unicode="&#x6c1;" horiz-adv-x="630" arabic-form="final" 
d="M308 451q63 0 108.5 -35t87.5 -115q3 -6 19.5 -38t23.5 -42t22 -30t29.5 -27t31.5 -7q10 0 10 -10v-136q0 -11 -10 -11q-76 0 -122 36t-88 129q-32 71 -55 98.5t-58 27.5q-33 0 -60 -29.5t-60 -104.5l-37 -84l-126 58l37 84q57 129 112 182.5t135 53.5z" />
    <glyph glyph-name="uniFBA8" unicode="&#x6c1;" horiz-adv-x="274" arabic-form="initial" 
d="M75 -45h108l-44 -95h61l-21 -135h-150v132zM56 485h149q29 -188 29 -280q0 -99 -59 -152t-175 -53q-10 0 -10 11l1 136q0 10 10 10q47 0 66 21t19 69q0 51 -30 238z" />
    <glyph glyph-name="uniFBA9" unicode="&#x6c1;" horiz-adv-x="753" arabic-form="medial" 
d="M97 370h155v-324q0 -87 38 -122q32 -30 104 -35v39q0 111 56.5 170t161.5 59h141q10 0 10 -11v-136q0 -10 -10 -10h-129q-50 0 -73 -25t-23 -79v-60l-105 -111q-168 0 -247 76q-78 74 -79 230q-40 -31 -97 -31q-10 0 -10 11v136q0 10 10 10q71 0 89 41q6 11 8 33v139z
M617 -45h108l-44 -95h61l-21 -135h-150v132z" />
    <glyph glyph-name="uniFBAB" unicode="&#x6be;" horiz-adv-x="625" arabic-form="final" 
d="M321 581h124q65 -58 104 -134t39 -147q0 -77 -52 -136q7 0 11 -1q39 -6 78 -6q10 0 10 -11v-136q0 -10 -10 -10q-23 0 -41 3q-12 3 -31 9q12 -16 18 -33q8 -26 8 -47q0 -64 -49 -105.5t-125 -41.5q-154 0 -228 105q-18 26 -25 41q-23 -16 -66 -52l-82 109q62 52 112 86
q-2 30 -2 47q0 128 53.5 250t153.5 210zM294 167q144 53 144 130q0 51 -26 95q-20 35 -49 67q-25 -28 -42 -58q-47 -80 -65 -177q-5 -36 -7 -76q30 14 45 19zM340 36q-42 -18 -62 -28q8 -14 13 -21q42 -56 98 -56q30 0 47 13.5t17 37.5q0 26 -15 49q-12 19 -30 37
q-34 -18 -68 -32z" />
    <glyph glyph-name="uniFBAC" unicode="&#x6be;" horiz-adv-x="769" arabic-form="initial" 
d="M238 565l-1 140q243 0 370 -101.5t127 -293.5q0 -81 -36 -189l-136 -134q-80 -1 -159 21q-60 18 -112 41q-16 -7 -29 -11q-119 -38 -262 -38q-10 1 -10 11v136q0 10 10 10q49 0 88 3l-1 1q-45 55 -45 130q0 92 62.5 156.5t162.5 64.5q99 0 163.5 -64.5t64.5 -157.5
q0 -65 -50 -128q-4 -4 -5 -7l18 -3q51 -8 99 -8q33 80 33 160q0 108 -90 184.5t-262 76.5zM326 206q23 31 23 66q0 41 -25.5 67t-63.5 26q-39 0 -63 -26t-24 -66q0 -35 23 -67q22 -29 63 -44q44 15 67 44z" />
    <glyph glyph-name="uniFBAD" unicode="&#x6be;" horiz-adv-x="548" arabic-form="medial" 
d="M250 576h124q137 -132 137 -276q0 -76 -42 -131l-4 -6h5q39 -6 78 -6q10 0 10 -11v-136q0 -10 -10 -10q-23 0 -41 3q-12 3 -31 9q12 -16 18 -33q9 -24 9 -47q0 -64 -49 -105.5t-125 -41.5q-115 0 -184.5 57.5t-92.5 151.5l-2 7q-17 -1 -50 -1q-10 0 -10 11v136
q0 10 10 10h38q5 46 13 86q48 203 199 333zM179 168q102 17 142.5 49t40.5 80q0 52 -25 92q-23 37 -46 64q-28 -34 -44 -59q-52 -85 -69 -177q-6 -34 -7 -50q3 1 8 1zM193 19q8 -18 20 -33q41 -55 99 -55q30 0 47 13.5t17 37.5q0 26 -15 49q-8 15 -27 34q-60 -29 -141 -46z
" />
    <glyph glyph-name="uniFBAF" unicode="&#x6d2;" horiz-adv-x="746" arabic-form="final" 
d="M287 163h458q10 0 10 -10v-142q0 -11 -10 -11h-484q-72 0 -72 -35q0 -37 86 -37h370l-59 -143h-287q-265 0 -265 181q0 197 253 197z" />
    <glyph glyph-name="uniFBB1" unicode="&#x6d3;" horiz-adv-x="746" arabic-form="final" 
d="M287 163h458q10 0 10 -10v-142q0 -11 -10 -11h-484q-72 0 -72 -35q0 -37 86 -37h370l-59 -143h-287q-265 0 -265 181q0 197 253 197zM366 348h102l-31 -101h-128q-52 0 -106 -17v98q37 12 55 16l-1 1q-20 20 -20 54q0 46 32 75.5t83 29.5q32 0 76 -21v-90q-39 14 -69 14
q-42 0 -42 -30q0 -17 15 -23q14 -5 34 -6z" />
    <glyph glyph-name="uniFBFD" unicode="&#x6cc;" horiz-adv-x="683" arabic-form="final" 
d="M466 50v149q132 -41 216 -41q10 0 10 -10v-137q0 -11 -10 -11h-5q-49 -102 -129 -155q-92 -60 -231 -60q-136 0 -214.5 72t-78.5 202q0 91 43 226h136q-42 -112 -42 -189q0 -154 177 -154q88 0 151 31q39 17 67 47q-40 10 -90 30z" />
    <glyph glyph-name="uniFBFE" unicode="&#x6cc;" horiz-adv-x="360" arabic-form="initial" 
d="M139 485h150q29 -188 29 -280q0 -99 -59 -152t-175 -53h-84q-10 0 -10 11l1 136q0 10 10 10h84q46 0 65 21t19 69q0 51 -30 238zM-17 -154l101 101l72 -69l70 69l102 -101l-100 -101l-72 70l-70 -70z" />
    <glyph glyph-name="uniFBFF" unicode="&#x6cc;" horiz-adv-x="381" arabic-form="medial" 
d="M131 370h137q0 -72 -8 -141q-2 -18 -6 -34q23 -15 55 -26q37 -12 72 -12q10 0 10 -10v-136q0 -11 -10 -11q-58 0 -111 31q-33 19 -64 51q-24 -31 -61 -52q-54 -30 -145 -30q-10 0 -10 11v136q0 10 10 10q76 0 104 40q27 37 27 173zM5 -155l101 101l72 -69l70 69l102 -101
l-100 -101l-72 70l-70 -70z" />
    <glyph glyph-name="uniFC02" unicode="&#xfc02;" horiz-adv-x="580" arabic-form="isolated" 
d="M392 532h10l95 -88q-40 -44 -57 -75t-17 -66q0 -45 31 -83t102 -84h-1l-78 -138q-51 7 -100 34q-41 24 -62 47q-14 4 -21 5q-27 5 -46 5q-75 0 -75 -102q0 -83 30 -262h-149q-30 190 -30 276q0 108 58 174t156 66q27 0 48 -3l11 -2q-23 46 -23 95q0 112 118 201zM431 691
h102l-31 -101h-128q-52 0 -106 -17v98q38 13 55 16l-1 1q-20 20 -20 54q0 46 32 75.5t83 29.5q33 0 76 -21v-90q-39 14 -69 14q-42 0 -42 -30q0 -17 15 -23q14 -5 34 -6z" />
    <glyph glyph-name="uniFC03" unicode="&#xfc03;" horiz-adv-x="889" arabic-form="isolated" 
d="M657 485h149q30 -194 30 -280q0 -101 -60 -153q-42 -35 -104 -47q-20 -41 -50 -83q-101 -137 -309 -137q-135 0 -212 71.5t-77 202.5q0 91 43 226h136q-42 -112 -42 -189q0 -79 42 -116.5t131 -37.5q86 0 148 31q28 13 50 31l-14 2q-53 8 -100 23l8 152q86 -24 177 -24
q46 0 65 21t19 69q0 51 -30 238zM765 639h102l-31 -101h-128q-52 0 -106 -17v98q37 13 55 16l-1 1q-20 20 -20 54q0 46 32 75.5t83 29.5q33 0 76 -21v-90q-39 14 -69 14q-42 0 -42 -30q0 -17 15 -23q14 -5 34 -6z" />
    <glyph glyph-name="uniFC04" unicode="&#xfc04;" horiz-adv-x="889" arabic-form="isolated" 
d="M657 485h149q30 -194 30 -280q0 -101 -60 -153q-42 -35 -104 -47q-20 -41 -50 -83q-101 -137 -309 -137q-135 0 -212 71.5t-77 202.5q0 91 43 226h136q-42 -112 -42 -189q0 -79 42 -116.5t131 -37.5q86 0 148 31q28 13 50 31l-14 2q-53 8 -100 23l8 152q86 -24 177 -24
q46 0 65 21t19 69q0 51 -30 238zM765 639h102l-31 -101h-128q-52 0 -106 -17v98q37 13 55 16l-1 1q-20 20 -20 54q0 46 32 75.5t83 29.5q33 0 76 -21v-90q-39 14 -69 14q-42 0 -42 -30q0 -17 15 -23q14 -5 34 -6zM235 -366l101 101l72 -69l70 69l102 -101l-100 -101l-72 70
l-70 -70z" />
    <glyph glyph-name="uniFC08" unicode="&#xfc08;" horiz-adv-x="580" arabic-form="isolated" 
d="M392 532h10l95 -88q-40 -44 -57 -75t-17 -66q0 -45 31 -83t102 -84h-1l-78 -138q-51 7 -100 34q-41 24 -62 47q-14 4 -21 5q-27 5 -46 5q-75 0 -75 -102q0 -83 30 -262h-149q-30 190 -30 276q0 108 58 174t156 66q27 0 48 -3l11 -2q-23 46 -23 95q0 112 118 201z
M256 -155l101 101l102 -101l-101 -101z" />
    <glyph glyph-name="uniFC09" unicode="&#xfc09;" horiz-adv-x="892" arabic-form="isolated" 
d="M657 485h149q30 -194 30 -280q0 -101 -60 -153q-42 -35 -104 -47q-20 -41 -50 -83q-101 -137 -309 -137q-135 0 -212 71.5t-77 202.5q0 91 43 226h136q-42 -112 -42 -189q0 -79 42 -116.5t131 -37.5q86 0 148 31q28 13 50 31l-14 2q-53 8 -100 23l8 152q86 -24 177 -24
q46 0 65 21t19 69q0 51 -30 238zM645 -155l101 101l102 -101l-101 -101z" />
    <glyph glyph-name="uniFC0A" unicode="&#xfc0a;" horiz-adv-x="892" arabic-form="isolated" 
d="M657 485h149q30 -194 30 -280q0 -101 -60 -153q-42 -35 -104 -47q-20 -41 -50 -83q-101 -137 -309 -137q-135 0 -212 71.5t-77 202.5q0 91 43 226h136q-42 -112 -42 -189q0 -79 42 -116.5t131 -37.5q86 0 148 31q28 13 50 31l-14 2q-53 8 -100 23l8 152q86 -24 177 -24
q46 0 65 21t19 69q0 51 -30 238zM645 -155l101 101l102 -101l-101 -101zM235 -366l101 101l72 -69l70 69l102 -101l-100 -101l-72 70l-70 -70z" />
    <glyph glyph-name="uniFC0E" unicode="&#xfc0e;" horiz-adv-x="580" arabic-form="isolated" 
d="M392 532h10l95 -88q-40 -44 -57 -75t-17 -66q0 -45 31 -83t102 -84h-1l-78 -138q-51 7 -100 34q-41 24 -62 47q-14 4 -21 5q-27 5 -46 5q-75 0 -75 -102q0 -83 30 -262h-149q-30 190 -30 276q0 108 58 174t156 66q27 0 48 -3l11 -2q-23 46 -23 95q0 112 118 201zM220 677
l100 101l77 -75l76 75l102 -101l-100 -100l-77 74l-76 -74z" />
    <glyph glyph-name="uniFC0F" unicode="&#xfc0f;" horiz-adv-x="926" arabic-form="isolated" 
d="M657 485h149q30 -194 30 -280q0 -101 -60 -153q-42 -35 -104 -47q-20 -41 -50 -83q-101 -137 -309 -137q-135 0 -212 71.5t-77 202.5q0 91 43 226h136q-42 -112 -42 -189q0 -79 42 -116.5t131 -37.5q86 0 148 31q28 13 50 31l-14 2q-53 8 -100 23l8 152q86 -24 177 -24
q46 0 65 21t19 69q0 51 -30 238zM554 654l100 101l77 -75l76 75l102 -101l-100 -100l-77 74l-76 -74z" />
    <glyph glyph-name="uniFC10" unicode="&#xfc10;" horiz-adv-x="926" arabic-form="isolated" 
d="M657 485h149q30 -194 30 -280q0 -101 -60 -153q-42 -35 -104 -47q-20 -41 -50 -83q-101 -137 -309 -137q-135 0 -212 71.5t-77 202.5q0 91 43 226h136q-42 -112 -42 -189q0 -79 42 -116.5t131 -37.5q86 0 148 31q28 13 50 31l-14 2q-53 8 -100 23l8 152q86 -24 177 -24
q46 0 65 21t19 69q0 51 -30 238zM554 654l100 101l77 -75l76 75l102 -101l-100 -100l-77 74l-76 -74zM235 -366l101 101l72 -69l70 69l102 -101l-100 -101l-72 70l-70 -70z" />
    <glyph glyph-name="uniFC12" unicode="&#xfc12;" horiz-adv-x="580" arabic-form="isolated" 
d="M392 532h10l95 -88q-40 -44 -57 -75t-17 -66q0 -45 31 -83t102 -84h-1l-78 -138q-51 7 -100 34q-41 24 -62 47q-14 4 -21 5q-27 5 -46 5q-75 0 -75 -102q0 -83 30 -262h-149q-30 190 -30 276q0 108 58 174t156 66q27 0 48 -3l11 -2q-23 46 -23 95q0 112 118 201zM225 682
l100 102l79 -79l79 79l101 -102l-100 -101l-80 78l-78 -78zM335 822l69 70l71 -70l-70 -70z" />
    <glyph glyph-name="uniFC13" unicode="&#xfc13;" horiz-adv-x="931" arabic-form="isolated" 
d="M657 485h149q30 -194 30 -280q0 -101 -60 -153q-42 -35 -104 -47q-20 -41 -50 -83q-101 -137 -309 -137q-135 0 -212 71.5t-77 202.5q0 91 43 226h136q-42 -112 -42 -189q0 -79 42 -116.5t131 -37.5q86 0 148 31q28 13 50 31l-14 2q-53 8 -100 23l8 152q86 -24 177 -24
q46 0 65 21t19 69q0 51 -30 238zM554 639l100 102l79 -79l79 79l101 -102l-100 -101l-80 78l-78 -78zM664 779l69 70l71 -70l-70 -70z" />
    <glyph glyph-name="uniFC14" unicode="&#xfc14;" horiz-adv-x="931" arabic-form="isolated" 
d="M657 485h149q30 -194 30 -280q0 -101 -60 -153q-42 -35 -104 -47q-20 -41 -50 -83q-101 -137 -309 -137q-135 0 -212 71.5t-77 202.5q0 91 43 226h136q-42 -112 -42 -189q0 -79 42 -116.5t131 -37.5q86 0 148 31q28 13 50 31l-14 2q-53 8 -100 23l8 152q86 -24 177 -24
q46 0 65 21t19 69q0 51 -30 238zM554 639l100 102l79 -79l79 79l101 -102l-100 -101l-80 78l-78 -78zM664 779l69 70l71 -70l-70 -70zM235 -366l101 101l72 -69l70 69l102 -101l-100 -101l-72 70l-70 -70z" />
    <glyph glyph-name="uniFC31" unicode="&#xfc31;" horiz-adv-x="887" arabic-form="isolated" 
d="M619 611q99 0 160 -60t68 -172q6 -104 5 -161q-2 -77 -45.5 -132.5t-132.5 -74.5q-53 -117 -139.5 -171.5t-221.5 -54.5t-212 71.5t-77 202.5q0 91 43 226h136q-42 -112 -42 -189q0 -79 42 -116.5t131 -37.5q124 0 197 65q-63 7 -124 23l9 126q84 -24 163 -24
q60 0 91.5 16.5t36.5 56.5q-48 -20 -98 -20q-95 0 -150.5 55t-55.5 146q0 99 60.5 162t155.5 63zM613 463q-32 0 -52.5 -21t-21.5 -56q-2 -38 21 -61t62 -23q44 0 81 12l-4 54q-4 47 -26.5 71t-59.5 24zM516 757l101 101l102 -101l-101 -101z" />
    <glyph glyph-name="uniFC32" unicode="&#xfc32;" horiz-adv-x="887" arabic-form="isolated" 
d="M619 611q99 0 160 -60t68 -172q6 -104 5 -161q-2 -77 -45.5 -132.5t-132.5 -74.5q-53 -117 -139.5 -171.5t-221.5 -54.5t-212 71.5t-77 202.5q0 91 43 226h136q-42 -112 -42 -189q0 -79 42 -116.5t131 -37.5q124 0 197 65q-63 7 -124 23l9 126q84 -24 163 -24
q60 0 91.5 16.5t36.5 56.5q-48 -20 -98 -20q-95 0 -150.5 55t-55.5 146q0 99 60.5 162t155.5 63zM613 463q-32 0 -52.5 -21t-21.5 -56q-2 -38 21 -61t62 -23q44 0 81 12l-4 54q-4 47 -26.5 71t-59.5 24zM512 757l101 101l102 -101l-101 -101zM211 -366l101 101l72 -69l70 69
l102 -101l-100 -101l-72 70l-70 -70z" />
    <glyph glyph-name="uniFC35" unicode="&#xfc35;" horiz-adv-x="887" arabic-form="isolated" 
d="M619 611q99 0 160 -60t68 -172q6 -104 5 -161q-2 -77 -45.5 -132.5t-132.5 -74.5q-53 -117 -139.5 -171.5t-221.5 -54.5t-212 71.5t-77 202.5q0 91 43 226h136q-42 -112 -42 -189q0 -79 42 -116.5t131 -37.5q124 0 197 65q-63 7 -124 23l9 126q84 -24 163 -24
q60 0 91.5 16.5t36.5 56.5q-48 -20 -98 -20q-95 0 -150.5 55t-55.5 146q0 99 60.5 162t155.5 63zM613 463q-32 0 -52.5 -21t-21.5 -56q-2 -38 21 -61t62 -23q44 0 81 12l-4 54q-4 47 -26.5 71t-59.5 24zM446 758l100 101l77 -75l76 75l102 -101l-100 -100l-77 74l-76 -74z
" />
    <glyph glyph-name="uniFC36" unicode="&#xfc36;" horiz-adv-x="887" arabic-form="isolated" 
d="M619 611q99 0 160 -60t68 -172q6 -104 5 -161q-2 -77 -45.5 -132.5t-132.5 -74.5q-53 -117 -139.5 -171.5t-221.5 -54.5t-212 71.5t-77 202.5q0 91 43 226h136q-42 -112 -42 -189q0 -79 42 -116.5t131 -37.5q124 0 197 65q-63 7 -124 23l9 126q84 -24 163 -24
q60 0 91.5 16.5t36.5 56.5q-48 -20 -98 -20q-95 0 -150.5 55t-55.5 146q0 99 60.5 162t155.5 63zM613 463q-32 0 -52.5 -21t-21.5 -56q-2 -38 21 -61t62 -23q44 0 81 12l-4 54q-4 47 -26.5 71t-59.5 24zM446 758l100 101l77 -75l76 75l102 -101l-100 -100l-77 74l-76 -74z
M225 -366l101 101l72 -69l70 69l102 -101l-100 -101l-72 70l-70 -70z" />
    <glyph glyph-name="uniFC3D" unicode="&#xfc3d;" horiz-adv-x="1461" arabic-form="isolated" 
d="M1226 795h213v-6l-342 -279l160 -68q91 -38 134.5 -92.5t43.5 -131.5q0 -103 -69 -160.5t-194 -57.5h-257h-2h-3q-113 0 -177 55t-64 158q0 30 5 78q7 50 10 70q-61 -5 -99 -16q-62 -17 -91.5 -43.5t-29.5 -52.5q0 -17 13.5 -32.5t47.5 -39.5l32 -23q98 -69 98 -157
q0 -95 -86.5 -153.5t-233.5 -58.5q-153 0 -232 69.5t-79 204.5q0 91 43 226h136q-42 -112 -42 -189q0 -82 49 -118.5t160 -36.5q64 0 103 15.5t39 39.5t-61 68l-51 39q-78 58 -78 141q0 41 20.5 81t61.5 77.5t115 65.5t170 38l147 -91q-25 -113 -25 -158q0 -48 26.5 -74
t75.5 -26h2h265q46 0 75.5 16.5t29.5 43.5q0 26 -23.5 48t-77.5 45l-256 113v103z" />
    <glyph glyph-name="uniFC3E" unicode="&#xfc3e;" horiz-adv-x="1461" arabic-form="isolated" 
d="M1226 795h213v-6l-342 -279l160 -68q91 -38 134.5 -92.5t43.5 -131.5q0 -103 -69 -160.5t-194 -57.5h-257h-2h-3q-113 0 -177 55t-64 158q0 30 5 78q7 50 10 70q-61 -5 -99 -16q-62 -17 -91.5 -43.5t-29.5 -52.5q0 -17 13.5 -32.5t47.5 -39.5l32 -23q98 -69 98 -157
q0 -95 -86.5 -153.5t-233.5 -58.5q-153 0 -232 69.5t-79 204.5q0 91 43 226h136q-42 -112 -42 -189q0 -82 49 -118.5t160 -36.5q64 0 103 15.5t39 39.5t-61 68l-51 39q-78 58 -78 141q0 41 20.5 81t61.5 77.5t115 65.5t170 38l147 -91q-25 -113 -25 -158q0 -48 26.5 -74
t75.5 -26h2h265q46 0 75.5 16.5t29.5 43.5q0 26 -23.5 48t-77.5 45l-256 113v103zM235 -366l101 101l72 -69l70 69l102 -101l-100 -101l-72 70l-70 -70z" />
    <glyph glyph-name="uniFC42" unicode="&#xfc42;" horiz-adv-x="552" arabic-form="isolated" 
d="M284 725h149v-510l29 -15q25 -15 102 -64l-78 -138q-51 7 -100 34q-41 24 -62 47q-14 4 -21 5q-27 5 -46 5q-75 0 -75 -102q0 -83 30 -262h-149q-30 190 -30 276q0 108 58 174t156 66q25 0 45 -3q-4 22 -6 46q-2 36 -2 49v392z" />
    <glyph glyph-name="uniFC44" unicode="&#xfc44;" horiz-adv-x="891" arabic-form="isolated" 
d="M668 725h149v-520q0 -98 -59 -152q-32 -29 -84 -43q-22 -49 -52 -88q-101 -137 -309 -137q-135 0 -212 71.5t-77 202.5q0 91 43 226h136q-42 -112 -42 -189q0 -79 42 -116.5t131 -37.5q86 0 148 31q27 13 48 30l-22 3q-46 9 -90 23l8 152q86 -24 158 -24q46 0 65 21
t19 69v478zM189 -355l101 101l72 -69l70 69l102 -101l-100 -101l-72 70l-70 -70z" />
    <glyph glyph-name="uniFC4E" unicode="&#xfc4e;" horiz-adv-x="580" arabic-form="isolated" 
d="M392 532h10l95 -88q-40 -44 -57 -75t-17 -66q0 -45 31 -83t102 -84h-1l-78 -138q-51 7 -100 34q-41 24 -62 47q-14 4 -21 5q-27 5 -46 5q-75 0 -75 -102q0 -83 30 -262h-149q-30 190 -30 276q0 108 58 174t156 66q27 0 48 -3l11 -2q-23 46 -23 95q0 112 118 201zM299 691
l101 101l102 -101l-101 -101z" />
    <glyph glyph-name="uniFC4F" unicode="&#xfc4f;" horiz-adv-x="880" arabic-form="isolated" 
d="M657 485h149q30 -194 30 -280q0 -101 -60 -153q-42 -35 -104 -47q-20 -41 -50 -83q-101 -137 -309 -137q-135 0 -212 71.5t-77 202.5q0 91 43 226h136q-42 -112 -42 -189q0 -79 42 -116.5t131 -37.5q86 0 148 31q28 13 50 31l-14 2q-53 8 -100 23l8 152q86 -24 177 -24
q46 0 65 21t19 69q0 51 -30 238zM621 649l101 101l102 -101l-101 -101z" />
    <glyph glyph-name="uniFC50" unicode="&#xfc50;" horiz-adv-x="880" arabic-form="isolated" 
d="M657 485h149q30 -194 30 -280q0 -101 -60 -153q-42 -35 -104 -47q-20 -41 -50 -83q-101 -137 -309 -137q-135 0 -212 71.5t-77 202.5q0 91 43 226h136q-42 -112 -42 -189q0 -79 42 -116.5t131 -37.5q86 0 148 31q28 13 50 31l-14 2q-53 8 -100 23l8 152q86 -24 177 -24
q46 0 65 21t19 69q0 51 -30 238zM621 649l101 101l102 -101l-101 -101zM235 -366l101 101l72 -69l70 69l102 -101l-100 -101l-72 70l-70 -70z" />
    <glyph glyph-name="uniFC58" unicode="&#xfc58;" horiz-adv-x="580" arabic-form="isolated" 
d="M392 532h10l95 -88q-40 -44 -57 -75t-17 -66q0 -45 31 -83t102 -84h-1l-78 -138q-51 7 -100 34q-41 24 -62 47q-14 4 -21 5q-27 5 -46 5q-75 0 -75 -102q0 -83 30 -262h-149q-30 190 -30 276q0 108 58 174t156 66q27 0 48 -3l11 -2q-23 46 -23 95q0 112 118 201z
M222 -152l101 101l72 -69l70 69l102 -101l-100 -101l-72 70l-70 -70z" />
    <glyph glyph-name="uniFC64" unicode="&#xfc64;" horiz-adv-x="626" arabic-form="final" 
d="M452 465l118 -69q-22 -82 -22 -145q2 -94 77 -94q10 0 10 -10v-136q0 -11 -10 -11q-109 0 -159.5 45t-50.5 141q0 42 3 73l6 47q-39 -19 -68 -30q-36 -14 -94 -28q2 -26 7 -100q4 -49 4 -126q0 -237 -278 -237v127q57 0 95.5 29.5t38.5 88.5q0 104 -28 328l10 12
q183 17 341 95zM498 644h102l-31 -101h-128q-52 0 -106 -17v98q37 12 55 16l-1 1q-20 20 -20 54q0 46 32 75.5t83 29.5q32 0 76 -21v-90q-39 14 -69 14q-42 0 -42 -30q0 -17 15 -23q14 -5 34 -6z" />
    <glyph glyph-name="uniFC65" unicode="&#xfc65;" horiz-adv-x="626" arabic-form="final" 
d="M452 465l118 -69q-22 -82 -22 -145q2 -94 77 -94q10 0 10 -10v-136q0 -11 -10 -11q-109 0 -159.5 45t-50.5 141q0 42 3 73l6 47q-39 -19 -68 -30q-36 -14 -94 -28q2 -26 7 -100q4 -49 4 -126q0 -237 -278 -237v127q57 0 95.5 29.5t38.5 88.5q0 104 -28 328l10 12
q183 17 341 95zM36 561l101 101l102 -101l-101 -101zM507 644h102l-31 -101h-128q-52 0 -106 -17v98q37 12 55 16l-1 1q-20 20 -20 54q0 46 32 75.5t83 29.5q33 0 76 -21v-90q-39 14 -69 14q-42 0 -42 -30q0 -17 15 -23q14 -5 34 -6z" />
    <glyph glyph-name="uniFC67" unicode="&#xfc67;" horiz-adv-x="966" arabic-form="final" 
d="M792 465l119 -69q-23 -87 -22 -145q0 -44 20 -69t57 -25q10 0 10 -10v-136q0 -11 -10 -11q-112 0 -161.5 44t-49.5 142q0 42 3 73l6 47q-17 -10 -20 -11q-37 -18 -93 -35l-50 -12l7 -71q3 -41 3 -82q0 -149 -78 -229.5t-230 -80.5q-134 0 -206.5 70.5t-72.5 203.5
q0 91 43 226h136q-42 -112 -42 -189q0 -72 36 -113t108 -41q158 0 158 168q0 86 -22 248l10 12q187 17 341 95zM845 642h91l-31 -101h-128q-52 0 -106 -17v98l31 10q12 4 24 6l-1 1q-20 20 -20 54q0 46 32 75.5t83 29.5q32 0 76 -21v-90q-39 14 -69 14q-42 0 -42 -30
q0 -29 60 -29zM203 491l101 101l102 -101l-101 -101z" />
    <glyph glyph-name="uniFC68" unicode="&#xfc68;" horiz-adv-x="915" arabic-form="final" 
d="M689 506l148 -81q-26 -111 -26 -168q0 -100 103 -100q10 0 10 -10v-136q0 -11 -10 -11q-116 0 -180.5 55.5t-64.5 157.5q0 30 5 78q7 50 10 70q-61 -5 -99 -16q-62 -17 -91.5 -43.5t-29.5 -52.5q0 -17 13.5 -32.5t47.5 -39.5l32 -23q98 -69 98 -157q0 -95 -86.5 -153.5
t-233.5 -58.5q-153 0 -232 69.5t-79 204.5q0 91 43 226h136q-42 -112 -42 -189q0 -82 49 -118.5t160 -36.5q64 0 103 15.5t39 39.5t-61 68l-51 39q-78 58 -78 141q0 41 20.5 81t61.5 77.5t115 65.5t170 38zM718 677h102l-31 -101h-128q-52 0 -106 -17v98q38 13 55 16l-1 1
q-20 20 -20 54q0 46 32 75.5t83 29.5q32 0 76 -21v-90q-39 14 -69 14q-42 0 -42 -30q0 -17 15 -23q14 -5 34 -6z" />
    <glyph glyph-name="uniFC69" unicode="&#xfc69;" horiz-adv-x="915" arabic-form="final" 
d="M689 506l148 -81q-26 -111 -26 -168q0 -100 103 -100q10 0 10 -10v-136q0 -11 -10 -11q-116 0 -180.5 55.5t-64.5 157.5q0 30 5 78q7 50 10 70q-61 -5 -99 -16q-62 -17 -91.5 -43.5t-29.5 -52.5q0 -17 13.5 -32.5t47.5 -39.5l32 -23q98 -69 98 -157q0 -95 -86.5 -153.5
t-233.5 -58.5q-153 0 -232 69.5t-79 204.5q0 91 43 226h136q-42 -112 -42 -189q0 -82 49 -118.5t160 -36.5q64 0 103 15.5t39 39.5t-61 68l-51 39q-78 58 -78 141q0 41 20.5 81t61.5 77.5t115 65.5t170 38zM718 677h102l-31 -101h-128q-52 0 -106 -17v98q38 13 55 16l-1 1
q-20 20 -20 54q0 46 32 75.5t83 29.5q32 0 76 -21v-90q-39 14 -69 14q-42 0 -42 -30q0 -17 15 -23q14 -5 34 -6zM235 -366l101 101l72 -69l70 69l102 -101l-100 -101l-72 70l-70 -70z" />
    <glyph glyph-name="uniFC6A" unicode="&#xfc6a;" horiz-adv-x="626" arabic-form="final" 
d="M452 465l118 -69q-22 -82 -22 -145q2 -94 77 -94q10 0 10 -10v-136q0 -11 -10 -11q-109 0 -159.5 45t-50.5 141q0 42 3 73l6 47q-39 -19 -68 -30q-36 -14 -94 -28q2 -26 7 -100q4 -49 4 -126q0 -237 -278 -237v127q57 0 95.5 29.5t38.5 88.5q0 104 -28 328l10 12
q183 17 341 95zM309 -155l101 101l102 -101l-101 -101z" />
    <glyph glyph-name="uniFC6B" unicode="&#xfc6b;" horiz-adv-x="626" arabic-form="final" 
d="M452 465l118 -69q-22 -82 -22 -145q2 -94 77 -94q10 0 10 -10v-136q0 -11 -10 -11q-109 0 -159.5 45t-50.5 141q0 42 3 73l6 47q-39 -19 -68 -30q-36 -14 -94 -28q2 -26 7 -100q4 -49 4 -126q0 -237 -278 -237v127q57 0 95.5 29.5t38.5 88.5q0 104 -28 328l10 12
q183 17 341 95zM36 561l101 101l102 -101l-101 -101zM309 -155l101 101l102 -101l-101 -101z" />
    <glyph glyph-name="uniFC6D" unicode="&#xfc6d;" horiz-adv-x="966" arabic-form="final" 
d="M792 465l119 -69q-23 -87 -22 -145q0 -44 20 -69t57 -25q10 0 10 -10v-136q0 -11 -10 -11q-112 0 -161.5 44t-49.5 142q0 42 3 73l6 47q-17 -10 -20 -11q-37 -18 -93 -35l-50 -12l7 -71q3 -41 3 -82q0 -149 -78 -229.5t-230 -80.5q-134 0 -206.5 70.5t-72.5 203.5
q0 91 43 226h136q-42 -112 -42 -189q0 -72 36 -113t108 -41q158 0 158 168q0 86 -22 248l10 12q187 17 341 95zM627 -155l101 101l102 -101l-101 -101zM203 491l101 101l102 -101l-101 -101z" />
    <glyph glyph-name="uniFC6E" unicode="&#xfc6e;" horiz-adv-x="915" arabic-form="final" 
d="M689 506l148 -81q-26 -111 -26 -168q0 -100 103 -100q10 0 10 -10v-136q0 -11 -10 -11q-116 0 -180.5 55.5t-64.5 157.5q0 30 5 78q7 50 10 70q-61 -5 -99 -16q-62 -17 -91.5 -43.5t-29.5 -52.5q0 -17 13.5 -32.5t47.5 -39.5l32 -23q98 -69 98 -157q0 -95 -86.5 -153.5
t-233.5 -58.5q-153 0 -232 69.5t-79 204.5q0 91 43 226h136q-42 -112 -42 -189q0 -82 49 -118.5t160 -36.5q64 0 103 15.5t39 39.5t-61 68l-51 39q-78 58 -78 141q0 41 20.5 81t61.5 77.5t115 65.5t170 38zM682 -155l101 101l102 -101l-101 -101z" />
    <glyph glyph-name="uniFC6F" unicode="&#xfc6f;" horiz-adv-x="915" arabic-form="final" 
d="M689 506l148 -81q-26 -111 -26 -168q0 -100 103 -100q10 0 10 -10v-136q0 -11 -10 -11q-116 0 -180.5 55.5t-64.5 157.5q0 30 5 78q7 50 10 70q-61 -5 -99 -16q-62 -17 -91.5 -43.5t-29.5 -52.5q0 -17 13.5 -32.5t47.5 -39.5l32 -23q98 -69 98 -157q0 -95 -86.5 -153.5
t-233.5 -58.5q-153 0 -232 69.5t-79 204.5q0 91 43 226h136q-42 -112 -42 -189q0 -82 49 -118.5t160 -36.5q64 0 103 15.5t39 39.5t-61 68l-51 39q-78 58 -78 141q0 41 20.5 81t61.5 77.5t115 65.5t170 38zM682 -155l101 101l102 -101l-101 -101zM235 -366l101 101l72 -69
l70 69l102 -101l-100 -101l-72 70l-70 -70z" />
    <glyph glyph-name="uniFC70" unicode="&#xfc70;" horiz-adv-x="626" arabic-form="final" 
d="M452 465l118 -69q-22 -82 -22 -145q2 -94 77 -94q10 0 10 -10v-136q0 -11 -10 -11q-109 0 -159.5 45t-50.5 141q0 42 3 73l6 47q-39 -19 -68 -30q-36 -14 -94 -28q2 -26 7 -100q4 -49 4 -126q0 -237 -278 -237v127q57 0 95.5 29.5t38.5 88.5q0 104 -28 328l10 12
q183 17 341 95zM265 643l100 101l77 -75l76 75l102 -101l-100 -100l-77 74l-76 -74z" />
    <glyph glyph-name="uniFC71" unicode="&#xfc71;" horiz-adv-x="626" arabic-form="final" 
d="M452 465l118 -69q-22 -82 -22 -145q2 -94 77 -94q10 0 10 -10v-136q0 -11 -10 -11q-109 0 -159.5 45t-50.5 141q0 42 3 73l6 47q-39 -19 -68 -30q-36 -14 -94 -28q2 -26 7 -100q4 -49 4 -126q0 -237 -278 -237v127q57 0 95.5 29.5t38.5 88.5q0 104 -28 328l10 12
q183 17 341 95zM36 561l101 101l102 -101l-101 -101zM279 643l100 101l77 -75l76 75l102 -101l-100 -100l-77 74l-76 -74z" />
    <glyph glyph-name="uniFC73" unicode="&#xfc73;" horiz-adv-x="966" arabic-form="final" 
d="M792 465l119 -69q-23 -87 -22 -145q0 -44 20 -69t57 -25q10 0 10 -10v-136q0 -11 -10 -11q-112 0 -161.5 44t-49.5 142q0 42 3 73l6 47q-17 -10 -20 -11q-37 -18 -93 -35l-50 -12l7 -71q3 -41 3 -82q0 -149 -78 -229.5t-230 -80.5q-134 0 -206.5 70.5t-72.5 203.5
q0 91 43 226h136q-42 -112 -42 -189q0 -72 36 -113t108 -41q158 0 158 168q0 86 -22 248l10 12q187 17 341 95zM605 644l100 101l77 -75l76 75l102 -101l-100 -100l-77 74l-76 -74zM203 491l101 101l102 -101l-101 -101z" />
    <glyph glyph-name="uniFC74" unicode="&#xfc74;" horiz-adv-x="915" arabic-form="final" 
d="M689 506l148 -81q-26 -111 -26 -168q0 -100 103 -100q10 0 10 -10v-136q0 -11 -10 -11q-116 0 -180.5 55.5t-64.5 157.5q0 30 5 78q7 50 10 70q-61 -5 -99 -16q-62 -17 -91.5 -43.5t-29.5 -52.5q0 -17 13.5 -32.5t47.5 -39.5l32 -23q98 -69 98 -157q0 -95 -86.5 -153.5
t-233.5 -58.5q-153 0 -232 69.5t-79 204.5q0 91 43 226h136q-42 -112 -42 -189q0 -82 49 -118.5t160 -36.5q64 0 103 15.5t39 39.5t-61 68l-51 39q-78 58 -78 141q0 41 20.5 81t61.5 77.5t115 65.5t170 38zM493 665l100 101l77 -75l76 75l102 -101l-100 -100l-77 74l-76 -74
z" />
    <glyph glyph-name="uniFC75" unicode="&#xfc75;" horiz-adv-x="915" arabic-form="final" 
d="M689 506l148 -81q-26 -111 -26 -168q0 -100 103 -100q10 0 10 -10v-136q0 -11 -10 -11q-116 0 -180.5 55.5t-64.5 157.5q0 30 5 78q7 50 10 70q-61 -5 -99 -16q-62 -17 -91.5 -43.5t-29.5 -52.5q0 -17 13.5 -32.5t47.5 -39.5l32 -23q98 -69 98 -157q0 -95 -86.5 -153.5
t-233.5 -58.5q-153 0 -232 69.5t-79 204.5q0 91 43 226h136q-42 -112 -42 -189q0 -82 49 -118.5t160 -36.5q64 0 103 15.5t39 39.5t-61 68l-51 39q-78 58 -78 141q0 41 20.5 81t61.5 77.5t115 65.5t170 38zM493 665l100 101l77 -75l76 75l102 -101l-100 -100l-77 74l-76 -74
zM236 -366l101 101l72 -69l70 69l102 -101l-100 -101l-72 70l-70 -70z" />
    <glyph glyph-name="uniFC76" unicode="&#xfc76;" horiz-adv-x="626" arabic-form="final" 
d="M452 465l118 -69q-22 -82 -22 -145q2 -94 77 -94q10 0 10 -10v-136q0 -11 -10 -11q-109 0 -159.5 45t-50.5 141q0 42 3 73l6 47q-39 -19 -68 -30q-36 -14 -94 -28q2 -26 7 -100q4 -49 4 -126q0 -237 -278 -237v127q57 0 95.5 29.5t38.5 88.5q0 104 -28 328l10 12
q183 17 341 95zM268 638l100 102l79 -79l79 79l101 -102l-100 -101l-80 78l-78 -78zM378 778l69 70l71 -70l-70 -70z" />
    <glyph glyph-name="uniFC77" unicode="&#xfc77;" horiz-adv-x="626" arabic-form="final" 
d="M452 465l118 -69q-22 -82 -22 -145q2 -94 77 -94q10 0 10 -10v-136q0 -11 -10 -11q-109 0 -159.5 45t-50.5 141q0 42 3 73l6 47q-39 -19 -68 -30q-36 -14 -94 -28q2 -26 7 -100q4 -49 4 -126q0 -237 -278 -237v127q57 0 95.5 29.5t38.5 88.5q0 104 -28 328l10 12
q183 17 341 95zM36 561l101 101l102 -101l-101 -101zM294 638l100 102l79 -79l79 79l101 -102l-100 -101l-80 78l-78 -78zM404 778l69 70l71 -70l-70 -70z" />
    <glyph glyph-name="uniFC79" unicode="&#xfc79;" horiz-adv-x="966" arabic-form="final" 
d="M792 465l119 -69q-23 -87 -22 -145q0 -44 20 -69t57 -25q10 0 10 -10v-136q0 -11 -10 -11q-112 0 -161.5 44t-49.5 142q0 42 3 73l6 47q-17 -10 -20 -11q-37 -18 -93 -35l-50 -12l7 -71q3 -41 3 -82q0 -149 -78 -229.5t-230 -80.5q-134 0 -206.5 70.5t-72.5 203.5
q0 91 43 226h136q-42 -112 -42 -189q0 -72 36 -113t108 -41q158 0 158 168q0 86 -22 248l10 12q187 17 341 95zM605 639l100 102l79 -79l79 79l101 -102l-100 -101l-80 78l-78 -78zM203 491l101 101l102 -101l-101 -101zM715 779l69 70l71 -70l-70 -70z" />
    <glyph glyph-name="uniFC7A" unicode="&#xfc7a;" horiz-adv-x="915" arabic-form="final" 
d="M689 506l148 -81q-26 -111 -26 -168q0 -100 103 -100q10 0 10 -10v-136q0 -11 -10 -11q-116 0 -180.5 55.5t-64.5 157.5q0 30 5 78q7 50 10 70q-61 -5 -99 -16q-62 -17 -91.5 -43.5t-29.5 -52.5q0 -17 13.5 -32.5t47.5 -39.5l32 -23q98 -69 98 -157q0 -95 -86.5 -153.5
t-233.5 -58.5q-153 0 -232 69.5t-79 204.5q0 91 43 226h136q-42 -112 -42 -189q0 -82 49 -118.5t160 -36.5q64 0 103 15.5t39 39.5t-61 68l-51 39q-78 58 -78 141q0 41 20.5 81t61.5 77.5t115 65.5t170 38zM496 653l100 102l79 -79l79 79l101 -102l-100 -101l-80 78l-78 -78
zM606 793l69 70l71 -70l-70 -70z" />
    <glyph glyph-name="uniFC7B" unicode="&#xfc7b;" horiz-adv-x="915" arabic-form="final" 
d="M689 506l148 -81q-26 -111 -26 -168q0 -100 103 -100q10 0 10 -10v-136q0 -11 -10 -11q-116 0 -180.5 55.5t-64.5 157.5q0 30 5 78q7 50 10 70q-61 -5 -99 -16q-62 -17 -91.5 -43.5t-29.5 -52.5q0 -17 13.5 -32.5t47.5 -39.5l32 -23q98 -69 98 -157q0 -95 -86.5 -153.5
t-233.5 -58.5q-153 0 -232 69.5t-79 204.5q0 91 43 226h136q-42 -112 -42 -189q0 -82 49 -118.5t160 -36.5q64 0 103 15.5t39 39.5t-61 68l-51 39q-78 58 -78 141q0 41 20.5 81t61.5 77.5t115 65.5t170 38zM496 653l100 102l79 -79l79 79l101 -102l-100 -101l-80 78l-78 -78
zM606 793l69 70l71 -70l-70 -70zM235 -366l101 101l72 -69l70 69l102 -101l-100 -101l-72 70l-70 -70z" />
    <glyph glyph-name="uniFC83" unicode="&#xfc83;" horiz-adv-x="1544" arabic-form="final" 
d="M1226 795h213v-6l-342 -279l160 -68q91 -38 134.5 -92.5t43.5 -131.5q0 -103 -69 -160.5t-194 -57.5h-257h-2h-3q-113 0 -177 55t-64 158q0 30 5 78q7 50 10 70q-61 -5 -99 -16q-62 -17 -91.5 -43.5t-29.5 -52.5q0 -17 13.5 -32.5t47.5 -39.5l32 -23q98 -69 98 -157
q0 -95 -86.5 -153.5t-233.5 -58.5q-153 0 -232 69.5t-79 204.5q0 91 43 226h136q-42 -112 -42 -189q0 -82 49 -118.5t160 -36.5q64 0 103 15.5t39 39.5t-61 68l-51 39q-78 58 -78 141q0 41 20.5 81t61.5 77.5t115 65.5t170 38l147 -91q-25 -113 -25 -158q0 -48 26.5 -74
t75.5 -26h2h265q46 0 75.5 16.5t29.5 43.5q0 26 -23.5 48t-77.5 45l-256 113v103zM1346 116l65 85q59 -44 133 -44q10 0 10 -10v-136q0 -11 -10 -11q-114 0 -198 116z" />
    <glyph glyph-name="uniFC84" unicode="&#xfc84;" horiz-adv-x="1544" arabic-form="final" 
d="M1226 795h213v-6l-342 -279l160 -68q91 -38 134.5 -92.5t43.5 -131.5q0 -103 -69 -160.5t-194 -57.5h-257h-2h-3q-113 0 -177 55t-64 158q0 30 5 78q7 50 10 70q-61 -5 -99 -16q-62 -17 -91.5 -43.5t-29.5 -52.5q0 -17 13.5 -32.5t47.5 -39.5l32 -23q98 -69 98 -157
q0 -95 -86.5 -153.5t-233.5 -58.5q-153 0 -232 69.5t-79 204.5q0 91 43 226h136q-42 -112 -42 -189q0 -82 49 -118.5t160 -36.5q64 0 103 15.5t39 39.5t-61 68l-51 39q-78 58 -78 141q0 41 20.5 81t61.5 77.5t115 65.5t170 38l147 -91q-25 -113 -25 -158q0 -48 26.5 -74
t75.5 -26h2h265q46 0 75.5 16.5t29.5 43.5q0 26 -23.5 48t-77.5 45l-256 113v103zM1346 116l65 85q59 -44 133 -44q10 0 10 -10v-136q0 -11 -10 -11q-114 0 -198 116zM235 -366l101 101l72 -69l70 69l102 -101l-100 -101l-72 70l-70 -70z" />
    <glyph glyph-name="uniFC87" unicode="&#xfc87;" horiz-adv-x="908" arabic-form="final" 
d="M673 725h149l1 -478q0 -48 19 -69t65 -21q10 0 10 -10l1 -136q0 -11 -10 -11q-117 0 -176 53l-8 8l-10 -8q-18 -17 -33 -26q-27 -63 -59 -105q-101 -137 -309 -137q-135 0 -212 71.5t-77 202.5q0 91 43 226h136q-42 -112 -42 -189q0 -79 42 -116.5t131 -37.5q86 0 148 31
q27 13 48 30l-22 3q-46 9 -90 23l8 152q86 -24 158 -24q32 0 62 11q11 4 29 14q-1 7 -1 23zM235 -355l101 101l72 -69l70 69l102 -101l-100 -101l-72 70l-70 -70z" />
    <glyph glyph-name="uniFC8A" unicode="&#xfc8a;" horiz-adv-x="626" arabic-form="final" 
d="M452 465l118 -69q-22 -82 -22 -145q2 -94 77 -94q10 0 10 -10v-136q0 -11 -10 -11q-109 0 -159.5 45t-50.5 141q0 42 3 73l6 47q-39 -19 -68 -30q-36 -14 -94 -28q2 -26 7 -100q4 -49 4 -126q0 -237 -278 -237v127q57 0 95.5 29.5t38.5 88.5q0 104 -28 328l10 12
q183 17 341 95zM355 639l101 101l102 -101l-101 -101z" />
    <glyph glyph-name="uniFC8B" unicode="&#xfc8b;" horiz-adv-x="626" arabic-form="final" 
d="M452 465l118 -69q-22 -82 -22 -145q2 -94 77 -94q10 0 10 -10v-136q0 -11 -10 -11q-109 0 -159.5 45t-50.5 141q0 42 3 73l6 47q-39 -19 -68 -30q-36 -14 -94 -28q2 -26 7 -100q4 -49 4 -126q0 -237 -278 -237v127q57 0 95.5 29.5t38.5 88.5q0 104 -28 328l10 12
q183 17 341 95zM36 561l101 101l102 -101l-101 -101zM355 639l101 101l102 -101l-101 -101z" />
    <glyph glyph-name="uniFC8D" unicode="&#xfc8d;" horiz-adv-x="966" arabic-form="final" 
d="M792 465l119 -69q-23 -87 -22 -145q0 -44 20 -69t57 -25q10 0 10 -10v-136q0 -11 -10 -11q-112 0 -161.5 44t-49.5 142q0 42 3 73l6 47q-17 -10 -20 -11q-37 -18 -93 -35l-50 -12l7 -71q3 -41 3 -82q0 -149 -78 -229.5t-230 -80.5q-134 0 -206.5 70.5t-72.5 203.5
q0 91 43 226h136q-42 -112 -42 -189q0 -72 36 -113t108 -41q158 0 158 168q0 86 -22 248l10 12q187 17 341 95zM688 651l101 101l102 -101l-101 -101zM203 491l101 101l102 -101l-101 -101z" />
    <glyph glyph-name="uniFC8E" unicode="&#xfc8e;" horiz-adv-x="915" arabic-form="final" 
d="M689 506l148 -81q-26 -111 -26 -168q0 -100 103 -100q10 0 10 -10v-136q0 -11 -10 -11q-116 0 -180.5 55.5t-64.5 157.5q0 30 5 78q7 50 10 70q-61 -5 -99 -16q-62 -17 -91.5 -43.5t-29.5 -52.5q0 -17 13.5 -32.5t47.5 -39.5l32 -23q98 -69 98 -157q0 -95 -86.5 -153.5
t-233.5 -58.5q-153 0 -232 69.5t-79 204.5q0 91 43 226h136q-42 -112 -42 -189q0 -82 49 -118.5t160 -36.5q64 0 103 15.5t39 39.5t-61 68l-51 39q-78 58 -78 141q0 41 20.5 81t61.5 77.5t115 65.5t170 38zM582 691l101 101l102 -101l-101 -101z" />
    <glyph glyph-name="uniFC8F" unicode="&#xfc8f;" horiz-adv-x="915" arabic-form="final" 
d="M689 506l148 -81q-26 -111 -26 -168q0 -100 103 -100q10 0 10 -10v-136q0 -11 -10 -11q-116 0 -180.5 55.5t-64.5 157.5q0 30 5 78q7 50 10 70q-61 -5 -99 -16q-62 -17 -91.5 -43.5t-29.5 -52.5q0 -17 13.5 -32.5t47.5 -39.5l32 -23q98 -69 98 -157q0 -95 -86.5 -153.5
t-233.5 -58.5q-153 0 -232 69.5t-79 204.5q0 91 43 226h136q-42 -112 -42 -189q0 -82 49 -118.5t160 -36.5q64 0 103 15.5t39 39.5t-61 68l-51 39q-78 58 -78 141q0 41 20.5 81t61.5 77.5t115 65.5t170 38zM582 691l101 101l102 -101l-101 -101zM235 -366l101 101l72 -69
l70 69l102 -101l-100 -101l-72 70l-70 -70z" />
    <glyph glyph-name="uniFC91" unicode="&#xfc91;" horiz-adv-x="626" arabic-form="final" 
d="M452 465l118 -69q-22 -82 -22 -145q2 -94 77 -94q10 0 10 -10v-136q0 -11 -10 -11q-109 0 -159.5 45t-50.5 141q0 42 3 73l6 47q-39 -19 -68 -30q-36 -14 -94 -28q2 -26 7 -100q4 -49 4 -126q0 -237 -278 -237v127q57 0 95.5 29.5t38.5 88.5q0 104 -28 328l10 12
q183 17 341 95zM263 -152l101 101l72 -69l70 69l102 -101l-100 -101l-72 70l-70 -70z" />
    <glyph glyph-name="uniFC92" unicode="&#xfc92;" horiz-adv-x="626" arabic-form="final" 
d="M452 465l118 -69q-22 -82 -22 -145q2 -94 77 -94q10 0 10 -10v-136q0 -11 -10 -11q-109 0 -159.5 45t-50.5 141q0 42 3 73l6 47q-39 -19 -68 -30q-36 -14 -94 -28q2 -26 7 -100q4 -49 4 -126q0 -237 -278 -237v127q57 0 95.5 29.5t38.5 88.5q0 104 -28 328l10 12
q183 17 341 95zM36 561l101 101l102 -101l-101 -101zM263 -152l101 101l72 -69l70 69l102 -101l-100 -101l-72 70l-70 -70z" />
    <glyph glyph-name="uniFC94" unicode="&#xfc94;" horiz-adv-x="966" arabic-form="final" 
d="M792 465l119 -69q-23 -87 -22 -145q0 -44 20 -69t57 -25q10 0 10 -10v-136q0 -11 -10 -11q-112 0 -161.5 44t-49.5 142q0 42 3 73l6 47q-17 -10 -20 -11q-37 -18 -93 -35l-50 -12l7 -71q3 -41 3 -82q0 -149 -78 -229.5t-230 -80.5q-134 0 -206.5 70.5t-72.5 203.5
q0 91 43 226h136q-42 -112 -42 -189q0 -72 36 -113t108 -41q158 0 158 168q0 86 -22 248l10 12q187 17 341 95zM586 -152l101 101l71 -69l71 69l102 -101l-100 -101l-72 70l-70 -70zM203 491l101 101l102 -101l-101 -101z" />
    <glyph glyph-name="uniFCCC" unicode="&#xfccc;" horiz-adv-x="333" arabic-form="initial" 
d="M0 157q34 0 66 -3l29 -4q0 3 -1 4q-9 65 -9 102v469h149v-602q23 -10 28 -13q48 -25 97 -65l-76 -136q-53 11 -100 34q-35 19 -61 42l-9 2q-55 13 -113 13q-10 0 -10 10v136q0 11 10 11z" />
    <glyph glyph-name="uniFCFB" unicode="&#xfcfb;" horiz-adv-x="1513" arabic-form="isolated" 
d="M1289 485h149q30 -193 30 -282q0 -92 -55 -147t-146 -55q-46 0 -106 20q-40 14 -79 40q-15 -13 -42 -29q-59 -32 -131 -32q-113 0 -176.5 55.5t-63.5 157.5q0 30 5 78q7 50 10 70q-61 -5 -99 -16q-62 -17 -91.5 -43.5t-29.5 -52.5q0 -17 13.5 -32.5t47.5 -39.5l32 -23
q98 -69 98 -157q0 -95 -86.5 -153.5t-233.5 -58.5q-153 0 -232 69.5t-79 204.5q0 91 43 226h136q-42 -112 -42 -189q0 -82 49 -118.5t160 -36.5q64 0 103 15.5t39 39.5t-61 68l-51 39q-78 58 -78 141q0 41 20.5 81t61.5 77.5t115 65.5t170 38l148 -81q-26 -111 -26 -168
q0 -48 27 -74t78 -26q69 0 91 42q21 41 21 171h137q0 -79 -9 -142q-4 -25 -11 -55l23 -8q34 -8 67 -8q45 0 64.5 20.5t19.5 67.5q0 63 -30 240z" />
    <glyph glyph-name="uniFCFC" unicode="&#xfcfc;" horiz-adv-x="1513" arabic-form="isolated" 
d="M1289 485h149q30 -193 30 -282q0 -92 -55 -147t-146 -55q-46 0 -106 20q-40 14 -79 40q-15 -13 -42 -29q-59 -32 -131 -32q-113 0 -176.5 55.5t-63.5 157.5q0 30 5 78q7 50 10 70q-61 -5 -99 -16q-62 -17 -91.5 -43.5t-29.5 -52.5q0 -17 13.5 -32.5t47.5 -39.5l32 -23
q98 -69 98 -157q0 -95 -86.5 -153.5t-233.5 -58.5q-153 0 -232 69.5t-79 204.5q0 91 43 226h136q-42 -112 -42 -189q0 -82 49 -118.5t160 -36.5q64 0 103 15.5t39 39.5t-61 68l-51 39q-78 58 -78 141q0 41 20.5 81t61.5 77.5t115 65.5t170 38l148 -81q-26 -111 -26 -168
q0 -48 27 -74t78 -26q69 0 91 42q21 41 21 171h137q0 -79 -9 -142q-4 -25 -11 -55l23 -8q34 -8 67 -8q45 0 64.5 20.5t19.5 67.5q0 63 -30 240zM235 -366l101 101l72 -69l70 69l102 -101l-100 -101l-72 70l-70 -70z" />
    <glyph glyph-name="uniFCFD" unicode="&#xfcfd;" horiz-adv-x="1513" arabic-form="isolated" 
d="M1289 485h149q30 -193 30 -282q0 -92 -55 -147t-146 -55q-46 0 -106 20q-40 14 -79 40q-15 -13 -42 -29q-59 -32 -131 -32q-113 0 -176.5 55.5t-63.5 157.5q0 30 5 78q7 50 10 70q-61 -5 -99 -16q-62 -17 -91.5 -43.5t-29.5 -52.5q0 -17 13.5 -32.5t47.5 -39.5l32 -23
q98 -69 98 -157q0 -95 -86.5 -153.5t-233.5 -58.5q-153 0 -232 69.5t-79 204.5q0 91 43 226h136q-42 -112 -42 -189q0 -82 49 -118.5t160 -36.5q64 0 103 15.5t39 39.5t-61 68l-51 39q-78 58 -78 141q0 41 20.5 81t61.5 77.5t115 65.5t170 38l148 -81q-26 -111 -26 -168
q0 -48 27 -74t78 -26q69 0 91 42q21 41 21 171h137q0 -79 -9 -142q-4 -25 -11 -55l23 -8q34 -8 67 -8q45 0 64.5 20.5t19.5 67.5q0 63 -30 240zM924 562l100 102l79 -79l79 79l101 -102l-100 -101l-80 78l-78 -78zM1034 702l69 70l71 -70l-70 -70z" />
    <glyph glyph-name="uniFCFE" unicode="&#xfcfe;" horiz-adv-x="1513" arabic-form="isolated" 
d="M1289 485h149q30 -193 30 -282q0 -92 -55 -147t-146 -55q-46 0 -106 20q-40 14 -79 40q-15 -13 -42 -29q-59 -32 -131 -32q-113 0 -176.5 55.5t-63.5 157.5q0 30 5 78q7 50 10 70q-61 -5 -99 -16q-62 -17 -91.5 -43.5t-29.5 -52.5q0 -17 13.5 -32.5t47.5 -39.5l32 -23
q98 -69 98 -157q0 -95 -86.5 -153.5t-233.5 -58.5q-153 0 -232 69.5t-79 204.5q0 91 43 226h136q-42 -112 -42 -189q0 -82 49 -118.5t160 -36.5q64 0 103 15.5t39 39.5t-61 68l-51 39q-78 58 -78 141q0 41 20.5 81t61.5 77.5t115 65.5t170 38l148 -81q-26 -111 -26 -168
q0 -48 27 -74t78 -26q69 0 91 42q21 41 21 171h137q0 -79 -9 -142q-4 -25 -11 -55l23 -8q34 -8 67 -8q45 0 64.5 20.5t19.5 67.5q0 63 -30 240zM235 -366l101 101l72 -69l70 69l102 -101l-100 -101l-72 70l-70 -70zM918 562l100 102l79 -79l79 79l101 -102l-100 -101l-80 78
l-78 -78zM1028 702l69 70l71 -70l-70 -70z" />
    <glyph glyph-name="uniFD05" unicode="&#xfd05;" horiz-adv-x="1539" arabic-form="isolated" 
d="M1279 541q99 0 162 -65.5t63 -165.5q0 -144 -110 -227t-303 -83h-156q-130 0 -198 54t-68 159q0 30 5 78q7 50 10 70q-61 -5 -99 -16q-62 -17 -91.5 -43.5t-29.5 -52.5q0 -17 13.5 -32.5t47.5 -39.5l32 -23q98 -69 98 -157q0 -95 -86.5 -153.5t-233.5 -58.5
q-153 0 -232 69.5t-79 204.5q0 91 43 226h136q-42 -112 -42 -189q0 -82 49 -118.5t160 -36.5q64 0 103 15.5t39 39.5t-61 68l-51 39q-78 58 -78 141q0 41 20.5 81t61.5 77.5t115 65.5t170 38l148 -81q-26 -105 -26 -160q0 -37 11 -61q71 80 114 125q107 115 185.5 163.5
t157.5 48.5zM930 157h5h148q122 0 196 37t74 97q0 42 -29 69t-77 27q-53 0 -107.5 -35.5t-145.5 -128.5z" />
    <glyph glyph-name="uniFD06" unicode="&#xfd06;" horiz-adv-x="1539" arabic-form="isolated" 
d="M1279 541q99 0 162 -65.5t63 -165.5q0 -144 -110 -227t-303 -83h-156q-130 0 -198 54t-68 159q0 30 5 78q7 50 10 70q-61 -5 -99 -16q-62 -17 -91.5 -43.5t-29.5 -52.5q0 -17 13.5 -32.5t47.5 -39.5l32 -23q98 -69 98 -157q0 -95 -86.5 -153.5t-233.5 -58.5
q-153 0 -232 69.5t-79 204.5q0 91 43 226h136q-42 -112 -42 -189q0 -82 49 -118.5t160 -36.5q64 0 103 15.5t39 39.5t-61 68l-51 39q-78 58 -78 141q0 41 20.5 81t61.5 77.5t115 65.5t170 38l148 -81q-26 -105 -26 -160q0 -37 11 -61q71 80 114 125q107 115 185.5 163.5
t157.5 48.5zM930 157h5h148q122 0 196 37t74 97q0 42 -29 69t-77 27q-53 0 -107.5 -35.5t-145.5 -128.5zM235 -366l101 101l72 -69l70 69l102 -101l-100 -101l-72 70l-70 -70z" />
    <glyph glyph-name="uniFD07" unicode="&#xfd07;" horiz-adv-x="1539" arabic-form="isolated" 
d="M1279 541q99 0 162 -65.5t63 -165.5q0 -144 -110 -227t-303 -83h-156q-130 0 -198 54t-68 159q0 30 5 78q7 50 10 70q-61 -5 -99 -16q-62 -17 -91.5 -43.5t-29.5 -52.5q0 -17 13.5 -32.5t47.5 -39.5l32 -23q98 -69 98 -157q0 -95 -86.5 -153.5t-233.5 -58.5
q-153 0 -232 69.5t-79 204.5q0 91 43 226h136q-42 -112 -42 -189q0 -82 49 -118.5t160 -36.5q64 0 103 15.5t39 39.5t-61 68l-51 39q-78 58 -78 141q0 41 20.5 81t61.5 77.5t115 65.5t170 38l148 -81q-26 -105 -26 -160q0 -37 11 -61q71 80 114 125q107 115 185.5 163.5
t157.5 48.5zM930 157h5h148q122 0 196 37t74 97q0 42 -29 69t-77 27q-53 0 -107.5 -35.5t-145.5 -128.5zM921 631l101 101l102 -101l-101 -101z" />
    <glyph glyph-name="uniFD08" unicode="&#xfd08;" horiz-adv-x="1539" arabic-form="isolated" 
d="M1279 541q99 0 162 -65.5t63 -165.5q0 -144 -110 -227t-303 -83h-156q-130 0 -198 54t-68 159q0 30 5 78q7 50 10 70q-61 -5 -99 -16q-62 -17 -91.5 -43.5t-29.5 -52.5q0 -17 13.5 -32.5t47.5 -39.5l32 -23q98 -69 98 -157q0 -95 -86.5 -153.5t-233.5 -58.5
q-153 0 -232 69.5t-79 204.5q0 91 43 226h136q-42 -112 -42 -189q0 -82 49 -118.5t160 -36.5q64 0 103 15.5t39 39.5t-61 68l-51 39q-78 58 -78 141q0 41 20.5 81t61.5 77.5t115 65.5t170 38l148 -81q-26 -105 -26 -160q0 -37 11 -61q71 80 114 125q107 115 185.5 163.5
t157.5 48.5zM930 157h5h148q122 0 196 37t74 97q0 42 -29 69t-77 27q-53 0 -107.5 -35.5t-145.5 -128.5zM235 -366l101 101l72 -69l70 69l102 -101l-100 -101l-72 70l-70 -70zM921 631l101 101l102 -101l-101 -101z" />
    <glyph glyph-name="uniFD0D" unicode="&#xfd0d;" horiz-adv-x="1237" arabic-form="isolated" 
d="M432 495h145q-41 -169 -41 -221q0 -61 26 -89t83 -28q65 0 87 42q21 41 21 171h137q0 -79 -9 -142q-4 -25 -11 -55l23 -8q34 -8 67 -8q45 0 64.5 20.5t19.5 67.5q0 63 -30 240h149q30 -193 30 -282q0 -92 -55 -147t-146 -55q-46 0 -106 20q-40 14 -78 40q-16 -14 -40 -29
q-58 -32 -129 -32q-121 0 -183.5 59t-62.5 173q0 43 4 76l-54 -13q-44 -11 -83 -27l4 -52q9 -95 9 -194q0 -237 -278 -237v127q57 0 95.5 29.5t38.5 88.5q0 80 -22 275l102 99q69 16 132 27q54 10 80 13zM643 559l100 102l79 -79l79 79l101 -102l-100 -101l-80 78l-78 -78z
M753 699l69 70l71 -70l-70 -70z" />
    <glyph glyph-name="uniFD0E" unicode="&#xfd0e;" horiz-adv-x="1237" arabic-form="isolated" 
d="M432 495h145q-41 -169 -41 -221q0 -61 26 -89t83 -28q65 0 87 42q21 41 21 171h137q0 -79 -9 -142q-4 -25 -11 -55l23 -8q34 -8 67 -8q45 0 64.5 20.5t19.5 67.5q0 63 -30 240h149q30 -193 30 -282q0 -92 -55 -147t-146 -55q-46 0 -106 20q-40 14 -78 40q-16 -14 -40 -29
q-58 -32 -129 -32q-121 0 -183.5 59t-62.5 173q0 43 4 76l-54 -13q-44 -11 -83 -27l4 -52q9 -95 9 -194q0 -237 -278 -237v127q57 0 95.5 29.5t38.5 88.5q0 80 -22 275l102 99q69 16 132 27q54 10 80 13z" />
    <glyph glyph-name="uniFD0F" unicode="&#xfd0f;" horiz-adv-x="1283" arabic-form="isolated" 
d="M1023 541q99 0 162.5 -65.5t63.5 -165.5q0 -144 -110 -227t-303 -83h-128q-315 0 -315 232q0 43 4 76l-54 -13q-44 -11 -83 -27l4 -52q9 -95 9 -194q0 -237 -278 -237v127q57 0 95.5 29.5t38.5 88.5q0 80 -22 275l102 99q69 16 132 27q54 10 80 13l11 51h145
q-41 -169 -41 -221q0 -48 25 -76q77 85 120 131q109 116 186.5 164t155.5 48zM710 157h117q122 0 196.5 37t74.5 97q0 42 -29.5 69t-77.5 27q-53 0 -107 -35.5t-145 -128.5l-63 -65q11 -1 34 -1z" />
    <glyph glyph-name="uniFD10" unicode="&#xfd10;" horiz-adv-x="1283" arabic-form="isolated" 
d="M1023 541q99 0 162.5 -65.5t63.5 -165.5q0 -144 -110 -227t-303 -83h-128q-315 0 -315 232q0 43 4 76l-54 -13q-44 -11 -83 -27l4 -52q9 -95 9 -194q0 -237 -278 -237v127q57 0 95.5 29.5t38.5 88.5q0 80 -22 275l102 99q69 16 132 27q54 10 80 13l11 51h145
q-41 -169 -41 -221q0 -48 25 -76q77 85 120 131q109 116 186.5 164t155.5 48zM710 157h117q122 0 196.5 37t74.5 97q0 42 -29.5 69t-77.5 27q-53 0 -107 -35.5t-145 -128.5l-63 -65q11 -1 34 -1zM639 624l101 101l102 -101l-101 -101z" />
    <glyph glyph-name="uniFD17" unicode="&#xfd17;" horiz-adv-x="1548" arabic-form="final" 
d="M1320 440h138v-70q0 -82 -10 -142q-2 -18 -8 -44q20 -11 40 -17q31 -10 68 -10q10 0 10 -10v-136q0 -11 -10 -11q-89 0 -160 71q-16 -23 -39 -39q-44 -32 -109 -32q-62 0 -145 54q-5 3 -15 11q-21 -21 -44 -33q-56 -32 -122 -32q-115 0 -180 58t-65 155q0 30 5 78
q7 50 10 70q-61 -5 -99 -16q-62 -17 -91.5 -43.5t-29.5 -52.5q0 -17 13.5 -32.5t47.5 -39.5l32 -23q98 -69 98 -157q0 -95 -86.5 -153.5t-233.5 -58.5q-153 0 -232 69.5t-79 204.5q0 91 43 226h136q-42 -112 -42 -189q0 -82 49 -118.5t160 -36.5q64 0 103 15.5t39 39.5
t-61 68l-51 39q-78 58 -78 141q0 41 20.5 81t61.5 77.5t115 65.5t170 38l148 -81q-26 -108 -26 -168q0 -100 107 -100q60 0 82 42q21 41 21 171h137q0 -79 -9 -142q-5 -31 -12 -56q37 -15 80 -15q61 0 83 42q20 39 20 171v70z" />
    <glyph glyph-name="uniFD18" unicode="&#xfd18;" horiz-adv-x="1548" arabic-form="final" 
d="M1320 440h138v-70q0 -82 -10 -142q-2 -18 -8 -44q20 -11 40 -17q31 -10 68 -10q10 0 10 -10v-136q0 -11 -10 -11q-89 0 -160 71q-16 -23 -39 -39q-44 -32 -109 -32q-62 0 -145 54q-5 3 -15 11q-21 -21 -44 -33q-56 -32 -122 -32q-115 0 -180 58t-65 155q0 30 5 78
q7 50 10 70q-61 -5 -99 -16q-62 -17 -91.5 -43.5t-29.5 -52.5q0 -17 13.5 -32.5t47.5 -39.5l32 -23q98 -69 98 -157q0 -95 -86.5 -153.5t-233.5 -58.5q-153 0 -232 69.5t-79 204.5q0 91 43 226h136q-42 -112 -42 -189q0 -82 49 -118.5t160 -36.5q64 0 103 15.5t39 39.5
t-61 68l-51 39q-78 58 -78 141q0 41 20.5 81t61.5 77.5t115 65.5t170 38l148 -81q-26 -108 -26 -168q0 -100 107 -100q60 0 82 42q21 41 21 171h137q0 -79 -9 -142q-5 -31 -12 -56q37 -15 80 -15q61 0 83 42q20 39 20 171v70zM235 -367l101 101l71 -69l71 69l102 -101
l-100 -101l-72 70l-70 -70z" />
    <glyph glyph-name="uniFD19" unicode="&#xfd19;" horiz-adv-x="1548" arabic-form="final" 
d="M1320 440h138v-70q0 -82 -10 -142q-2 -18 -8 -44q20 -11 40 -17q31 -10 68 -10q10 0 10 -10v-136q0 -11 -10 -11q-89 0 -160 71q-16 -23 -39 -39q-44 -32 -109 -32q-62 0 -145 54q-5 3 -15 11q-21 -21 -44 -33q-56 -32 -122 -32q-115 0 -180 58t-65 155q0 30 5 78
q7 50 10 70q-61 -5 -99 -16q-62 -17 -91.5 -43.5t-29.5 -52.5q0 -17 13.5 -32.5t47.5 -39.5l32 -23q98 -69 98 -157q0 -95 -86.5 -153.5t-233.5 -58.5q-153 0 -232 69.5t-79 204.5q0 91 43 226h136q-42 -112 -42 -189q0 -82 49 -118.5t160 -36.5q64 0 103 15.5t39 39.5
t-61 68l-51 39q-78 58 -78 141q0 41 20.5 81t61.5 77.5t115 65.5t170 38l148 -81q-26 -108 -26 -168q0 -100 107 -100q60 0 82 42q21 41 21 171h137q0 -79 -9 -142q-5 -31 -12 -56q37 -15 80 -15q61 0 83 42q20 39 20 171v70zM913 561l100 102l79 -79l79 79l101 -102
l-100 -101l-80 78l-78 -78zM1023 701l69 70l71 -70l-70 -70z" />
    <glyph glyph-name="uniFD1A" unicode="&#xfd1a;" horiz-adv-x="1548" arabic-form="final" 
d="M1320 440h138v-70q0 -82 -10 -142q-2 -18 -8 -44q20 -11 40 -17q31 -10 68 -10q10 0 10 -10v-136q0 -11 -10 -11q-89 0 -160 71q-16 -23 -39 -39q-44 -32 -109 -32q-62 0 -145 54q-5 3 -15 11q-21 -21 -44 -33q-56 -32 -122 -32q-115 0 -180 58t-65 155q0 30 5 78
q7 50 10 70q-61 -5 -99 -16q-62 -17 -91.5 -43.5t-29.5 -52.5q0 -17 13.5 -32.5t47.5 -39.5l32 -23q98 -69 98 -157q0 -95 -86.5 -153.5t-233.5 -58.5q-153 0 -232 69.5t-79 204.5q0 91 43 226h136q-42 -112 -42 -189q0 -82 49 -118.5t160 -36.5q64 0 103 15.5t39 39.5
t-61 68l-51 39q-78 58 -78 141q0 41 20.5 81t61.5 77.5t115 65.5t170 38l148 -81q-26 -108 -26 -168q0 -100 107 -100q60 0 82 42q21 41 21 171h137q0 -79 -9 -142q-5 -31 -12 -56q37 -15 80 -15q61 0 83 42q20 39 20 171v70zM905 561l100 102l79 -79l79 79l101 -102
l-100 -101l-80 78l-78 -78zM235 -367l101 101l71 -69l71 69l102 -101l-100 -101l-72 70l-70 -70zM1015 701l69 70l71 -70l-70 -70z" />
    <glyph glyph-name="uniFD21" unicode="&#xfd21;" horiz-adv-x="1593" arabic-form="final" 
d="M1279 541q99 0 162 -65.5t63 -165.5q0 -144 -110 -227t-303 -83h-156q-130 0 -198 54t-68 159q0 30 5 78q7 50 10 70q-61 -5 -99 -16q-62 -17 -91.5 -43.5t-29.5 -52.5q0 -17 13.5 -32.5t47.5 -39.5l32 -23q98 -69 98 -157q0 -95 -86.5 -153.5t-233.5 -58.5
q-153 0 -232 69.5t-79 204.5q0 91 43 226h136q-42 -112 -42 -189q0 -82 49 -118.5t160 -36.5q64 0 103 15.5t39 39.5t-61 68l-51 39q-78 58 -78 141q0 41 20.5 81t61.5 77.5t115 65.5t170 38l148 -81q-26 -105 -26 -160q0 -37 11 -61q71 80 114 125q107 115 185.5 163.5
t157.5 48.5zM930 157h5h148q122 0 196 37t74 97q0 42 -29 69t-77 27q-53 0 -107.5 -35.5t-145.5 -128.5zM1395 116l65 85q59 -44 133 -44q10 0 10 -10v-136q0 -11 -10 -11q-114 0 -198 116z" />
    <glyph glyph-name="uniFD22" unicode="&#xfd22;" horiz-adv-x="1593" arabic-form="final" 
d="M1279 541q99 0 162 -65.5t63 -165.5q0 -144 -110 -227t-303 -83h-156q-130 0 -198 54t-68 159q0 30 5 78q7 50 10 70q-61 -5 -99 -16q-62 -17 -91.5 -43.5t-29.5 -52.5q0 -17 13.5 -32.5t47.5 -39.5l32 -23q98 -69 98 -157q0 -95 -86.5 -153.5t-233.5 -58.5
q-153 0 -232 69.5t-79 204.5q0 91 43 226h136q-42 -112 -42 -189q0 -82 49 -118.5t160 -36.5q64 0 103 15.5t39 39.5t-61 68l-51 39q-78 58 -78 141q0 41 20.5 81t61.5 77.5t115 65.5t170 38l148 -81q-26 -105 -26 -160q0 -37 11 -61q71 80 114 125q107 115 185.5 163.5
t157.5 48.5zM930 157h5h148q122 0 196 37t74 97q0 42 -29 69t-77 27q-53 0 -107.5 -35.5t-145.5 -128.5zM1395 116l65 85q59 -44 133 -44q10 0 10 -10v-136q0 -11 -10 -11q-114 0 -198 116zM235 -366l101 101l72 -69l70 69l102 -101l-100 -101l-72 70l-70 -70z" />
    <glyph glyph-name="uniFD23" unicode="&#xfd23;" horiz-adv-x="1593" arabic-form="final" 
d="M1279 541q99 0 162 -65.5t63 -165.5q0 -144 -110 -227t-303 -83h-156q-130 0 -198 54t-68 159q0 30 5 78q7 50 10 70q-61 -5 -99 -16q-62 -17 -91.5 -43.5t-29.5 -52.5q0 -17 13.5 -32.5t47.5 -39.5l32 -23q98 -69 98 -157q0 -95 -86.5 -153.5t-233.5 -58.5
q-153 0 -232 69.5t-79 204.5q0 91 43 226h136q-42 -112 -42 -189q0 -82 49 -118.5t160 -36.5q64 0 103 15.5t39 39.5t-61 68l-51 39q-78 58 -78 141q0 41 20.5 81t61.5 77.5t115 65.5t170 38l148 -81q-26 -105 -26 -160q0 -37 11 -61q71 80 114 125q107 115 185.5 163.5
t157.5 48.5zM930 157h5h148q122 0 196 37t74 97q0 42 -29 69t-77 27q-53 0 -107.5 -35.5t-145.5 -128.5zM1395 116l65 85q59 -44 133 -44q10 0 10 -10v-136q0 -11 -10 -11q-114 0 -198 116zM921 631l101 101l102 -101l-101 -101z" />
    <glyph glyph-name="uniFD24" unicode="&#xfd24;" horiz-adv-x="1593" arabic-form="final" 
d="M1279 541q99 0 162 -65.5t63 -165.5q0 -144 -110 -227t-303 -83h-156q-130 0 -198 54t-68 159q0 30 5 78q7 50 10 70q-61 -5 -99 -16q-62 -17 -91.5 -43.5t-29.5 -52.5q0 -17 13.5 -32.5t47.5 -39.5l32 -23q98 -69 98 -157q0 -95 -86.5 -153.5t-233.5 -58.5
q-153 0 -232 69.5t-79 204.5q0 91 43 226h136q-42 -112 -42 -189q0 -82 49 -118.5t160 -36.5q64 0 103 15.5t39 39.5t-61 68l-51 39q-78 58 -78 141q0 41 20.5 81t61.5 77.5t115 65.5t170 38l148 -81q-26 -105 -26 -160q0 -37 11 -61q71 80 114 125q107 115 185.5 163.5
t157.5 48.5zM930 157h5h148q122 0 196 37t74 97q0 42 -29 69t-77 27q-53 0 -107.5 -35.5t-145.5 -128.5zM1395 116l65 85q59 -44 133 -44q10 0 10 -10v-136q0 -11 -10 -11q-114 0 -198 116zM235 -366l101 101l72 -69l70 69l102 -101l-100 -101l-72 70l-70 -70zM921 631
l101 101l102 -101l-101 -101z" />
    <glyph glyph-name="uniFD29" unicode="&#xfd29;" horiz-adv-x="1272" arabic-form="final" 
d="M432 495h145q-40 -165 -40 -221q0 -61 26 -89t80 -28q61 0 83 42q20 39 20 171h138q0 -82 -10 -142q-6 -38 -11 -56q38 -15 79 -15q60 0 83 42q20 39 20 171v70h138v-70q0 -82 -10 -142q-2 -15 -8 -45q17 -9 39 -16q31 -10 68 -10q10 0 10 -10v-136q0 -11 -10 -11
q-90 0 -160 70q-14 -19 -38 -38q-44 -32 -109 -32q-62 0 -145 54q-5 3 -15 11q-20 -20 -43 -33q-56 -32 -122 -32q-117 0 -181.5 60.5t-65.5 171.5q0 43 4 76l-54 -13q-44 -11 -83 -27l4 -52q9 -95 9 -194q0 -237 -278 -237v127q57 0 95.5 29.5t38.5 88.5q0 80 -22 275
l102 99q69 16 132 27q54 10 80 13zM633 558l100 102l79 -79l79 79l101 -102l-100 -101l-80 78l-78 -78zM743 698l69 70l71 -70l-70 -70z" />
    <glyph glyph-name="uniFD2A" unicode="&#xfd2a;" horiz-adv-x="1272" arabic-form="final" 
d="M432 495h145q-40 -165 -40 -221q0 -61 26 -89t80 -28q61 0 83 42q20 39 20 171h138q0 -82 -10 -142q-6 -38 -11 -56q38 -15 79 -15q60 0 83 42q20 39 20 171v70h138v-70q0 -82 -10 -142q-2 -15 -8 -45q17 -9 39 -16q31 -10 68 -10q10 0 10 -10v-136q0 -11 -10 -11
q-90 0 -160 70q-14 -19 -38 -38q-44 -32 -109 -32q-62 0 -145 54q-5 3 -15 11q-20 -20 -43 -33q-56 -32 -122 -32q-117 0 -181.5 60.5t-65.5 171.5q0 43 4 76l-54 -13q-44 -11 -83 -27l4 -52q9 -95 9 -194q0 -237 -278 -237v127q57 0 95.5 29.5t38.5 88.5q0 80 -22 275
l102 99q69 16 132 27q54 10 80 13z" />
    <glyph glyph-name="uniFD2B" unicode="&#xfd2b;" horiz-adv-x="1312" arabic-form="final" 
d="M1023 541q99 0 162.5 -65.5t63.5 -165.5q0 -144 -110 -227t-303 -83h-128q-315 0 -315 232q0 43 4 76l-54 -13q-44 -11 -83 -27l4 -52q9 -95 9 -194q0 -237 -278 -237v127q57 0 95.5 29.5t38.5 88.5q0 80 -22 275l102 99q69 16 132 27q54 10 80 13l11 51h145
q-41 -169 -41 -221q0 -48 25 -76q77 85 120 131q109 116 186.5 164t155.5 48zM710 157h117q122 0 196.5 37t74.5 97q0 42 -29.5 69t-77.5 27q-53 0 -107 -35.5t-145 -128.5l-63 -65q11 -1 34 -1zM1114 116l65 85q59 -44 133 -44q10 0 10 -10v-136q0 -11 -10 -11
q-114 0 -198 116z" />
    <glyph glyph-name="uniFD2C" unicode="&#xfd2c;" horiz-adv-x="1312" arabic-form="final" 
d="M1023 541q99 0 162.5 -65.5t63.5 -165.5q0 -144 -110 -227t-303 -83h-128q-315 0 -315 232q0 43 4 76l-54 -13q-44 -11 -83 -27l4 -52q9 -95 9 -194q0 -237 -278 -237v127q57 0 95.5 29.5t38.5 88.5q0 80 -22 275l102 99q69 16 132 27q54 10 80 13l11 51h145
q-41 -169 -41 -221q0 -48 25 -76q77 85 120 131q109 116 186.5 164t155.5 48zM710 157h117q122 0 196.5 37t74.5 97q0 42 -29.5 69t-77.5 27q-53 0 -107 -35.5t-145 -128.5l-63 -65q11 -1 34 -1zM1114 116l65 85q59 -44 133 -44q10 0 10 -10v-136q0 -11 -10 -11
q-114 0 -198 116zM639 624l101 101l102 -101l-101 -101z" />
    <glyph glyph-name="uniFE82" unicode="&#x622;" horiz-adv-x="309" arabic-form="final" 
d="M74 600h149l1 -353q0 -48 19 -69t66 -21q10 0 10 -10v-136q0 -11 -10 -11q-116 0 -175 53t-59 152zM84 770q22 0 65 -18.5t65 -18.5q45 0 80 26l-1 -93q-33 -25 -77 -25q-24 0 -62.5 18.5t-57.5 18.5q-45 0 -51 -39h-71q0 62 29.5 96.5t80.5 34.5z" />
    <glyph glyph-name="uniFE84" unicode="&#x623;" horiz-adv-x="309" arabic-form="final" 
d="M74 600h149l1 -353q0 -48 19 -69t66 -21q10 0 10 -10v-136q0 -11 -10 -11q-116 0 -175 53t-59 152zM181 736h93l-20 -81h-167q-37 0 -75 -12v79q28 10 40 11q10 2 17 2q-22 21 -22 53q0 39 28.5 65.5t70.5 26.5q52 0 90 -20v-77q-40 15 -65 15q-18 0 -29.5 -8.5
t-11.5 -22.5q0 -15 14.5 -23t36.5 -8z" />
    <glyph glyph-name="uniFE86" unicode="&#x624;" horiz-adv-x="558" arabic-form="final" 
d="M273 502q100 0 160 -64.5t67 -180.5l3 -85v-15h54q10 0 10 -10v-136q0 -11 -10 -11h-54q-5 -30 -15 -57q-64 -158 -367 -158v127q116 0 178 31q42 20 55 57h-64q-118 0 -187 65.5t-69 180.5q0 109 68.5 182.5t170.5 73.5zM354 246q-8 104 -91 104q-39 0 -65 -27.5
t-26 -71.5q0 -100 133 -100q25 0 35 1l19 1v2q-1 31 -5 91zM300 671h102l-31 -101h-128q-52 0 -106 -17v98q37 13 55 16l-1 1q-20 20 -20 54q0 46 32 75.5t83 29.5q32 0 76 -21v-90q-39 14 -69 14q-42 0 -42 -30q0 -17 15 -23q14 -5 34 -6z" />
    <glyph glyph-name="uniFE88" unicode="&#x625;" horiz-adv-x="309" arabic-form="final" 
d="M74 725h149l1 -478q0 -48 19 -69t65 -21q10 0 10 -10l1 -136q0 -11 -10 -11q-116 0 -175 53t-59 152zM185 -182h93l-20 -82h-167q-37 0 -75 -12v80q26 9 40 12l17 2q-22 19 -22 51q0 39 28.5 65.5t70.5 26.5q52 0 90 -20v-77q-39 16 -65 16q-17 0 -29 -9t-12 -23
q0 -30 51 -30z" />
    <glyph glyph-name="uniFE8A" unicode="&#x626;" horiz-adv-x="683" arabic-form="final" 
d="M466 50v149q132 -41 216 -41q10 0 10 -10v-137q0 -11 -10 -11h-5q-49 -102 -129 -155q-92 -60 -231 -60q-136 0 -214.5 72t-78.5 202q0 91 43 226h136q-42 -112 -42 -189q0 -154 177 -154q88 0 151 31q39 17 67 47q-40 10 -90 30zM526 385h102l-31 -101h-128
q-52 0 -106 -17v98q37 13 55 16l-1 1q-20 20 -20 54q0 46 32 75.5t83 29.5q32 0 76 -21v-90q-39 14 -69 14q-42 0 -42 -30q0 -17 15 -23q14 -5 34 -6z" />
    <glyph glyph-name="uniFE8B" unicode="&#x626;" horiz-adv-x="360" arabic-form="initial" 
d="M139 485h150q29 -188 29 -280q0 -99 -59 -152t-175 -53h-84q-10 0 -10 11l1 136q0 10 10 10h84q46 0 65 21t19 69q0 51 -30 238zM247 640h102l-31 -101h-128q-52 0 -106 -17v98q38 12 55 16l-1 1q-20 20 -20 54q0 46 32 75.5t83 29.5q33 0 76 -21v-90q-39 14 -69 14
q-42 0 -42 -30q0 -17 15 -23q14 -5 34 -6z" />
    <glyph glyph-name="uniFE8C" unicode="&#x626;" horiz-adv-x="381" arabic-form="medial" 
d="M131 370h137q0 -72 -8 -141q-2 -18 -6 -34q23 -15 55 -26q37 -12 72 -12q10 0 10 -10v-136q0 -11 -10 -11q-58 0 -111 31q-33 19 -64 51q-24 -31 -61 -52q-54 -30 -145 -30q-10 0 -10 11v136q0 10 10 10q76 0 104 40q27 37 27 173zM240 542h102l-31 -101h-128
q-52 0 -106 -17v98q38 12 55 16l-1 1q-20 20 -20 54q0 46 32 75.5t83 29.5q32 0 76 -21v-90q-39 14 -69 14q-42 0 -42 -30q0 -17 15 -23q14 -5 34 -6z" />
    <glyph glyph-name="uniFE8E" unicode="&#x627;" horiz-adv-x="309" arabic-form="final" 
d="M74 725h149l1 -478q0 -48 19 -69t65 -21q10 0 10 -10l1 -136q0 -11 -10 -11q-116 0 -175 53t-59 152z" />
    <glyph glyph-name="uniFE90" unicode="&#x628;" horiz-adv-x="848" arabic-form="final" 
d="M623 370h137q0 -79 -9 -142l-9 -45q24 -13 38 -16q31 -10 68 -10q10 0 10 -10v-136q0 -11 -10 -11q-88 0 -159 69q-17 -21 -43 -38q-39 -25 -99 -30q-1 -1 -5 -1h-259q-259 0 -259 244q0 76 24 196h136q-18 -90 -18 -154q0 -68 34 -98.5t119 -30.5h198h3h9q52 3 73 42
q21 41 21 171zM324 -150l101 101l102 -101l-101 -101z" />
    <glyph glyph-name="uniFE91" unicode="&#x628;" horiz-adv-x="279" arabic-form="initial" 
d="M56 485h149q29 -188 29 -280q0 -99 -59 -152t-175 -53q-10 0 -10 11l1 136q0 10 10 10q47 0 66 21t19 69q0 51 -30 238zM14 -155l101 101l102 -101l-101 -101z" />
    <glyph glyph-name="uniFE92" unicode="&#x628;" horiz-adv-x="328" arabic-form="medial" 
d="M103 370h137q0 -79 -9 -142l-9 -45q24 -13 38 -16q31 -10 68 -10q10 0 10 -10v-136q0 -11 -10 -11q-88 0 -159 69q-17 -21 -43 -38q-47 -31 -126 -31q-10 0 -10 11v136q0 10 10 10q60 0 82 42q21 41 21 171zM61 -155l101 101l102 -101l-101 -101z" />
    <glyph glyph-name="uniFE94" unicode="&#x629;" horiz-adv-x="539" arabic-form="final" 
d="M333 538h149v-321q0 -60 58 -60q10 0 10 -10v-136q0 -11 -10 -11q-101 0 -150 46q-40 -21 -62 -29q-42 -17 -86 -17q-103 0 -160.5 54.5t-57.5 151.5q0 77 51.5 144.5t150.5 106.5q46 19 107 30v51zM226 322q-60 -40 -60 -99q0 -33 20.5 -52.5t58.5 -19.5q45 0 90 16
q-2 26 -2 41v156q-65 -14 -107 -42zM205 704l100 101l77 -75l76 75l102 -101l-100 -100l-77 74l-76 -74z" />
    <glyph glyph-name="uniFE96" unicode="&#x62a;" horiz-adv-x="848" arabic-form="final" 
d="M623 370h137q0 -79 -9 -142l-9 -45q24 -13 38 -16q31 -10 68 -10q10 0 10 -10v-136q0 -11 -10 -11q-88 0 -159 69q-17 -21 -43 -38q-39 -25 -99 -30q-1 -1 -5 -1h-22h-3h-234q-259 0 -259 244q0 76 24 196h136q-18 -90 -18 -154q0 -68 34 -98.5t119 -30.5h198h3h9
q52 3 73 42q21 41 21 171zM269 546l100 101l77 -75l76 75l102 -101l-100 -100l-77 74l-76 -74z" />
    <glyph glyph-name="uniFE97" unicode="&#x62a;" horiz-adv-x="397" arabic-form="initial" 
d="M139 485h150q29 -188 29 -280q0 -99 -59 -152t-175 -53h-84q-10 0 -10 11l1 136q0 10 10 10h84q46 0 65 21t19 69q0 51 -30 238zM24 652l100 101l77 -75l76 75l102 -101l-100 -100l-77 74l-76 -74z" />
    <glyph glyph-name="uniFE98" unicode="&#x62a;" horiz-adv-x="381" arabic-form="medial" 
d="M131 370h137q0 -72 -8 -141q-2 -18 -6 -34q23 -15 55 -26q37 -12 72 -12q10 0 10 -10v-136q0 -11 -10 -11q-58 0 -111 31q-33 19 -64 51q-24 -31 -61 -52q-54 -30 -145 -30q-10 0 -10 11v136q0 10 10 10q76 0 104 40q27 37 27 173zM21 546l100 101l77 -75l76 75l102 -101
l-100 -100l-77 74l-76 -74z" />
    <glyph glyph-name="uniFE9A" unicode="&#x62b;" horiz-adv-x="848" arabic-form="final" 
d="M623 370h137q0 -79 -9 -142l-9 -45q24 -13 38 -16q31 -10 68 -10q10 0 10 -10v-136q0 -11 -10 -11q-88 0 -159 69q-17 -21 -43 -38q-39 -25 -99 -30q-1 -1 -5 -1h-259q-259 0 -259 244q0 76 24 196h136q-18 -90 -18 -154q0 -68 34 -98.5t119 -30.5h210q52 3 73 42
q21 41 21 171zM257 541l100 102l79 -79l79 79l101 -102l-100 -101l-80 78l-78 -78zM367 681l69 70l71 -70l-70 -70z" />
    <glyph glyph-name="uniFE9B" unicode="&#x62b;" horiz-adv-x="399" arabic-form="initial" 
d="M139 485h150q29 -188 29 -280q0 -99 -59 -152t-175 -53h-84q-10 0 -10 11l1 136q0 10 10 10h84q46 0 65 21t19 69q0 51 -30 238zM22 649l100 102l79 -79l79 79l101 -102l-100 -101l-80 78l-78 -78zM132 789l69 70l71 -70l-70 -70z" />
    <glyph glyph-name="uniFE9C" unicode="&#x62b;" horiz-adv-x="381" arabic-form="medial" 
d="M131 370h137q0 -72 -8 -141q-2 -18 -6 -34q23 -15 55 -26q37 -12 72 -12q10 0 10 -10v-136q0 -11 -10 -11q-58 0 -111 31q-33 19 -64 51q-24 -31 -61 -52q-54 -30 -145 -30q-10 0 -10 11v136q0 10 10 10q76 0 104 40q27 37 27 173zM13 546l100 102l79 -79l79 79l101 -102
l-100 -101l-80 78l-78 -78zM123 686l69 70l71 -70l-70 -70z" />
    <glyph glyph-name="uniFE9E" unicode="&#x62c;" horiz-adv-x="651" arabic-form="final" 
d="M194 539q49 0 100.5 -24.5t91 -55.5t99 -64t119.5 -46l-43 -155q-24 0 -37 -1q1 -1 1 -3q3 -23 26 -28t100 -5q10 0 10 -10v-136q0 -11 -10 -11q-95 0 -145.5 45t-50.5 133v6q-19 -3 -62 -13q-96 -25 -160 -71.5t-64 -107.5q0 -113 156 -113q99 0 226 38v-145
q-142 -47 -236 -47q-140 0 -215.5 62t-75.5 176q0 108 72 183t197 115q49 16 104 27q-18 8 -26 13q-11 6 -50 30t-53 30.5t-41.5 15.5t-52.5 9q-47 0 -110 -25v136q64 42 130 42zM257 18l101 101l102 -101l-101 -101z" />
    <glyph glyph-name="uniFE9F" unicode="&#x62c;" horiz-adv-x="599" arabic-form="initial" 
d="M190 502q48 0 96.5 -21.5t85.5 -49t95 -59t118 -45.5l-43 -155q-61 -10 -112.5 -31.5t-89 -44.5t-80 -45.5t-108 -36.5t-151.5 -14q-11 0 -11 11v136q0 10 11 10q61 0 108.5 4t91 15.5t62 17t65 25t55.5 23.5l23 9q-19 8 -49 23q-10 6 -39 22.5t-40 22t-32.5 15
t-39.5 12.5t-38 3q-47 0 -110 -24v135q66 42 132 42zM141 -155l101 101l102 -101l-101 -101z" />
    <glyph glyph-name="uniFEA0" unicode="&#x62c;" horiz-adv-x="631" arabic-form="medial" 
d="M190 502q48 0 96.5 -21.5t85.5 -49t95 -59t118 -45.5l-42 -152q12 -7 29 -12q22 -6 59 -6q10 0 10 -10v-136q0 -11 -10 -11q-87 0 -137 47q-40 38 -47 101q-1 -1 -3 -1q-40 -15 -91 -44t-87 -49.5t-106 -37t-159 -16.5q-11 0 -11 11v136q0 10 11 10q61 0 108.5 4t91 15.5
t62 17t65 25t55.5 23.5l23 9q-19 8 -49 23q-10 6 -39 22.5t-40 22t-32.5 15t-39.5 12.5t-38 3q-47 0 -110 -24v135q66 42 132 42zM147 -155l101 101l102 -101l-101 -101z" />
    <glyph glyph-name="uniFEA2" unicode="&#x62d;" horiz-adv-x="651" arabic-form="final" 
d="M194 539q49 0 100.5 -24.5t91 -55.5t99 -64t119.5 -46l-43 -155q-24 0 -37 -1q1 -1 1 -3q3 -23 26 -28t100 -5q10 0 10 -10v-136q0 -11 -10 -11q-95 0 -145.5 45t-50.5 133v6q-19 -3 -62 -13q-96 -25 -160 -71.5t-64 -107.5q0 -113 156 -113q99 0 226 38v-145
q-142 -47 -236 -47q-140 0 -215.5 62t-75.5 176q0 108 72 183t197 115q49 16 104 27q-18 8 -26 13q-11 6 -50 30t-53 30.5t-41.5 15.5t-52.5 9q-47 0 -110 -25v136q64 42 130 42z" />
    <glyph glyph-name="uniFEA3" unicode="&#x62d;" horiz-adv-x="599" arabic-form="initial" 
d="M190 502q48 0 96.5 -21.5t85.5 -49t95 -59t118 -45.5l-43 -155q-61 -10 -112.5 -31.5t-89 -44.5t-80 -45.5t-108 -36.5t-151.5 -14q-11 0 -11 11v136q0 10 11 10q61 0 108.5 4t91 15.5t62 17t65 25t55.5 23.5l23 9q-19 8 -49 23q-10 6 -39 22.5t-40 22t-32.5 15
t-39.5 12.5t-38 3q-47 0 -110 -24v135q66 42 132 42z" />
    <glyph glyph-name="uniFEA4" unicode="&#x62d;" horiz-adv-x="631" arabic-form="medial" 
d="M190 502q48 0 96.5 -21.5t85.5 -49t95 -59t118 -45.5l-42 -152q12 -7 29 -12q22 -6 59 -6q10 0 10 -10v-136q0 -11 -10 -11q-87 0 -137 47q-40 38 -47 101q-1 -1 -3 -1q-40 -15 -91 -44t-87 -49.5t-106 -37t-159 -16.5q-11 0 -11 11v136q0 10 11 10q61 0 108.5 4t91 15.5
t62 17t65 25t55.5 23.5l23 9q-19 8 -49 23q-10 6 -39 22.5t-40 22t-32.5 15t-39.5 12.5t-38 3q-47 0 -110 -24v135q66 42 132 42z" />
    <glyph glyph-name="uniFEA6" unicode="&#x62e;" horiz-adv-x="651" arabic-form="final" 
d="M194 539q49 0 100.5 -24.5t91 -55.5t99 -64t119.5 -46l-43 -155q-24 0 -37 -1q1 -1 1 -3q3 -23 26 -28t100 -5q10 0 10 -10v-136q0 -11 -10 -11q-95 0 -145.5 45t-50.5 133v6q-19 -3 -62 -13q-96 -25 -160 -71.5t-64 -107.5q0 -113 156 -113q99 0 226 38v-145
q-142 -47 -236 -47q-140 0 -215.5 62t-75.5 176q0 108 72 183t197 115q49 16 104 27q-18 8 -26 13q-11 6 -50 30t-53 30.5t-41.5 15.5t-52.5 9q-47 0 -110 -25v136q64 42 130 42zM324 643l101 101l102 -101l-101 -101z" />
    <glyph glyph-name="uniFEA7" unicode="&#x62e;" horiz-adv-x="599" arabic-form="initial" 
d="M190 502q48 0 96.5 -21.5t85.5 -49t95 -59t118 -45.5l-43 -155q-61 -10 -112.5 -31.5t-89 -44.5t-80 -45.5t-108 -36.5t-151.5 -14q-11 0 -11 11v136q0 10 11 10q61 0 108.5 4t91 15.5t62 17t65 25t55.5 23.5l23 9q-19 8 -49 23q-10 6 -39 22.5t-40 22t-32.5 15
t-39.5 12.5t-38 3q-47 0 -110 -24v135q66 42 132 42zM161 667l101 101l102 -101l-101 -101z" />
    <glyph glyph-name="uniFEA8" unicode="&#x62e;" horiz-adv-x="631" arabic-form="medial" 
d="M190 502q48 0 96.5 -21.5t85.5 -49t95 -59t118 -45.5l-42 -152q12 -7 29 -12q22 -6 59 -6q10 0 10 -10v-136q0 -11 -10 -11q-87 0 -137 47q-40 38 -47 101q-1 -1 -3 -1q-40 -15 -91 -44t-87 -49.5t-106 -37t-159 -16.5q-11 0 -11 11v136q0 10 11 10q61 0 108.5 4t91 15.5
t62 17t65 25t55.5 23.5l23 9q-19 8 -49 23q-10 6 -39 22.5t-40 22t-32.5 15t-39.5 12.5t-38 3q-47 0 -110 -24v135q66 42 132 42zM161 667l101 101l102 -101l-101 -101z" />
    <glyph glyph-name="uniFEAA" unicode="&#x62f;" horiz-adv-x="502" arabic-form="final" 
d="M4 34v152q100 -29 181 -29q38 0 76 5l24 4l-2 8q-36 106 -74 311h151q26 -172 47 -239q26 -89 95 -89q10 0 10 -10v-136q0 -11 -10 -11q-78 0 -134 44q-10 8 -15 13q-41 -26 -76 -39q-49 -17 -105 -17q-72 0 -168 33z" />
    <glyph glyph-name="uniFEAC" unicode="&#x630;" horiz-adv-x="502" arabic-form="final" 
d="M4 34v152q100 -29 181 -29q38 0 76 5l24 4l-2 8q-36 106 -74 311h151q26 -172 47 -239q26 -89 95 -89q10 0 10 -10v-136q0 -11 -10 -11q-78 0 -134 44q-10 8 -15 13q-41 -26 -76 -39q-49 -17 -105 -17q-72 0 -168 33zM182 649l101 101l102 -101l-101 -101z" />
    <glyph glyph-name="uniFEAE" unicode="&#x631;" horiz-adv-x="366" arabic-form="final" 
d="M91 440h149q15 -110 23 -210q8 -94 10 -193q-26 31 -28 83l-3 163h14l8 -60q10 -66 102 -66q10 0 10 -10v-136q0 -11 -10 -11q-57 0 -89 32l-4 5v-15q0 -237 -278 -237v127q60 0 97 29.5t37 88.5q0 35 -1.5 70t-7 85.5t-7.5 73t-11 94.5t-11 87z" />
    <glyph glyph-name="uniFEB0" unicode="&#x632;" horiz-adv-x="366" arabic-form="final" 
d="M91 440h149q15 -110 23 -210q8 -94 10 -193q-26 31 -28 83l-3 163h14l8 -60q10 -66 102 -66q10 0 10 -10v-136q0 -11 -10 -11q-57 0 -89 32l-4 5v-15q0 -237 -278 -237v127q60 0 97 29.5t37 88.5q0 35 -1.5 70t-7 85.5t-7.5 73t-11 94.5t-11 87zM58 610l101 101l102 -101
l-101 -101z" />
    <glyph glyph-name="uniFEB2" unicode="&#x633;" horiz-adv-x="1336" arabic-form="final" 
d="M427 440h149q21 -144 26 -199q4 -31 6 -60q46 -24 99 -24q61 0 83 42q20 39 20 171h138q0 -82 -10 -142q-6 -38 -11 -56q37 -15 79 -15q60 0 83 42q20 39 20 171v70h138v-70q0 -82 -10 -142q-2 -15 -8 -45q17 -9 39 -16q31 -10 68 -10q10 0 10 -10v-136q0 -11 -10 -11
q-90 0 -160 70q-14 -19 -38 -38q-44 -32 -109 -32q-62 0 -145 54l-12 9q-18 -20 -33 -31q-44 -32 -109 -32q-46 0 -96 25q-4 2 -26 14q-13 -106 -75 -172q-76 -82 -230 -82q-134 0 -206.5 70.5t-72.5 203.5q0 91 43 226h136q-42 -112 -42 -189q0 -72 36 -113t108 -41
q160 0 160 168q0 99 -38 330z" />
    <glyph glyph-name="uniFEB3" unicode="&#x633;" horiz-adv-x="883" arabic-form="initial" 
d="M89 370h137q0 -114 -21 -193q45 -20 91 -20q60 0 83 42q20 39 20 171h138q0 -82 -10 -142q-6 -38 -11 -56q5 -2 23 -7q34 -8 67 -8q45 0 64.5 20.5t19.5 67.5q0 63 -30 240h149q30 -193 30 -282q0 -92 -55 -147t-146 -55q-46 0 -106 20q-41 15 -75 38q-12 -14 -29 -27
q-44 -32 -109 -32q-62 0 -145 54l-18 13q-18 -22 -38 -36q-46 -31 -118 -31q-10 0 -10 11v136q0 10 10 10q48 0 68 42q21 46 21 171z" />
    <glyph glyph-name="uniFEB4" unicode="&#x633;" horiz-adv-x="926" arabic-form="medial" 
d="M89 370h137q0 -114 -21 -193q45 -20 91 -20q60 0 83 42q20 39 20 171h138q0 -82 -10 -142q-6 -38 -11 -56q37 -15 79 -15q60 0 83 42q20 39 20 171v70h138v-70q0 -82 -10 -142q-2 -18 -8 -44q20 -11 40 -17q31 -10 68 -10q10 0 10 -10v-136q0 -11 -10 -11q-89 0 -160 71
q-16 -23 -39 -39q-44 -32 -109 -32q-62 0 -145 54l-12 9q-18 -20 -33 -31q-44 -32 -109 -32q-62 0 -145 54l-18 13q-18 -22 -38 -36q-46 -31 -118 -31q-10 0 -10 11v136q0 10 10 10q48 0 68 42q21 46 21 171z" />
    <glyph glyph-name="uniFEB6" unicode="&#x634;" horiz-adv-x="1336" arabic-form="final" 
d="M427 440h149q21 -144 26 -199q4 -31 6 -60q46 -24 99 -24q61 0 83 42q20 39 20 171h138q0 -82 -10 -142q-6 -38 -11 -56q37 -15 79 -15q60 0 83 42q20 39 20 171v70h138v-70q0 -82 -10 -142q-2 -15 -8 -45q17 -9 39 -16q31 -10 68 -10q10 0 10 -10v-136q0 -11 -10 -11
q-90 0 -160 70q-14 -19 -38 -38q-44 -32 -109 -32q-62 0 -145 54l-12 9q-18 -20 -33 -31q-44 -32 -109 -32q-46 0 -96 25q-4 2 -26 14q-13 -106 -75 -172q-76 -82 -230 -82q-134 0 -206.5 70.5t-72.5 203.5q0 91 43 226h136q-42 -112 -42 -189q0 -72 36 -113t108 -41
q160 0 160 168q0 99 -38 330zM696 563l100 102l79 -79l79 79l101 -102l-100 -101l-80 78l-78 -78zM806 703l69 70l71 -70l-70 -70z" />
    <glyph glyph-name="uniFEB7" unicode="&#x634;" horiz-adv-x="883" arabic-form="initial" 
d="M89 370h137q0 -114 -21 -193q45 -20 91 -20q60 0 83 42q20 39 20 171h138q0 -82 -10 -142q-6 -38 -11 -56q5 -2 23 -7q34 -8 67 -8q45 0 64.5 20.5t19.5 67.5q0 63 -30 240h149q30 -193 30 -282q0 -92 -55 -147t-146 -55q-46 0 -106 20q-41 15 -75 38q-12 -14 -29 -27
q-44 -32 -109 -32q-62 0 -145 54l-18 13q-18 -22 -38 -36q-46 -31 -118 -31q-10 0 -10 11v136q0 10 10 10q48 0 68 42q21 46 21 171zM292 562l100 102l79 -79l79 79l101 -102l-100 -101l-80 78l-78 -78zM402 702l69 70l71 -70l-70 -70z" />
    <glyph glyph-name="uniFEB8" unicode="&#x634;" horiz-adv-x="926" arabic-form="medial" 
d="M89 370h137q0 -114 -21 -193q45 -20 91 -20q60 0 83 42q20 39 20 171h138q0 -82 -10 -142q-6 -38 -11 -56q37 -15 79 -15q60 0 83 42q20 39 20 171v70h138v-70q0 -82 -10 -142q-2 -18 -8 -44q20 -11 40 -17q31 -10 68 -10q10 0 10 -10v-136q0 -11 -10 -11q-89 0 -160 71
q-16 -23 -39 -39q-44 -32 -109 -32q-62 0 -145 54l-12 9q-18 -20 -33 -31q-44 -32 -109 -32q-62 0 -145 54l-18 13q-18 -22 -38 -36q-46 -31 -118 -31q-10 0 -10 11v136q0 10 10 10q48 0 68 42q21 46 21 171zM285 561l100 102l79 -79l79 79l101 -102l-100 -101l-80 78
l-78 -78zM395 701l69 70l71 -70l-70 -70z" />
    <glyph glyph-name="uniFEBA" unicode="&#x635;" horiz-adv-x="1314" arabic-form="final" 
d="M427 440h149l15 -111q3 -15 7 -51q48 48 84 80q100 91 182.5 135t158.5 44q99 0 162 -65.5t63 -165.5q0 -71 -28 -127l-1 -2q9 -4 27 -10q31 -10 68 -10q10 0 10 -10v-136q0 -11 -10 -11q-98 0 -173 85l-3 -2q-111 -83 -303 -83q-96 0 -216 25l-13 2q-13 -97 -73 -160
q-76 -82 -230 -82q-134 0 -206.5 70.5t-72.5 203.5q0 91 43 226h136q-42 -112 -42 -189q0 -72 36 -113t108 -41q160 0 160 168q0 99 -38 330zM689 164q57 -7 138 -7q122 0 196.5 36.5t74.5 93.5q0 42 -29.5 69t-77.5 27q-53 0 -117.5 -34t-154.5 -109l-81 -69q36 -5 51 -7z
" />
    <glyph glyph-name="uniFEBB" unicode="&#x635;" horiz-adv-x="977" arabic-form="initial" 
d="M127 370h133q-11 -108 -25 -172l8 -3q66 74 127 137q109 112 188 158.5t159 46.5q99 0 162 -65.5t63 -165.5q0 -141 -109.5 -223.5t-302.5 -82.5q-174 0 -328 52q-11 3 -33 11q-13 -13 -29 -23q-58 -40 -140 -40q-10 0 -10 11v136q0 10 10 10q47 0 72 17.5t35 54.5
q9 37 20 141zM521 157q122 0 196.5 36.5t74.5 93.5q0 42 -29.5 69t-77.5 27q-54 0 -110.5 -34.5t-147.5 -123.5l-58 -58q66 -10 152 -10z" />
    <glyph glyph-name="uniFEBC" unicode="&#x635;" horiz-adv-x="1009" arabic-form="medial" 
d="M127 370h133q-11 -108 -25 -172l8 -3q66 74 127 137q109 112 188 158.5t159 46.5q99 0 162 -65.5t63 -165.5q0 -141 -109.5 -223.5t-302.5 -82.5q-174 0 -328 52q-11 3 -33 11q-13 -13 -29 -23q-58 -40 -140 -40q-10 0 -10 11v136q0 10 10 10q47 0 72 17.5t35 54.5
q9 37 20 141zM521 157q122 0 196.5 36.5t74.5 93.5q0 42 -29.5 69t-77.5 27q-54 0 -110.5 -34.5t-147.5 -123.5l-58 -58q66 -10 152 -10zM811 116l65 85q59 -44 133 -44q10 0 10 -10v-136q0 -11 -10 -11q-114 0 -198 116z" />
    <glyph glyph-name="uniFEBE" unicode="&#x636;" horiz-adv-x="1314" arabic-form="final" 
d="M427 440h149l15 -111q3 -15 7 -51q48 48 84 80q100 91 182.5 135t158.5 44q99 0 162 -65.5t63 -165.5q0 -71 -28 -127l-1 -2q9 -4 27 -10q31 -10 68 -10q10 0 10 -10v-136q0 -11 -10 -11q-98 0 -173 85l-3 -2q-111 -83 -303 -83q-96 0 -216 25l-13 2q-13 -97 -73 -160
q-76 -82 -230 -82q-134 0 -206.5 70.5t-72.5 203.5q0 91 43 226h136q-42 -112 -42 -189q0 -72 36 -113t108 -41q160 0 160 168q0 99 -38 330zM689 164q57 -7 138 -7q122 0 196.5 36.5t74.5 93.5q0 42 -29.5 69t-77.5 27q-53 0 -117.5 -34t-154.5 -109l-81 -69q36 -5 51 -7z
M626 625l101 101l102 -101l-101 -101z" />
    <glyph glyph-name="uniFEBF" unicode="&#x636;" horiz-adv-x="977" arabic-form="initial" 
d="M127 370h133q-11 -108 -25 -172l8 -3q66 74 127 137q109 112 188 158.5t159 46.5q99 0 162 -65.5t63 -165.5q0 -141 -109.5 -223.5t-302.5 -82.5q-174 0 -328 52q-11 3 -33 11q-13 -13 -29 -23q-58 -40 -140 -40q-10 0 -10 11v136q0 10 10 10q47 0 72 17.5t35 54.5
q9 37 20 141zM521 157q122 0 196.5 36.5t74.5 93.5q0 42 -29.5 69t-77.5 27q-54 0 -110.5 -34.5t-147.5 -123.5l-58 -58q66 -10 152 -10zM314 623l101 101l102 -101l-101 -101z" />
    <glyph glyph-name="uniFEC0" unicode="&#x636;" horiz-adv-x="1009" arabic-form="medial" 
d="M127 370h133q-11 -108 -25 -172l8 -3q66 74 127 137q109 112 188 158.5t159 46.5q99 0 162 -65.5t63 -165.5q0 -141 -109.5 -223.5t-302.5 -82.5q-174 0 -328 52q-11 3 -33 11q-13 -13 -29 -23q-58 -40 -140 -40q-10 0 -10 11v136q0 10 10 10q47 0 72 17.5t35 54.5
q9 37 20 141zM521 157q122 0 196.5 36.5t74.5 93.5q0 42 -29.5 69t-77.5 27q-54 0 -110.5 -34.5t-147.5 -123.5l-58 -58q66 -10 152 -10zM811 116l65 85q59 -44 133 -44q10 0 10 -10v-136q0 -11 -10 -11q-114 0 -198 116zM314 623l101 101l102 -101l-101 -101z" />
    <glyph glyph-name="uniFEC2" unicode="&#x637;" horiz-adv-x="879" arabic-form="final" 
d="M146 725h149v-200q0 -59 -19 -143q-6 -28 -10 -42q68 68 106 100q114 97 215 97q99 0 162 -65.5t63 -165.5q0 -141 -110 -223.5t-303 -82.5q-211 0 -395 44v154q84 -15 116 -20l26 30v517zM391 157q122 0 196.5 36.5t74.5 93.5q0 42 -29.5 69t-77.5 27q-53 0 -107 -36
t-145 -130l-52 -55q75 -5 140 -5zM681 116l65 85q59 -44 133 -44q10 0 10 -10v-136q0 -11 -10 -11q-114 0 -198 116z" />
    <glyph glyph-name="uniFEC3" unicode="&#x637;" horiz-adv-x="791" arabic-form="initial" 
d="M95 725h149v-200q0 -59 -19 -143l-9 -42q51 56 100 98q115 99 215 99q99 0 162 -65.5t63 -165.5q0 -141 -109.5 -223.5t-302.5 -82.5h-344q-10 0 -10 11v136q0 10 10 10h56l39 46v522zM194 157h142q122 0 196 36.5t74 93.5q0 42 -29 69t-77 27q-53 0 -107 -37t-147 -134z
" />
    <glyph glyph-name="uniFEC4" unicode="&#x637;" horiz-adv-x="818" arabic-form="medial" 
d="M95 725h149v-200q0 -59 -19 -143l-9 -42q51 56 100 98q115 99 215 99q99 0 162 -65.5t63 -165.5q0 -141 -109.5 -223.5t-302.5 -82.5h-344q-10 0 -10 11v136q0 10 10 10h56l39 46v522zM194 157h142q122 0 196 36.5t74 93.5q0 42 -29 69t-77 27q-53 0 -107 -37t-147 -134z
M620 116l65 85q59 -44 133 -44q10 0 10 -10v-136q0 -11 -10 -11q-114 0 -198 116z" />
    <glyph glyph-name="uniFEC6" unicode="&#x638;" horiz-adv-x="879" arabic-form="final" 
d="M146 725h149v-200q0 -59 -19 -143q-6 -28 -10 -42q68 68 106 100q114 97 215 97q99 0 162 -65.5t63 -165.5q0 -141 -110 -223.5t-303 -82.5q-211 0 -395 44v154q84 -15 116 -20l26 30v517zM391 157q122 0 196.5 36.5t74.5 93.5q0 42 -29.5 69t-77.5 27q-53 0 -107 -36
t-145 -130l-52 -55q75 -5 140 -5zM681 116l65 85q59 -44 133 -44q10 0 10 -10v-136q0 -11 -10 -11q-114 0 -198 116zM371 683l101 101l102 -101l-101 -101z" />
    <glyph glyph-name="uniFEC7" unicode="&#x638;" horiz-adv-x="791" arabic-form="initial" 
d="M95 725h149v-200q0 -59 -19 -143l-9 -42q51 56 100 98q115 99 215 99q99 0 162 -65.5t63 -165.5q0 -141 -109.5 -223.5t-302.5 -82.5h-344q-10 0 -10 11v136q0 10 10 10h56l39 46v522zM194 157h142q122 0 196 36.5t74 93.5q0 42 -29 69t-77 27q-53 0 -107 -37t-147 -134z
M310 683l101 101l102 -101l-101 -101z" />
    <glyph glyph-name="uniFEC8" unicode="&#x638;" horiz-adv-x="818" arabic-form="medial" 
d="M95 725h149v-200q0 -59 -19 -143l-9 -42q51 56 100 98q115 99 215 99q99 0 162 -65.5t63 -165.5q0 -141 -109.5 -223.5t-302.5 -82.5h-344q-10 0 -10 11v136q0 10 10 10h56l39 46v522zM194 157h142q122 0 196 36.5t74 93.5q0 42 -29 69t-77 27q-53 0 -107 -37t-147 -134z
M620 116l65 85q59 -44 133 -44q10 0 10 -10v-136q0 -11 -10 -11q-114 0 -198 116zM310 683l101 101l102 -101l-101 -101z" />
    <glyph glyph-name="uniFECA" unicode="&#x639;" horiz-adv-x="592" arabic-form="final" 
d="M324 538q103 0 165.5 -52t62.5 -131q0 -73 -56 -132q-26 -29 -55 -50q24 -6 40 -8q51 -8 111 -8q10 0 10 -10v-136q0 -11 -10 -11q-134 0 -235 63q-34 24 -41 29l-17 -10q-129 -72 -129 -126q0 -39 42 -59.5t118 -20.5q100 0 226 38v-145q-136 -44 -236 -44
q-141 0 -216 54.5t-75 156.5t138 188l37 23q-24 41 -28 47q-41 70 -82 117q-12 15 -13 16l-46 -22v136q158 97 289 97zM308 207q106 61 106 106q0 35 -28.5 55.5t-78.5 20.5q-26 0 -59 -6q-14 -3 -52 -13q21 -23 47 -60q27 -39 65 -103z" />
    <glyph glyph-name="uniFECB" unicode="&#x639;" horiz-adv-x="543" arabic-form="initial" 
d="M529 199l-32 -157q-235 -42 -497 -42q-10 0 -10 11v136q0 10 10 10h100l-20 22q-42 53 -42 122q0 88 65 147t167 59q69 0 176 -40v-135q-97 27 -154 27q-52 0 -83.5 -23t-31.5 -61q0 -47 50 -78t117 -25l-1 -1l57 8q50 6 129 20z" />
    <glyph glyph-name="uniFECC" unicode="&#x639;" horiz-adv-x="594" arabic-form="medial" 
d="M323 519q103 0 165.5 -52t62.5 -131q0 -65 -37 -121q-15 -23 -43 -51l9 -1q50 -6 111 -6q10 0 10 -10v-136q0 -11 -10 -11q-142 0 -237 52q-7 3 -21 11l-44 -19q-62 -25 -125.5 -34.5t-163.5 -9.5q-10 1 -10 11v136q0 10 10 10q100 0 176 9h5l-6 10q-43 72 -83 117
l-12 14l-45 -21v136q155 97 288 97zM375 214q38 38 38 81q0 35 -28 55t-79 20q-26 0 -59 -6q-14 -3 -52 -13q26 -29 46 -59q30 -44 73 -119q38 17 61 41z" />
    <glyph glyph-name="uniFECE" unicode="&#x63a;" horiz-adv-x="592" arabic-form="final" 
d="M324 538q103 0 165.5 -52t62.5 -131q0 -73 -56 -132q-26 -29 -55 -50q24 -6 40 -8q51 -8 111 -8q10 0 10 -10v-136q0 -11 -10 -11q-134 0 -235 63q-34 24 -41 29l-17 -10q-129 -72 -129 -126q0 -39 42 -59.5t118 -20.5q100 0 226 38v-145q-136 -44 -236 -44
q-141 0 -216 54.5t-75 156.5t138 188l37 23q-24 41 -28 47q-41 70 -82 117q-12 15 -13 16l-46 -22v136q158 97 289 97zM308 207q106 61 106 106q0 35 -28.5 55.5t-78.5 20.5q-26 0 -59 -6q-14 -3 -52 -13q21 -23 47 -60q27 -39 65 -103zM209 689l101 101l102 -101l-101 -101
z" />
    <glyph glyph-name="uniFECF" unicode="&#x63a;" horiz-adv-x="543" arabic-form="initial" 
d="M529 199l-32 -157q-235 -42 -497 -42q-10 0 -10 11v136q0 10 10 10h100l-20 22q-42 53 -42 122q0 88 65 147t167 59q69 0 176 -40v-135q-97 27 -154 27q-52 0 -83.5 -23t-31.5 -61q0 -47 50 -78t117 -25l-1 -1l57 8q50 6 129 20zM155 657l101 101l102 -101l-101 -101z
" />
    <glyph glyph-name="uniFED0" unicode="&#x63a;" horiz-adv-x="594" arabic-form="medial" 
d="M323 519q103 0 165.5 -52t62.5 -131q0 -65 -37 -121q-15 -23 -43 -51l9 -1q50 -6 111 -6q10 0 10 -10v-136q0 -11 -10 -11q-142 0 -237 52q-7 3 -21 11l-44 -19q-62 -25 -125.5 -34.5t-163.5 -9.5q-10 1 -10 11v136q0 10 10 10q100 0 176 9h5l-6 10q-43 72 -83 117
l-12 14l-45 -21v136q155 97 288 97zM375 214q38 38 38 81q0 35 -28 55t-79 20q-26 0 -59 -6q-14 -3 -52 -13q26 -29 46 -59q30 -44 73 -119q38 17 61 41zM194 667l101 101l102 -101l-101 -101z" />
    <glyph glyph-name="uniFED2" unicode="&#x641;" horiz-adv-x="945" arabic-form="final" 
d="M675 512q99 0 163.5 -64.5t64.5 -157.5q0 -64 -49 -127q37 -6 91 -6q10 0 10 -10v-136q0 -11 -10 -11q-109 0 -250 43l-6 2l-19 -7q-119 -38 -262 -38q-10 1 -10 11v136q0 10 10 10q49 0 88 3l-1 1q-45 55 -45 130q0 92 62.5 156.5t162.5 64.5zM734 206q23 31 23 66
q0 41 -25.5 67t-63.5 26q-39 0 -63 -26t-24 -66q0 -35 23 -67q22 -29 63 -44q44 15 67 44zM45 388h135q-14 -64 -14 -102q0 -68 34 -98.5t119 -30.5h103q10 0 10 -10v-136q0 -11 -10 -11h-139q-257 0 -257 243q0 56 19 145zM570 662l101 101l102 -101l-101 -101z" />
    <glyph glyph-name="uniFED3" unicode="&#x641;" horiz-adv-x="535" arabic-form="initial" 
d="M263 512q103 0 170.5 -68t67.5 -171q0 -123 -75 -198t-201 -75h-225q-10 0 -10 11v136q0 10 10 10h81q-1 1 -1 2q-48 66 -48 130q0 95 66 159t165 64zM218 157h8q59 0 92 30t33 83q0 41 -26 68.5t-65 27.5q-41 0 -66.5 -27.5t-25.5 -69.5q0 -37 35 -89zM161 662l101 101
l102 -101l-101 -101z" />
    <glyph glyph-name="uniFED4" unicode="&#x641;" horiz-adv-x="537" arabic-form="medial" 
d="M267 512q99 0 163.5 -64.5t64.5 -157.5q0 -64 -49 -127q38 -6 91 -6q10 0 10 -10v-136q0 -11 -10 -11q-109 0 -250 43l-6 2l-19 -7q-119 -38 -262 -38q-10 1 -10 11v136q0 10 10 10q49 0 88 3l-1 1q-45 55 -45 130q0 92 62.5 156.5t162.5 64.5zM326 206q23 31 23 66
q0 41 -25.5 67t-63.5 26q-39 0 -63 -26t-24 -66q0 -35 23 -67q22 -29 63 -44q44 15 67 44zM164 662l101 101l102 -101l-101 -101z" />
    <glyph glyph-name="uniFED6" unicode="&#x642;" horiz-adv-x="795" arabic-form="final" 
d="M511 502q99 0 159.5 -64.5t67.5 -180.5l3 -84v-16h54q10 0 10 -10v-136q0 -11 -10 -11h-56q-4 -26 -16 -55q-67 -160 -358 -160q-341 0 -341 274q0 91 43 226h136q-42 -112 -42 -189q0 -90 54 -132t172 -42q75 0 126 20t73 54l3 4h-62q-117 0 -186 65.5t-69 180.5
q0 109 68.5 182.5t170.5 73.5zM597 153l-6 93q-8 104 -90 104q-39 0 -65 -27.5t-26 -71.5q0 -100 132 -100q25 0 35 1q13 0 20 1zM330 660l100 101l77 -75l76 75l102 -101l-100 -100l-77 74l-76 -74z" />
    <glyph glyph-name="uniFED7" unicode="&#x642;" horiz-adv-x="535" arabic-form="initial" 
d="M263 512q103 0 170.5 -68t67.5 -171q0 -123 -75 -198t-201 -75h-225q-10 0 -10 11v136q0 10 10 10h81q-1 1 -1 2q-48 66 -48 130q0 95 66 159t165 64zM218 157h8q59 0 92 30t33 83q0 41 -26 68.5t-65 27.5q-41 0 -66.5 -27.5t-25.5 -69.5q0 -37 35 -89zM86 660l100 101
l77 -75l76 75l102 -101l-100 -100l-77 74l-76 -74z" />
    <glyph glyph-name="uniFED8" unicode="&#x642;" horiz-adv-x="537" arabic-form="medial" 
d="M267 512q99 0 163.5 -64.5t64.5 -157.5q0 -64 -49 -127q38 -6 91 -6q10 0 10 -10v-136q0 -11 -10 -11q-109 0 -250 43l-6 2l-19 -7q-119 -38 -262 -38q-10 1 -10 11v136q0 10 10 10q49 0 88 3l-1 1q-45 55 -45 130q0 92 62.5 156.5t162.5 64.5zM326 206q23 31 23 66
q0 41 -25.5 67t-63.5 26q-39 0 -63 -26t-24 -66q0 -35 23 -67q22 -29 63 -44q44 15 67 44zM86 660l100 101l77 -75l76 75l102 -101l-100 -100l-77 74l-76 -74z" />
    <glyph glyph-name="uniFEDA" unicode="&#x643;" horiz-adv-x="885" arabic-form="final" 
d="M44 388h135q-14 -64 -14 -102q0 -68 34 -98.5t119 -30.5h98h5h2q93 0 152 13q40 8 76 23v12l-1 520h149l1 -478q0 -48 19 -69t65 -21q10 0 10 -10l1 -136q0 -11 -10 -11q-117 0 -176 53l-19 21q-49 -32 -104 -50q-70 -24 -165 -24h-5h-3h-131q-257 0 -257 243
q0 56 19 145zM462 438h91l-31 -101h-128q-52 0 -106 -17v98l31 10q12 4 24 6l-1 1q-20 20 -20 54q0 46 32 75.5t83 29.5q33 0 76 -21v-90q-39 14 -69 14q-42 0 -42 -30q0 -29 60 -29z" />
    <glyph glyph-name="uniFEDB" unicode="&#x643;" horiz-adv-x="586" arabic-form="initial" 
d="M351 795h213v-6l-340 -279l160 -68q91 -38 134 -92.5t43 -131.5q0 -103 -69 -160.5t-194 -57.5h-298q-10 0 -10 11v136q0 10 10 10h306q48 0 77 16t29 44q0 26 -23.5 48t-77.5 45l-256 113v103z" />
    <glyph glyph-name="uniFEDC" unicode="&#x643;" horiz-adv-x="660" arabic-form="medial" 
d="M351 795h213v-6l-340 -279l160 -68q91 -38 134 -92.5t43 -131.5q0 -103 -69 -160.5t-194 -57.5h-298q-10 0 -10 11v136q0 10 10 10h306q48 0 77 16t29 44q0 26 -23.5 48t-77.5 45l-256 113v103zM462 116l65 85q59 -44 133 -44q10 0 10 -10v-136q0 -11 -10 -11
q-114 0 -198 116z" />
    <glyph glyph-name="uniFEDE" unicode="&#x644;" horiz-adv-x="711" arabic-form="final" 
d="M463 725h149v-438h1v-56q0 -74 97 -74q10 0 10 -10v-136q0 -11 -10 -11q-64 0 -102 39q-5 -41 -16 -72q-29 -88 -101.5 -135t-185.5 -47q-135 0 -208 71t-73 203q0 91 43 226h136q-42 -112 -42 -189q0 -71 37 -112.5t109 -41.5q80 0 118 41.5t38 126.5v615z" />
    <glyph glyph-name="uniFEDF" unicode="&#x644;" horiz-adv-x="309" arabic-form="initial" 
d="M86 725h149l-1 -520q0 -99 -59 -152t-175 -53q-10 0 -10 11l1 136q0 10 10 10q46 0 65 21t19 69z" />
    <glyph glyph-name="uniFEE0" unicode="&#x644;" horiz-adv-x="325" arabic-form="medial" 
d="M90 725h149l1 -478q0 -48 19 -69t65 -21q10 0 10 -10l1 -136q0 -11 -10 -11q-117 0 -176 53l-8 8l-9 -8q-59 -53 -132 -53q-10 0 -10 11v136q0 10 10 10q37 0 65 11q13 5 27 14q-1 7 -1 23z" />
    <glyph glyph-name="uniFEE2" unicode="&#x645;" horiz-adv-x="675" arabic-form="final" 
d="M401 484q63 0 104 -36.5t66 -112.5l26 -80q16 -53 33 -75.5t45 -22.5q10 0 10 -10v-136q0 -11 -10 -11q-80 0 -131 53q-8 8 -22 26l-19 -79q-178 0 -266 56q-18 12 -30 22l-15 -14q-19 -23 -19 -77q0 -83 30 -262h-149q-30 190 -30 276q0 107 57 167q33 36 85 52l3 15
q20 96 81.5 172.5t150.5 76.5zM480 175l-24 75q-15 47 -30.5 67.5t-38.5 20.5q-29 0 -57.5 -35.5t-48.5 -100.5q43 -25 102 -38q41 -10 104 -13q-3 8 -7 24z" />
    <glyph glyph-name="uniFEE3" unicode="&#x645;" horiz-adv-x="550" arabic-form="initial" 
d="M307 484q184 0 219 -338l-95 -159q-104 0 -193 19q-68 13 -132 41l-2 -2q-38 -45 -104 -45q-10 1 -10 11v136q0 10 10 10q26 0 44 28.5t54 117.5q39 94 88.5 137.5t120.5 43.5zM273 156q66 -11 120 -11q-4 45 -12 80q-23 113 -81 113q-36 0 -60.5 -30t-55.5 -108l-7 -17
q48 -18 96 -27z" />
    <glyph glyph-name="uniFEE4" unicode="&#x645;" horiz-adv-x="565" arabic-form="medial" 
d="M291 484q63 0 104 -36.5t66 -112.5l26 -80q16 -53 33 -75.5t45 -22.5q10 0 10 -10v-136q0 -11 -10 -11q-80 0 -131 53q-8 8 -22 26l-19 -79q-87 0 -152 13q-68 14 -112 41q-18 -14 -27 -20q-49 -34 -102 -34q-10 0 -10 11v136q0 10 10 10q29 0 53 6v12q0 59 25.5 128
t82.5 125t130 56zM370 175l-24 75q-15 47 -30.5 67.5t-38.5 20.5q-29 0 -57.5 -35.5t-48.5 -100.5q43 -25 102 -38q41 -10 104 -13q-3 8 -7 24z" />
    <glyph glyph-name="uniFEE6" unicode="&#x646;" horiz-adv-x="706" arabic-form="final" 
d="M427 440h149q21 -144 26 -199l3 -18q10 -66 102 -66q10 0 10 -10v-136q0 -11 -10 -11q-57 0 -89 32l-10 12q-10 -110 -75 -177q-76 -82 -230 -82q-134 0 -206.5 70.5t-72.5 203.5q0 91 43 226h136q-42 -112 -42 -189q0 -72 36 -113t108 -41q160 0 160 168q0 99 -38 330z
M196 491l101 101l102 -101l-101 -101z" />
    <glyph glyph-name="uniFEE7" unicode="&#x646;" horiz-adv-x="279" arabic-form="initial" 
d="M56 485h149q29 -188 29 -280q0 -99 -59 -152t-175 -53q-10 0 -10 11l1 136q0 10 10 10q47 0 66 21t19 69q0 51 -30 238zM23 649l101 101l102 -101l-101 -101z" />
    <glyph glyph-name="uniFEE8" unicode="&#x646;" horiz-adv-x="328" arabic-form="medial" 
d="M103 370h137q0 -79 -9 -142l-9 -45q24 -13 38 -16q31 -10 68 -10q10 0 10 -10v-136q0 -11 -10 -11q-88 0 -159 69q-17 -21 -43 -38q-47 -31 -126 -31q-10 0 -10 11v136q0 10 10 10q60 0 82 42q21 41 21 171zM65 544l101 101l102 -101l-101 -101z" />
    <glyph glyph-name="uniFEE9" unicode="&#x647;" horiz-adv-x="827" arabic-form="isolated" 
d="M296 565v140q243 0 370 -101.5t127 -293.5q0 -78 -37 -189l-136 -134q-80 -1 -159 21q-61 19 -111 41q-48 -22 -92 -32q-61 -16 -112 -16q-70 0 -136 22v152q70 -18 127 -18h12l-4 4q-45 55 -45 130q0 92 63 156.5t163 64.5q98 0 162.5 -64.5t64.5 -157.5q0 -65 -50 -128
q-4 -4 -5 -7l18 -3q51 -8 99 -8q33 80 33 160q0 108 -90 184.5t-262 76.5zM384 206q24 30 24 66q0 41 -26 67t-64 26q-39 0 -63 -26t-24 -66q0 -35 23 -67q22 -29 64 -44q45 17 66 44z" />
    <glyph glyph-name="uniFEEA" unicode="&#x647;" horiz-adv-x="539" arabic-form="final" 
d="M333 538h149v-321q0 -60 58 -60q10 0 10 -10v-136q0 -11 -10 -11q-101 0 -150 46q-40 -21 -62 -29q-42 -17 -86 -17q-103 0 -160.5 54.5t-57.5 151.5q0 77 51.5 144.5t150.5 106.5q46 19 107 30v51zM226 322q-60 -40 -60 -99q0 -33 20.5 -52.5t58.5 -19.5q45 0 90 16
q-2 26 -2 41v156q-65 -14 -107 -42z" />
    <glyph glyph-name="uniFEEB" unicode="&#x647;" horiz-adv-x="769" arabic-form="initial" 
d="M238 565l-1 140q243 0 370 -101.5t127 -293.5q0 -81 -36 -189l-136 -134q-80 -1 -159 21q-60 18 -112 41q-16 -7 -29 -11q-119 -38 -262 -38q-10 1 -10 11v136q0 10 10 10q49 0 88 3l-1 1q-45 55 -45 130q0 92 62.5 156.5t162.5 64.5q99 0 163.5 -64.5t64.5 -157.5
q0 -65 -50 -128q-4 -4 -5 -7l18 -3q51 -8 99 -8q33 80 33 160q0 108 -90 184.5t-262 76.5zM326 206q23 31 23 66q0 41 -25.5 67t-63.5 26q-39 0 -63 -26t-24 -66q0 -35 23 -67q22 -29 63 -44q44 15 67 44z" />
    <glyph glyph-name="uniFEEC" unicode="&#x647;" horiz-adv-x="548" arabic-form="medial" 
d="M250 576h124q137 -132 137 -276q0 -76 -42 -131l-4 -6h5q39 -6 78 -6q10 0 10 -11v-136q0 -10 -10 -10q-23 0 -41 3q-12 3 -31 9q12 -16 18 -33q9 -24 9 -47q0 -64 -49 -105.5t-125 -41.5q-115 0 -184.5 57.5t-92.5 151.5l-2 7q-17 -1 -50 -1q-10 0 -10 11v136
q0 10 10 10h38q5 46 13 86q48 203 199 333zM179 168q102 17 142.5 49t40.5 80q0 52 -25 92q-23 37 -46 64q-28 -34 -44 -59q-52 -85 -69 -177q-6 -34 -7 -50q3 1 8 1zM193 19q8 -18 20 -33q41 -55 99 -55q30 0 47 13.5t17 37.5q0 26 -15 49q-8 15 -27 34q-60 -29 -141 -46z
" />
    <glyph glyph-name="uniFEEE" unicode="&#x648;" horiz-adv-x="558" arabic-form="final" 
d="M273 502q100 0 160 -64.5t67 -180.5l3 -85v-15h54q10 0 10 -10v-136q0 -11 -10 -11h-54q-5 -30 -15 -57q-64 -158 -367 -158v127q116 0 178 31q42 20 55 57h-64q-118 0 -187 65.5t-69 180.5q0 109 68.5 182.5t170.5 73.5zM354 246q-8 104 -91 104q-39 0 -65 -27.5
t-26 -71.5q0 -100 133 -100q25 0 35 1l19 1v2q-1 31 -5 91z" />
    <glyph glyph-name="uniFEF0" unicode="&#x649;" horiz-adv-x="683" arabic-form="final" 
d="M466 50v149q132 -41 216 -41q10 0 10 -10v-137q0 -11 -10 -11h-5q-49 -102 -129 -155q-92 -60 -231 -60q-136 0 -214.5 72t-78.5 202q0 91 43 226h136q-42 -112 -42 -189q0 -154 177 -154q88 0 151 31q39 17 67 47q-40 10 -90 30z" />
    <glyph glyph-name="uniFEF2" unicode="&#x64a;" horiz-adv-x="683" arabic-form="final" 
d="M466 50v149q132 -41 216 -41q10 0 10 -10v-137q0 -11 -10 -11h-5q-49 -102 -129 -155q-92 -60 -231 -60q-136 0 -214.5 72t-78.5 202q0 91 43 226h136q-42 -112 -42 -189q0 -154 177 -154q88 0 151 31q39 17 67 47q-40 10 -90 30zM235 -355l101 101l72 -69l70 69
l102 -101l-100 -101l-72 70l-70 -70z" />
    <glyph glyph-name="uniFEF3" unicode="&#x64a;" horiz-adv-x="360" arabic-form="initial" 
d="M139 485h150q29 -188 29 -280q0 -99 -59 -152t-175 -53h-84q-10 0 -10 11l1 136q0 10 10 10h84q46 0 65 21t19 69q0 51 -30 238zM-17 -154l101 101l72 -69l70 69l102 -101l-100 -101l-72 70l-70 -70z" />
    <glyph glyph-name="uniFEF4" unicode="&#x64a;" horiz-adv-x="381" arabic-form="medial" 
d="M131 370h137q0 -72 -8 -141q-2 -18 -6 -34q23 -15 55 -26q37 -12 72 -12q10 0 10 -10v-136q0 -11 -10 -11q-58 0 -111 31q-33 19 -64 51q-24 -31 -61 -52q-54 -30 -145 -30q-10 0 -10 11v136q0 10 10 10q76 0 104 40q27 37 27 173zM5 -155l101 101l72 -69l70 69l102 -101
l-100 -101l-72 70l-70 -70z" />
    <glyph glyph-name=".notdef" horiz-adv-x="500" 
d="M0 0v725h500v-725h-500zM239 362l-220 334v-667zM260 362l221 -333v667zM250 346l-217 -327h433zM33 706l217 -328l216 328h-433z" />
    <glyph glyph-name=".null" 
 />
    <glyph glyph-name="nonmarkingreturn" horiz-adv-x="333" 
 />
    <glyph glyph-name="space" unicode=" " horiz-adv-x="215" 
 />
    <glyph glyph-name="exclam" unicode="!" horiz-adv-x="306" 
d="M208 231h-110l-50 296v198h210v-198zM246 0h-186v178h186v-178z" />
    <glyph glyph-name="quotedbl" unicode="&#x22;" horiz-adv-x="416" 
d="M227 725h166l-22 -254h-122zM23 725h166l-22 -254h-122z" />
    <glyph glyph-name="numbersign" unicode="#" horiz-adv-x="826" 
d="M60 572h149l22 153h157l-22 -153h153l22 153h157l-22 -153h148l-18 -137h-150l-22 -151h149l-17 -138h-152l-21 -146h-157l21 146h-153l-21 -146h-157l21 146h-145l18 138h147l22 151h-146zM346 435l-22 -151h153l22 151h-153z" />
    <glyph glyph-name="dollar" unicode="$" horiz-adv-x="656" 
d="M294 815h68v-80q112 -10 183 -76.5t69 -162.5l-160 -2q2 47 -23.5 77.5t-68.5 35.5v-173l4 -1q43 -10 71.5 -18.5t67.5 -26.5t62 -40t40 -57t17 -79q0 -96 -77 -155t-185 -68v-101h-68v101q-117 8 -191 78t-72 178l160 2q-2 -60 26 -93.5t77 -37.5v185l-36 8
q-87 18 -149 73.5t-62 145.5q0 93 73.5 146t173.5 62v79zM466 198q0 33 -26.5 53t-77.5 34v-170q45 3 74.5 25.5t29.5 57.5zM201 532q0 -63 93 -83v160q-41 -2 -67 -23.5t-26 -53.5z" />
    <glyph glyph-name="percent" unicode="%" horiz-adv-x="1074" 
d="M194 392q64 0 64 128q0 129 -64 129q-66 0 -66 -129q0 -128 66 -128zM194 309q-88 0 -133.5 55t-45.5 156t45.5 156.5t133.5 55.5q87 0 132 -55.5t45 -156.5t-45 -156t-132 -55zM370 0h-166l500 725h166zM864 75q64 0 64 128q0 129 -64 129q-66 0 -66 -129
q0 -128 66 -128zM864 -8q-88 0 -133.5 55t-45.5 156t45.5 156.5t133.5 55.5q87 0 132 -55.5t45 -156.5t-45 -156t-132 -55z" />
    <glyph glyph-name="ampersand" unicode="&#x26;" horiz-adv-x="703" 
d="M248 -13q-113 0 -186.5 62t-73.5 163q0 73 48 125.5t120 82.5q-39 48 -57 83.5t-18 71.5q0 71 60 116.5t157 45.5q91 0 156.5 -43.5t65.5 -125.5q0 -60 -38 -108.5t-93 -72.5l76 -86q26 70 30 123h161q-13 -127 -86 -243l159 -181h-213l-54 62q-96 -75 -214 -75zM263 121
q59 0 111 44l-131 152q-86 -39 -86 -100q0 -46 29 -71t77 -25zM252 566q0 -29 57 -88q60 31 60 80q0 24 -17.5 37.5t-42.5 13.5t-41 -11.5t-16 -31.5z" />
    <glyph glyph-name="quotesingle" unicode="'" horiz-adv-x="212" 
d="M23 725h166l-22 -254h-122z" />
    <glyph glyph-name="parenleft" unicode="(" horiz-adv-x="317" 
d="M25 275q0 131 43 249.5t100 200.5h157q-59 -94 -96 -211.5t-37 -238.5q0 -119 37.5 -238t95.5 -212h-157q-57 82 -100 200.5t-43 249.5z" />
    <glyph glyph-name="parenright" unicode=")" horiz-adv-x="317" 
d="M292 275q0 -130 -43.5 -249t-100.5 -201h-156q58 93 95 211.5t37 238.5t-37 238.5t-95 211.5h156q57 -82 100.5 -201t43.5 -249z" />
    <glyph glyph-name="asterisk" unicode="*" horiz-adv-x="357" 
d="M219 725v-100l94 36l36 -94l-96 -34l58 -81l-80 -59l-61 84l-57 -84l-85 57l59 83l-97 34l36 94l92 -36v100h101z" />
    <glyph glyph-name="plus" unicode="+" horiz-adv-x="678" 
d="M417 0h-155v200h-212v139h212v199h155v-199h211v-139h-211v-200z" />
    <glyph glyph-name="comma" unicode="," horiz-adv-x="281" 
d="M48 0v178h185v-188l-102 -148h-98l87 158h-72z" />
    <glyph glyph-name="hyphen" unicode="-" horiz-adv-x="439" 
d="M396 196h-353v139h353v-139z" />
    <glyph glyph-name="period" unicode="." horiz-adv-x="282" 
d="M234 0h-186v178h186v-178z" />
    <glyph glyph-name="slash" unicode="/" horiz-adv-x="458" 
d="M165 0h-165l293 725h165z" />
    <glyph glyph-name="zero" unicode="0" horiz-adv-x="716" 
d="M358 -13q-151 0 -231 100t-80 277q0 176 80 274.5t231 98.5q150 0 230 -98.5t80 -274.5q0 -177 -80 -277t-230 -100zM358 109q66 0 103.5 63.5t37.5 191.5q0 127 -37.5 189t-103.5 62t-104 -62t-38 -189q0 -128 38 -191.5t104 -63.5z" />
    <glyph glyph-name="one" unicode="1" horiz-adv-x="415" 
d="M340 0h-164v487h-165v121q89 2 134 29t70 88h125v-725z" />
    <glyph glyph-name="two" unicode="2" horiz-adv-x="610" 
d="M315 737q117 0 189.5 -54.5t72.5 -149.5q0 -109 -87 -204.5t-257 -193.5h347v-135h-557v135q188 137 228 170q150 122 159 206q1 6 1 12q0 45 -28.5 68.5t-72.5 23.5q-51 0 -85 -35.5t-31 -115.5h-163q-4 126 75.5 199.5t208.5 73.5z" />
    <glyph glyph-name="three" unicode="3" horiz-adv-x="640" 
d="M315 109q55 0 85.5 26t30.5 75q0 46 -42 69.5t-114 23.5h-48v136h43q152 0 152 95q0 38 -32 59.5t-75 21.5q-113 0 -127 -101h-163q11 112 95 167.5t203 55.5q107 0 186 -48.5t79 -140.5q0 -53 -29.5 -97t-71.5 -68q52 -21 82.5 -70t30.5 -102q0 -106 -83.5 -165
t-204.5 -59q-75 0 -136.5 24t-106 79.5t-53.5 136.5h164q8 -60 45.5 -89t89.5 -29z" />
    <glyph glyph-name="four" unicode="4" horiz-adv-x="633" 
d="M361 510l-172 -212h172v212zM626 298v-145h-100v-153h-165v153h-353v129l365 443h153v-427h100z" />
    <glyph glyph-name="five" unicode="5" horiz-adv-x="670" 
d="M333 109q57 0 92.5 34.5t35.5 95.5q0 63 -36.5 97.5t-88.5 34.5q-86 0 -124 -72l-151 15l51 411h485v-134h-348l-17 -136q55 38 144 38q105 0 180 -66.5t75 -186.5q0 -119 -85 -186t-211 -67q-116 0 -195.5 61.5t-97.5 174.5h159q20 -114 132 -114z" />
    <glyph glyph-name="six" unicode="6" horiz-adv-x="654" 
d="M213 238q0 -59 32 -94t86 -35t84.5 34.5t30.5 94.5q0 58 -31 93.5t-84 35.5q-54 0 -86 -34.5t-32 -94.5zM341 618q-60 0 -96 -45.5t-34 -134.5q60 53 156 53q101 0 174.5 -72t73.5 -181q0 -113 -79.5 -182t-204.5 -69q-147 0 -219.5 98.5t-72.5 259.5q0 82 18 151t54 124
t97.5 86t141.5 31q120 0 185.5 -58.5t71.5 -150.5h-162q-11 90 -104 90z" />
    <glyph glyph-name="seven" unicode="7" horiz-adv-x="524" 
d="M-3 591v134h543v-134q-157 -132 -225 -262t-72 -329h-176q0 363 300 591h-370z" />
    <glyph glyph-name="eight" unicode="8" horiz-adv-x="684" 
d="M342 -13q-130 0 -213 61t-83 167q0 114 98 175q-40 28 -59 62.5t-19 89.5q0 83 76 139t200 56t199.5 -55.5t75.5 -139.5q0 -54 -19 -89t-58 -63q98 -61 98 -175q0 -106 -83 -167t-213 -61zM342 109q59 0 93 32.5t34 79.5t-33.5 77.5t-93.5 30.5t-93.5 -30.5t-33.5 -77.5
t34 -79.5t93 -32.5zM342 437q54 0 83 24.5t29 64.5t-28.5 64.5t-83.5 24.5t-83.5 -24.5t-28.5 -64.5t29 -64.5t83 -24.5z" />
    <glyph glyph-name="nine" unicode="9" horiz-adv-x="651" 
d="M434 486q0 59 -31.5 94t-85.5 35t-84.5 -34.5t-30.5 -94.5q0 -58 31 -93.5t84 -35.5q54 0 85.5 34.5t31.5 94.5zM306 107q61 0 97 45.5t34 133.5q-60 -53 -157 -53q-101 0 -174 72t-73 181q0 114 79 182.5t205 68.5q147 0 219.5 -98.5t72.5 -259.5q0 -82 -18 -151
t-54 -124t-97.5 -86t-141.5 -31q-120 0 -185.5 58.5t-71.5 150.5h162q10 -89 103 -89z" />
    <glyph glyph-name="colon" unicode=":" horiz-adv-x="282" 
d="M234 360h-186v178h186v-178zM234 0h-186v178h186v-178z" />
    <glyph glyph-name="semicolon" unicode=";" horiz-adv-x="282" 
d="M234 360h-186v178h186v-178zM48 0v178h185v-188l-102 -148h-98l87 158h-72z" />
    <glyph glyph-name="less" unicode="&#x3c;" horiz-adv-x="678" 
d="M66 337l536 204v-154l-353 -119l353 -121v-153l-536 204v139z" />
    <glyph glyph-name="equal" unicode="=" horiz-adv-x="678" 
d="M602 296h-526v139h526v-139zM602 99h-526v138h526v-138z" />
    <glyph glyph-name="greater" unicode="&#x3e;" horiz-adv-x="678" 
d="M612 337v-139l-536 -204v153l353 121l-353 119v154z" />
    <glyph glyph-name="question" unicode="?" horiz-adv-x="624" 
d="M326 737q117 0 197.5 -47.5t80.5 -137.5q0 -66 -35 -106t-102 -72q-59 -27 -82.5 -50t-23.5 -68v-26h-165q-3 15 -3 48q0 68 30.5 107t89.5 68q11 6 38.5 18t42 19.5t28 20.5t13.5 28q0 30 -30 48t-81 18q-66 0 -106 -29t-40 -87h-160q0 116 84.5 182t223.5 66zM371 0
h-186v178h186v-178z" />
    <glyph glyph-name="at" unicode="@" horiz-adv-x="826" 
d="M603 152q-95 0 -122 78q-46 -79 -134 -79q-70 0 -117.5 47.5t-47.5 138.5q0 99 65 167t145 68q79 0 113 -60l8 44h109l-39 -224q-9 -40 -2 -69.5t36 -29.5q37 0 64.5 46.5t27.5 122.5q0 121 -76 187.5t-202 66.5q-137 0 -224 -88.5t-87 -221.5q0 -128 76.5 -208
t200.5 -80q96 0 188 47l29 -69q-101 -49 -218 -49q-158 0 -257 101t-99 261q0 159 113 267.5t280 108.5q71 0 133.5 -19.5t112.5 -57.5t78.5 -100.5t28.5 -141.5q0 -117 -53.5 -185.5t-129.5 -68.5zM403 459q-41 0 -66.5 -36t-25.5 -86q0 -75 62 -75q41 0 65.5 36.5
t24.5 90.5q0 32 -16 51t-44 19z" />
    <glyph glyph-name="A" unicode="A" horiz-adv-x="725" 
d="M-5 0l273 725h188l274 -725h-186l-44 129h-280l-43 -129h-182zM361 544l-94 -276h187z" />
    <glyph glyph-name="B" unicode="B" horiz-adv-x="714" 
d="M66 0v725h316q133 0 205 -41t72 -147q0 -97 -86 -151q115 -41 115 -163q0 -223 -293 -223h-329zM237 308v-164h160q54 0 82 21.5t28 60.5t-28 60.5t-82 21.5h-160zM237 581v-146h151q44 0 68.5 20t24.5 54t-24 53t-69 19h-151z" />
    <glyph glyph-name="C" unicode="C" horiz-adv-x="750" 
d="M562 270h168q-20 -127 -114.5 -205t-230.5 -78q-169 0 -266 101t-97 275q0 172 99 273t269 101q134 0 225.5 -79t109.5 -204h-168q-14 71 -61 106.5t-112 35.5q-78 0 -129.5 -62.5t-51.5 -170.5q0 -111 51 -173t132 -62q64 0 112.5 33t63.5 109z" />
    <glyph glyph-name="D" unicode="D" horiz-adv-x="750" 
d="M548 363q0 69 -19 114.5t-55.5 67t-74.5 29t-91 7.5h-71v-437h71q53 0 91 7.5t74.5 29.5t55.5 67.5t19 114.5zM66 725h239q424 0 424 -362q0 -363 -424 -363h-239v725z" />
    <glyph glyph-name="E" unicode="E" horiz-adv-x="663" 
d="M66 0v725h556v-150h-385v-127h364v-151h-364v-146h385v-151h-556z" />
    <glyph glyph-name="F" unicode="F" horiz-adv-x="599" 
d="M66 0v725h534v-150h-363v-127h341v-151h-341v-297h-171z" />
    <glyph glyph-name="G" unicode="G" horiz-adv-x="783" 
d="M392 737q124 0 211.5 -61.5t113.5 -177.5h-168q-13 42 -53.5 70t-105.5 28q-82 0 -134.5 -60t-52.5 -171q0 -113 51 -175t139 -62q68 0 114.5 29t46.5 93v14h-175v140h346v-404h-131l-5 80q-68 -93 -222 -93q-160 0 -252.5 102t-92.5 276q0 170 102 271t268 101z" />
    <glyph glyph-name="H" unicode="H" horiz-adv-x="772" 
d="M535 725h171v-725h-171v297h-298v-297h-171v725h171v-277h298v277z" />
    <glyph glyph-name="I" unicode="I" horiz-adv-x="302" 
d="M237 725v-725h-171v725h171z" />
    <glyph glyph-name="J" unicode="J" horiz-adv-x="641" 
d="M406 277v448h171v-448q0 -137 -73 -213.5t-210 -76.5q-136 0 -207.5 79t-75.5 211h171q2 -85 29 -119.5t83 -34.5t84 35t28 119z" />
    <glyph glyph-name="K" unicode="K" horiz-adv-x="713" 
d="M237 725v-287l263 287h209l-268 -289l282 -436h-206l-196 306l-84 -92v-214h-171v725h171z" />
    <glyph glyph-name="L" unicode="L" horiz-adv-x="584" 
d="M237 725v-574h348v-151h-519v725h171z" />
    <glyph glyph-name="M" unicode="M" horiz-adv-x="949" 
d="M556 0h-161l-163 580v-580h-166v725h270l139 -520l142 520h267v-725h-166v581z" />
    <glyph glyph-name="N" unicode="N" horiz-adv-x="795" 
d="M730 0h-208l-291 500v-500h-165v725h208l291 -500v500h165v-725z" />
    <glyph glyph-name="O" unicode="O" horiz-adv-x="796" 
d="M203 362q0 -111 55.5 -172.5t139.5 -61.5t139.5 61.5t55.5 172.5t-55.5 172.5t-139.5 61.5t-139.5 -61.5t-55.5 -172.5zM774 362q0 -169 -104.5 -272t-271.5 -103q-168 0 -272 103t-104 272t104 272t272 103q167 0 271.5 -103t104.5 -272z" />
    <glyph glyph-name="P" unicode="P" horiz-adv-x="677" 
d="M66 725h279q75 0 131.5 -10.5t103 -36t70.5 -73t24 -116.5t-24 -117t-70.5 -74t-103 -36.5t-131.5 -10.5h-108v-251h-171v725zM350 581h-113v-186h113q67 0 105 20.5t38 73.5t-37.5 72.5t-105.5 19.5z" />
    <glyph glyph-name="Q" unicode="Q" horiz-adv-x="796" 
d="M774 362q0 -186 -126 -292l83 -110l-99 -73l-93 123q-67 -23 -141 -23q-168 0 -272 103t-104 272t104 272t272 103q167 0 271.5 -103t104.5 -272zM374 231l99 72l75 -100q45 63 45 159q0 111 -55.5 172.5t-139.5 61.5t-139.5 -61.5t-55.5 -172.5t55.5 -172.5t139.5 -61.5
q26 0 48 6z" />
    <glyph glyph-name="R" unicode="R" horiz-adv-x="721" 
d="M510 0l-157 273h-116v-273h-171v725h279q60 0 107 -6t89.5 -21t71 -40t45 -64.5t16.5 -92.5q0 -145 -142 -200l179 -301h-201zM350 581h-113v-164h113q69 0 106 17t37 65q0 47 -37.5 64.5t-105.5 17.5z" />
    <glyph glyph-name="S" unicode="S" horiz-adv-x="673" 
d="M632 515h-169q-13 41 -50.5 63t-92.5 22q-52 0 -83.5 -18.5t-31.5 -51.5q0 -27 22.5 -46t61.5 -27l99 -20q45 -9 74 -16.5t69 -24.5t63.5 -37.5t41 -55t17.5 -78.5q0 -108 -91.5 -173t-212.5 -65q-140 0 -227 65.5t-107 183.5h170q28 -111 168 -111q51 0 87.5 19t36.5 60
q0 33 -34.5 53t-100.5 34l-88 18q-225 46 -225 211q0 70 46.5 121t113 73.5t141.5 22.5q74 0 136 -21.5t108.5 -73t57.5 -127.5z" />
    <glyph glyph-name="T" unicode="T" horiz-adv-x="647" 
d="M237 0v575h-232v150h637v-150h-233v-575h-172z" />
    <glyph glyph-name="U" unicode="U" horiz-adv-x="735" 
d="M54 725h171v-433q0 -86 30 -125.5t114 -39.5t112.5 43t28.5 132v423h171v-409q0 -170 -72.5 -249.5t-239.5 -79.5q-166 0 -240.5 73.5t-74.5 249.5v415z" />
    <glyph glyph-name="V" unicode="V" horiz-adv-x="679" 
d="M-5 725h182l167 -533l167 533h174l-246 -725h-200z" />
    <glyph glyph-name="W" unicode="W" horiz-adv-x="916" 
d="M547 725l107 -503l91 503h171l-164 -725h-184l-110 511l-109 -511h-183l-166 725h173l99 -501l98 501h177z" />
    <glyph glyph-name="X" unicode="X" horiz-adv-x="722" 
d="M-11 0l272 369l-260 356h201l160 -219l161 219h198l-261 -353l273 -372h-201l-173 235l-173 -235h-197z" />
    <glyph glyph-name="Y" unicode="Y" horiz-adv-x="692" 
d="M-16 725h200l162 -278l164 278h198l-280 -445v-280h-171v282z" />
    <glyph glyph-name="Z" unicode="Z" horiz-adv-x="656" 
d="M619 725v-131l-375 -443h380v-151h-605v131l377 444h-348v150h571z" />
    <glyph glyph-name="bracketleft" unicode="[" horiz-adv-x="324" 
d="M57 725h278v-135h-116v-630h116v-135h-278v900z" />
    <glyph glyph-name="backslash" unicode="\" horiz-adv-x="458" 
d="M166 725l292 -725h-164l-294 725h166z" />
    <glyph glyph-name="bracketright" unicode="]" horiz-adv-x="324" 
d="M-11 725h278v-900h-278v135h115v630h-115v135z" />
    <glyph glyph-name="asciicircum" unicode="^" horiz-adv-x="555" 
d="M346 725l188 -387h-156l-100 228l-100 -228h-156l188 387h136z" />
    <glyph glyph-name="underscore" unicode="_" horiz-adv-x="489" 
d="M467 -139h-445v139h445v-139z" />
    <glyph glyph-name="grave" unicode="`" horiz-adv-x="326" 
d="M180 609l-158 116h187l95 -116h-124z" />
    <glyph glyph-name="a" unicode="a" horiz-adv-x="597" 
d="M388 336v21q0 47 -22 66.5t-69 19.5q-85 0 -96 -79h-154q6 80 77.5 135.5t186.5 55.5q120 0 181 -53.5t59 -172.5l-2 -117v-56q0 -105 12 -156h-162l-2 65q-55 -78 -181 -78q-79 0 -132.5 43t-53.5 115q0 48 25.5 83t76 56.5t111.5 33.5t145 18zM392 226v13
q-49 -5 -79.5 -9.5t-58.5 -13.5t-41 -23.5t-13 -35.5q0 -26 21.5 -42t54.5 -16q116 0 116 127z" />
    <glyph glyph-name="b" unicode="b" horiz-adv-x="650" 
d="M335 422q-53 0 -86 -37t-33 -116t33 -116.5t86 -37.5q52 0 86 41t34 113t-34 112.5t-86 40.5zM224 725v-260q25 42 71 63.5t94 21.5q106 0 171.5 -75.5t65.5 -205.5t-65.5 -206t-171.5 -76q-48 0 -94 21.5t-71 63.5v-72h-165v725h165z" />
    <glyph glyph-name="c" unicode="c" horiz-adv-x="596" 
d="M302 554q61 0 112.5 -18.5t95.5 -68t59 -126.5h-154q-20 85 -103 85q-50 0 -83.5 -37.5t-33.5 -117.5q0 -81 33.5 -118.5t83.5 -37.5q90 0 110 83h154q-26 -110 -103 -160.5t-171 -50.5q-131 0 -203 77t-72 208q0 128 76 205t199 77z" />
    <glyph glyph-name="d" unicode="d" horiz-adv-x="650" 
d="M426 725h165v-725h-165v72q-25 -42 -71 -63.5t-94 -21.5q-106 0 -171.5 76t-65.5 206t65.5 205.5t171.5 75.5q48 0 94 -21.5t71 -63.5v260zM315 422q-52 0 -86 -40.5t-34 -112.5t34 -113t86 -41q53 0 86 37.5t33 116.5t-33 116t-86 37z" />
    <glyph glyph-name="e" unicode="e" horiz-adv-x="620" 
d="M438 169h152q-34 -90 -108 -136t-160 -46q-133 0 -214 76.5t-81 208.5q0 126 83.5 204t204.5 78q133 0 209 -91t68 -236h-399q4 -54 39.5 -83t84.5 -29q89 0 121 54zM315 428q-47 0 -80.5 -25t-39.5 -76h233q-2 49 -33 75t-80 26z" />
    <glyph glyph-name="f" unicode="f" horiz-adv-x="370" 
d="M75 538v34q0 92 43.5 122.5t156.5 30.5h84v-116h-47q-46 0 -59 -7t-13 -37v-27h119v-117h-119v-421h-165v421h-73v117h73z" />
    <glyph glyph-name="g" unicode="g" horiz-adv-x="650" 
d="M427 465v73h164v-466q0 -72 -21.5 -124.5t-61 -81t-87 -41.5t-106.5 -13q-114 0 -185 53t-84 132h155q19 -69 112 -69q61 0 87.5 28t26.5 84v64q-25 -42 -71.5 -63.5t-94.5 -21.5q-107 0 -172 70t-65 196q0 125 65 195t172 70q48 0 94.5 -21.5t71.5 -63.5zM315 422
q-53 0 -86.5 -34.5t-33.5 -102.5q0 -69 33.5 -103.5t86.5 -34.5q119 0 119 138q0 137 -119 137z" />
    <glyph glyph-name="h" unicode="h" horiz-adv-x="621" 
d="M224 725v-258q20 34 64 58.5t103 24.5q100 0 140.5 -56t40.5 -171v-323h-165v282q0 29 -1 45t-5 37t-12.5 31.5t-24.5 18.5t-39 8q-53 0 -77 -35t-24 -111v-276h-165v725h165z" />
    <glyph glyph-name="i" unicode="i" horiz-adv-x="284" 
d="M59 538h166v-538h-166v538zM59 725h165v-132h-165v132z" />
    <glyph glyph-name="j" unicode="j" horiz-adv-x="283" 
d="M59 2v536h165v-542q0 -99 -40.5 -135t-137.5 -36h-61v119h19q34 0 44.5 11.5t10.5 46.5zM59 725h165v-132h-165v132z" />
    <glyph glyph-name="k" unicode="k" horiz-adv-x="612" 
d="M59 725h165v-392l181 205h195l-192 -206l208 -332h-193l-127 212l-72 -77v-135h-165v725z" />
    <glyph glyph-name="l" unicode="l" horiz-adv-x="283" 
d="M224 725v-725h-165v725h165z" />
    <glyph glyph-name="m" unicode="m" horiz-adv-x="961" 
d="M224 280v-280h-165v538h165v-71q20 34 63.5 58.5t99.5 24.5q122 0 160 -91q62 91 184 91q100 0 140.5 -56t40.5 -171v-323h-165v282q0 28 -1 45t-5.5 37t-13 31.5t-24.5 19t-39 7.5q-50 0 -73 -34.5t-23 -107.5v-280h-165v282q0 28 -1 45t-5.5 37t-13 31.5t-24.5 19
t-39 7.5q-50 0 -73 -34.5t-23 -107.5z" />
    <glyph glyph-name="n" unicode="n" horiz-adv-x="621" 
d="M224 538v-71q20 34 64 58.5t103 24.5q100 0 140.5 -56t40.5 -171v-323h-165v282q0 28 -1 44.5t-5.5 37.5t-13 31.5t-24.5 18.5t-39 8q-53 0 -76.5 -35t-23.5 -111v-276h-165v538h165z" />
    <glyph glyph-name="o" unicode="o" horiz-adv-x="624" 
d="M312 426q-53 0 -85 -37t-32 -118t31.5 -118.5t85.5 -37.5t85.5 37.5t31.5 118.5t-32 118t-85 37zM312 554q121 0 203 -72.5t82 -210.5t-82 -211t-203 -73t-203 73t-82 211t82 210.5t203 72.5z" />
    <glyph glyph-name="p" unicode="p" horiz-adv-x="650" 
d="M224 538v-73q25 42 71 63.5t94 21.5q106 0 171.5 -75.5t65.5 -205.5t-65.5 -206t-171.5 -76q-48 0 -94 21.5t-71 63.5v-247h-165v713h165zM335 422q-53 0 -86 -37t-33 -116t33 -116.5t86 -37.5q52 0 86 41t34 113t-34 112.5t-86 40.5z" />
    <glyph glyph-name="q" unicode="q" horiz-adv-x="650" 
d="M315 422q-52 0 -86 -40.5t-34 -112.5t34 -113t86 -41q53 0 86 37.5t33 116.5t-33 116t-86 37zM426 538h165v-713h-165v247q-25 -42 -71 -63.5t-94 -21.5q-106 0 -171.5 76t-65.5 206t65.5 205.5t171.5 75.5q48 0 94 -21.5t71 -63.5v73z" />
    <glyph glyph-name="r" unicode="r" horiz-adv-x="401" 
d="M390 541v-161q-19 3 -45 3q-62 0 -91.5 -26t-29.5 -87v-270h-165v538h159v-102q40 102 147 106h12q9 0 13 -1z" />
    <glyph glyph-name="s" unicode="s" horiz-adv-x="582" 
d="M544 380h-154q-14 52 -105 52q-86 0 -86 -40q0 -19 15.5 -30t50.5 -18l100 -18q101 -19 146 -53.5t45 -103.5q0 -88 -72 -135t-188 -47q-109 0 -179.5 48t-84.5 140h153q20 -68 113 -68q46 0 73 12.5t27 35.5q0 19 -19 30.5t-65 19.5l-96 16q-82 13 -128.5 54.5
t-46.5 110.5q0 77 71 121.5t175 44.5q100 0 170 -42.5t85 -129.5z" />
    <glyph glyph-name="t" unicode="t" horiz-adv-x="396" 
d="M85 538v147h165v-147h118v-117h-118v-241q0 -37 14.5 -49t56.5 -12h47v-119h-105q-103 0 -140.5 30t-37.5 121v270h-85v117h85z" />
    <glyph glyph-name="u" unicode="u" horiz-adv-x="617" 
d="M392 0v75q-27 -43 -63 -65.5t-95 -22.5q-103 0 -144.5 56t-41.5 171v324h165v-283q0 -29 1 -45t5 -37t12.5 -31.5t24.5 -18.5t39 -8q53 0 75 32t22 107v284h165v-538h-165z" />
    <glyph glyph-name="v" unicode="v" horiz-adv-x="571" 
d="M178 538l114 -379l109 379h170l-192 -538h-183l-196 538h178z" />
    <glyph glyph-name="w" unicode="w" horiz-adv-x="785" 
d="M307 538h170l63 -365l71 365h169l-124 -538h-192l-72 397l-72 -397h-191l-124 538h169l71 -365z" />
    <glyph glyph-name="x" unicode="x" horiz-adv-x="593" 
d="M585 538l-198 -260l206 -278h-186l-115 154l-117 -154h-175l207 269l-199 269h187l107 -145l111 145h172z" />
    <glyph glyph-name="y" unicode="y" horiz-adv-x="563" 
d="M118 -175h-53v119h33q52 0 69 7.5t29 37.5l5 14l-201 535h181l99 -337l106 337h177l-211 -538q-41 -105 -86 -140t-148 -35z" />
    <glyph glyph-name="z" unicode="z" horiz-adv-x="548" 
d="M22 0v131l282 276h-263v131h475v-131l-282 -276h294v-131h-506z" />
    <glyph glyph-name="braceleft" unicode="{" horiz-adv-x="360" 
d="M361 -175h-56q-104 0 -155.5 38.5t-51.5 137.5v104q0 54 -15 79t-61 25v133q46 0 61 25.5t15 77.5v104q0 99 51.5 137.5t155.5 38.5h56v-130h-26q-38 0 -54.5 -10t-16.5 -38v-134q0 -111 -101 -136v-3q101 -25 101 -136v-135q0 -29 16.5 -38.5t54.5 -9.5h26v-130z" />
    <glyph glyph-name="bar" unicode="|" horiz-adv-x="290" 
d="M66 725h158v-815h-158v815z" />
    <glyph glyph-name="braceright" unicode="}" horiz-adv-x="360" 
d="M0 -175v130h26q38 0 54.5 9.5t16.5 38.5v135q0 111 101 136v3q-101 25 -101 136v134q0 28 -16.5 38t-54.5 10h-26v130h56q104 0 155.5 -38.5t51.5 -137.5v-104q0 -52 15 -77.5t61 -25.5v-133q-46 0 -61 -25t-15 -79v-104q0 -99 -51.5 -137.5t-155.5 -38.5h-56z" />
    <glyph glyph-name="asciitilde" unicode="~" horiz-adv-x="678" 
d="M427 301q43 0 44 66h115q-4 -100 -36.5 -150t-109.5 -50q-40 0 -100 32.5t-89 32.5q-22 0 -32.5 -14.5t-11.5 -50.5h-115q2 98 36.5 149t111.5 51q45 0 104.5 -33t82.5 -33z" />
    <glyph glyph-name="uni00A0" unicode="&#xa0;" horiz-adv-x="215" 
 />
    <glyph glyph-name="exclamdown" unicode="&#xa1;" horiz-adv-x="306" 
d="M98 319h110l50 -296v-198h-210v198zM246 360h-186v178h186v-178z" />
    <glyph glyph-name="cent" unicode="&#xa2;" horiz-adv-x="583" 
d="M284 624h51v-72q85 -7 149.5 -58t84.5 -153h-154q-17 72 -80 83v-308q69 10 87 82h154q-24 -101 -90.5 -151.5t-150.5 -57.5v-93h-51v92q-122 6 -189.5 82.5t-67.5 201.5q0 122 71 198.5t186 82.5v71zM195 271q0 -68 25 -106t64 -47v304q-39 -9 -64 -46t-25 -105z" />
    <glyph glyph-name="sterling" unicode="&#xa3;" horiz-adv-x="656" 
d="M335 605q-46 0 -74 -20t-28 -53q0 -22 9 -48t17.5 -41.5t27.5 -45.5h171v-75h-136q8 -26 8 -45q0 -77 -114 -152l1 -1q40 22 90 22q29 0 81.5 -11.5t74.5 -11.5q54 0 112 33l54 -128q-79 -41 -180 -41q-39 0 -111 19.5t-107 19.5q-75 0 -146 -39l-60 126q69 32 101 67.5
t32 92.5q0 21 -11 49h-125v75h86q-48 90 -48 149q0 49 23 86.5t62.5 60t87 33.5t100.5 11q129 0 212 -71.5t81 -189.5h-161q2 67 -35.5 98t-94.5 31z" />
    <glyph glyph-name="currency" unicode="&#xa4;" horiz-adv-x="636" 
d="M79 346q0 78 44 139l-69 70l49 49l68 -68q63 49 144 49q83 0 147 -51l71 70l49 -49l-72 -72q44 -64 44 -137q0 -76 -44 -137l72 -71l-49 -49l-71 70q-65 -49 -147 -49q-81 0 -143 48l-69 -69l-49 49l69 70q-44 61 -44 138zM215 346q0 -47 27.5 -76.5t72.5 -29.5
q48 0 76.5 29t28.5 77q0 49 -28.5 79.5t-76.5 30.5q-45 0 -72.5 -30.5t-27.5 -79.5z" />
    <glyph glyph-name="yen" unicode="&#xa5;" horiz-adv-x="713" 
d="M599 89h-162v-89h-165v89h-156v79h156v64h-156v80h131l-252 413h200l162 -289l164 289h198l-256 -413h136v-80h-162v-64h162v-79z" />
    <glyph glyph-name="brokenbar" unicode="&#xa6;" horiz-adv-x="244" 
d="M59 725h126v-305h-126v305zM59 215h126v-305h-126v305z" />
    <glyph glyph-name="section" unicode="&#xa7;" horiz-adv-x="621" 
d="M305 -66q36 0 56.5 15t20.5 39q0 23 -19.5 42t-61.5 40l-126 61q-153 75 -153 185q0 80 94 139q-43 51 -43 115q0 78 67.5 122.5t165.5 44.5q105 0 170.5 -51t75.5 -150h-152q-16 75 -95 75q-32 0 -51 -10t-19 -27t16 -31t51 -31l134 -65q84 -41 124 -82t40 -100
q0 -91 -101 -146q48 -50 48 -118q0 -88 -68.5 -141t-177.5 -53q-110 0 -176 62.5t-74 168.5h153q12 -104 101 -104zM350 320l-121 59q-45 -24 -45 -50q0 -20 16.5 -35t50.5 -31l133 -65l4 -3q46 24 46 51q0 22 -19.5 37t-64.5 37z" />
    <glyph glyph-name="dieresis" unicode="&#xa8;" horiz-adv-x="415" 
d="M22 598v127h148v-127h-148zM246 725h147v-127h-147v127z" />
    <glyph glyph-name="copyright" unicode="&#xa9;" horiz-adv-x="825" 
d="M38 361q0 165 108.5 271t266.5 106t266 -106t108 -271q0 -164 -108 -269t-266 -105q-159 0 -267 105t-108 269zM121 361q0 -131 84 -215t208 -84q126 0 208.5 84t82.5 215q0 134 -82 217.5t-209 83.5q-125 0 -208.5 -84t-83.5 -217zM414 244q80 0 95 76l104 -23
q-18 -64 -71.5 -102.5t-130.5 -38.5q-93 0 -147 57.5t-54 148.5q0 92 56 148t148 56q74 0 128.5 -40.5t66.5 -104.5l-103 -25q-5 37 -30 60.5t-62 23.5q-41 0 -67 -30.5t-26 -87.5q0 -56 25 -87t68 -31z" />
    <glyph glyph-name="ordfeminine" unicode="&#xaa;" horiz-adv-x="350" 
d="M130 642h-102q10 104 157 104q70 0 103 -28.5t33 -92.5l-1 -64q-2 -57 6 -123h-98l-1 34q-26 -42 -95 -42q-52 0 -83 30t-31 72t28 63q5 4 12.5 8t13.5 7t16.5 5.5t16.5 4t18.5 4t17.5 3t19.5 3t17.5 2.5l37 4v6q0 31 -42 31q-39 0 -43 -31zM218 552v18l-40 -4
q-49 -4 -49 -30q0 -12 9 -20.5t26 -8.5q24 0 39 12t15 33z" />
    <glyph glyph-name="guillemotleft" unicode="&#xab;" horiz-adv-x="615" 
d="M178 41l-168 233l168 231h155l-131 -232l130 -232h-154zM439 41l-168 233l168 231h155l-131 -232l130 -232h-154z" />
    <glyph glyph-name="logicalnot" unicode="&#xac;" horiz-adv-x="678" 
d="M453 321h-423v138h578v-398h-155v260z" />
    <glyph glyph-name="uni00AD" unicode="&#xad;" horiz-adv-x="439" 
d="M396 196h-353v139h353v-139z" />
    <glyph glyph-name="registered" unicode="&#xae;" horiz-adv-x="825" 
d="M38 361q0 165 108.5 271t266.5 106t266 -106t108 -271q0 -164 -108 -269t-266 -105q-159 0 -267 105t-108 269zM121 361q0 -131 84 -215t208 -84q126 0 208.5 84t82.5 215q0 134 -82 217.5t-209 83.5q-125 0 -208.5 -84t-83.5 -217zM349 318v-143h-108v400h160
q89 0 137.5 -29t48.5 -102q0 -81 -73 -110l97 -159h-120l-84 143h-58zM479 444q0 19 -13 33t-38 14h-79v-90h79q51 0 51 43z" />
    <glyph glyph-name="macron" unicode="&#xaf;" horiz-adv-x="357" 
d="M335 619h-313v107h313v-107z" />
    <glyph glyph-name="degree" unicode="&#xb0;" horiz-adv-x="373" 
d="M11 562q0 74 51.5 125t123.5 51q74 0 125.5 -51t51.5 -125q0 -72 -52 -124t-125 -52q-72 0 -123.5 52t-51.5 124zM113 562q0 -33 20.5 -56t52.5 -23q33 0 54.5 23t21.5 56t-21.5 56t-54.5 23q-32 0 -52.5 -23t-20.5 -56z" />
    <glyph glyph-name="plusminus" unicode="&#xb1;" horiz-adv-x="678" 
d="M264 420v118h151v-118h202v-138h-202v-118h-151v118h-203v138h203zM617 0h-556v139h556v-139z" />
    <glyph glyph-name="twosuperior" unicode="&#xb2;" horiz-adv-x="365" 
d="M188 853q69 0 111.5 -29.5t42.5 -87.5q0 -56 -41 -99.5t-132 -103.5h172v-95h-326v88q8 5 48.5 33t60.5 43t49.5 40t43 46t13.5 39q0 43 -47 43q-59 0 -63 -75h-105q1 75 46.5 116.5t126.5 41.5z" />
    <glyph glyph-name="threesuperior" unicode="&#xb3;" horiz-adv-x="386" 
d="M193 513q27 0 41 12t14 30q0 45 -80 45h-20v91h20q71 0 71 43q0 18 -14.5 27t-35.5 9q-24 0 -41.5 -13t-19.5 -36h-108q8 65 54 98.5t123 33.5q68 0 111 -29.5t43 -81.5q0 -62 -54 -90q30 -12 48 -37.5t18 -59.5q0 -58 -50 -91.5t-122 -33.5q-76 0 -122.5 37.5
t-53.5 104.5h107q11 -59 71 -59z" />
    <glyph glyph-name="acute" unicode="&#xb4;" horiz-adv-x="326" 
d="M304 725l-158 -116h-124l95 116h187z" />
    <glyph glyph-name="mu" unicode="&#xb5;" horiz-adv-x="629" 
d="M208 -175h-164q13 73 13 181v532h165v-288q0 -136 93 -136q94 0 94 136v288h163v-538h-163v47q-31 -53 -94 -53q-65 0 -95 53v-47q0 -109 -12 -175z" />
    <glyph glyph-name="mu" unicode="&#x3bc;" horiz-adv-x="629" 
d="M208 -175h-164q13 73 13 181v532h165v-288q0 -136 93 -136q94 0 94 136v288h163v-538h-163v47q-31 -53 -94 -53q-65 0 -95 53v-47q0 -109 -12 -175z" />
    <glyph glyph-name="paragraph" unicode="&#xb6;" horiz-adv-x="504" 
d="M0 554q0 80 62.5 125.5t165.5 45.5h213v-814h-82v738h-112v-738h-81v473q-67 7 -116.5 48t-49.5 122z" />
    <glyph glyph-name="periodcentered" unicode="&#xb7;" horiz-adv-x="282" 
d="M234 180h-186v178h186v-178z" />
    <glyph glyph-name="cedilla" unicode="&#xb8;" horiz-adv-x="277" 
d="M22 -187l17 54q24 -14 66 -14q48 0 48 29q0 28 -40 28q-24 0 -38 -9l-30 17l51 83h62l-33 -52q12 4 37 4q36 0 64.5 -16.5t28.5 -51.5q0 -44 -39.5 -65t-98.5 -21q-51 0 -95 14z" />
    <glyph glyph-name="onesuperior" unicode="&#xb9;" horiz-adv-x="249" 
d="M206 438h-110v265h-91v80q53 2 78 16t37 47h86v-408z" />
    <glyph glyph-name="ordmasculine" unicode="&#xba;" horiz-adv-x="364" 
d="M129 588q0 -37 14.5 -56t38.5 -19q52 0 52 75t-52 75q-24 0 -38.5 -19t-14.5 -56zM17 588q0 77 46.5 117.5t118.5 40.5q71 0 118 -40.5t47 -117.5t-47 -117.5t-118 -40.5q-72 0 -118.5 40.5t-46.5 117.5z" />
    <glyph glyph-name="guillemotright" unicode="&#xbb;" horiz-adv-x="615" 
d="M344 274l-168 -233h-154l130 232l-131 232h155zM605 274l-168 -233h-154l130 232l-131 232h155z" />
    <glyph glyph-name="onequarter" unicode="&#xbc;" horiz-adv-x="913" 
d="M206 317h-110v265h-91v80q53 2 78 16t37 47h86v-408zM215 0h-166l500 725h166zM727 274l-85 -99h85v99zM899 175v-94h-62v-81h-110v81h-196v84l209 243h97v-233h62z" />
    <glyph glyph-name="onehalf" unicode="&#xbd;" horiz-adv-x="880" 
d="M206 317h-110v265h-91v80q53 2 78 16t37 47h86v-408zM215 0h-166l500 725h166zM703 415q69 0 111.5 -29.5t42.5 -87.5q0 -56 -41 -99.5t-132 -103.5h172v-95h-326v88q8 5 48.5 33t60.5 43t49.5 40t43 46t13.5 39q0 43 -47 43q-59 0 -63 -75h-105q1 75 46.5 116.5
t126.5 41.5z" />
    <glyph glyph-name="threequarters" unicode="&#xbe;" horiz-adv-x="1050" 
d="M193 392q27 0 41 12t14 30q0 45 -80 45h-20v91h20q71 0 71 43q0 18 -14.5 27t-35.5 9q-24 0 -41.5 -13t-19.5 -36h-108q8 65 54 98.5t123 33.5q68 0 111 -29.5t43 -81.5q0 -62 -54 -90q30 -12 48 -37.5t18 -59.5q0 -58 -50 -91.5t-122 -33.5q-76 0 -122.5 37.5
t-53.5 104.5h107q11 -59 71 -59zM352 0h-166l500 725h166zM864 274l-85 -99h85v99zM1036 175v-94h-62v-81h-110v81h-196v84l209 243h97v-233h62z" />
    <glyph glyph-name="questiondown" unicode="&#xbf;" horiz-adv-x="624" 
d="M296 -187q-117 0 -197.5 47.5t-80.5 137.5q0 66 35 106t102 72q59 27 82.5 50t23.5 68v26h165q3 -15 3 -48q0 -69 -30 -106.5t-90 -68.5q-11 -6 -38.5 -18t-42 -19.5t-28 -20.5t-13.5 -28q0 -30 30 -48t81 -18q66 0 106 29t40 87h160q0 -116 -84.5 -182t-223.5 -66z
M438 360h-186v178h186v-178z" />
    <glyph glyph-name="Agrave" unicode="&#xc0;" horiz-adv-x="725" 
d="M-5 0l273 725h188l274 -725h-186l-44 129h-280l-43 -129h-182zM361 544l-94 -276h187zM289 773l-159 113h201l104 -113h-146z" />
    <glyph glyph-name="Aacute" unicode="&#xc1;" horiz-adv-x="725" 
d="M-5 0l273 725h188l274 -725h-186l-44 129h-280l-43 -129h-182zM361 544l-94 -276h187zM594 886l-159 -113h-146l103 113h202z" />
    <glyph glyph-name="Acircumflex" unicode="&#xc2;" horiz-adv-x="725" 
d="M-5 0l273 725h188l274 -725h-186l-44 129h-280l-43 -129h-182zM361 544l-94 -276h187zM445 886l137 -113h-164l-54 49l-59 -49h-162l140 113h162z" />
    <glyph glyph-name="Atilde" unicode="&#xc3;" horiz-adv-x="725" 
d="M-5 0l273 725h188l274 -725h-186l-44 129h-280l-43 -129h-182zM361 544l-94 -276h187zM423 849q47 0 54 37h97q-7 -36 -23.5 -60.5t-39 -35.5t-42 -15.5t-39.5 -4.5q-36 0 -74 18.5t-55 18.5q-46 0 -53 -37h-97q13 66 55 91t89 25q35 0 71.5 -18.5t56.5 -18.5z" />
    <glyph glyph-name="Adieresis" unicode="&#xc4;" horiz-adv-x="725" 
d="M-5 0l273 725h188l274 -725h-186l-44 129h-280l-43 -129h-182zM361 544l-94 -276h187zM174 886h147v-113h-147v113zM403 886h148v-113h-148v113z" />
    <glyph glyph-name="Aring" unicode="&#xc5;" horiz-adv-x="725" 
d="M-5 0l273 725h188l274 -725h-186l-44 129h-280l-43 -129h-182zM361 544l-94 -276h187zM362 935q39 0 65 -24t26 -61q0 -38 -26 -61.5t-65 -23.5t-64.5 23.5t-25.5 61.5q0 36 26.5 60.5t63.5 24.5zM362 893q-18 0 -30.5 -12.5t-12.5 -30.5t12.5 -30t30.5 -12t30.5 12
t12.5 30t-12.5 30.5t-30.5 12.5z" />
    <glyph glyph-name="AE" unicode="&#xc6;" horiz-adv-x="1102" 
d="M505 725h556v-150h-385v-127h363v-151h-363v-146h385v-151h-556v129h-253l-91 -129h-204zM505 485l-154 -217h154v217z" />
    <glyph glyph-name="Ccedilla" unicode="&#xc7;" horiz-adv-x="750" 
d="M562 270h168q-20 -127 -114.5 -205t-230.5 -78q-169 0 -266 101t-97 275q0 172 99 273t269 101q134 0 225.5 -79t109.5 -204h-168q-14 71 -61 106.5t-112 35.5q-78 0 -129.5 -62.5t-51.5 -170.5q0 -111 51 -173t132 -62q64 0 112.5 33t63.5 109zM260 -187l17 54
q24 -14 66 -14q48 0 48 29q0 28 -40 28q-24 0 -38 -9l-30 17l51 83h62l-33 -52q12 4 37 4q36 0 64.5 -16.5t28.5 -51.5q0 -44 -39.5 -65t-98.5 -21q-51 0 -95 14z" />
    <glyph glyph-name="Egrave" unicode="&#xc8;" horiz-adv-x="663" 
d="M66 0v725h556v-150h-385v-127h364v-151h-364v-146h385v-151h-556zM291 773l-159 113h201l104 -113h-146z" />
    <glyph glyph-name="Eacute" unicode="&#xc9;" horiz-adv-x="663" 
d="M66 0v725h556v-150h-385v-127h364v-151h-364v-146h385v-151h-556zM566 886l-159 -113h-146l103 113h202z" />
    <glyph glyph-name="Ecircumflex" unicode="&#xca;" horiz-adv-x="663" 
d="M66 0v725h556v-150h-385v-127h364v-151h-364v-146h385v-151h-556zM434 886l137 -113h-164l-54 49l-59 -49h-162l140 113h162z" />
    <glyph glyph-name="Edieresis" unicode="&#xcb;" horiz-adv-x="663" 
d="M66 0v725h556v-150h-385v-127h364v-151h-364v-146h385v-151h-556zM164 886h147v-113h-147v113zM393 886h148v-113h-148v113z" />
    <glyph glyph-name="Igrave" unicode="&#xcc;" horiz-adv-x="302" 
d="M237 725v-725h-171v725h171zM79 773l-159 113h201l104 -113h-146z" />
    <glyph glyph-name="Iacute" unicode="&#xcd;" horiz-adv-x="302" 
d="M237 725v-725h-171v725h171zM383 886l-159 -113h-146l103 113h202z" />
    <glyph glyph-name="Icircumflex" unicode="&#xce;" horiz-adv-x="302" 
d="M237 725v-725h-171v725h171zM235 886l137 -113h-164l-54 49l-59 -49h-162l140 113h162z" />
    <glyph glyph-name="Idieresis" unicode="&#xcf;" horiz-adv-x="302" 
d="M237 725v-725h-171v725h171zM-36 886h147v-113h-147v113zM193 886h148v-113h-148v113z" />
    <glyph glyph-name="Eth" unicode="&#xd0;" horiz-adv-x="784" 
d="M100 725h239q424 0 424 -362q0 -363 -424 -363h-239v292h-89v150h89v283zM582 363q0 69 -19 114.5t-55.5 67t-74.5 29t-91 7.5h-71v-139h105v-150h-105v-148h71q53 0 91 7.5t74.5 29.5t55.5 67.5t19 114.5z" />
    <glyph glyph-name="Ntilde" unicode="&#xd1;" horiz-adv-x="795" 
d="M730 0h-208l-291 500v-500h-165v725h208l291 -500v500h165v-725zM472 849q47 0 54 37h97q-7 -36 -23.5 -60.5t-39 -35.5t-42 -15.5t-39.5 -4.5q-36 0 -74 18.5t-55 18.5q-46 0 -53 -37h-97q13 66 55 91t89 25q35 0 71.5 -18.5t56.5 -18.5z" />
    <glyph glyph-name="Ograve" unicode="&#xd2;" horiz-adv-x="796" 
d="M203 362q0 -111 55.5 -172.5t139.5 -61.5t139.5 61.5t55.5 172.5t-55.5 172.5t-139.5 61.5t-139.5 -61.5t-55.5 -172.5zM774 362q0 -169 -104.5 -272t-271.5 -103q-168 0 -272 103t-104 272t104 272t272 103q167 0 271.5 -103t104.5 -272zM325 773l-159 113h201l104 -113
h-146z" />
    <glyph glyph-name="Oacute" unicode="&#xd3;" horiz-adv-x="796" 
d="M203 362q0 -111 55.5 -172.5t139.5 -61.5t139.5 61.5t55.5 172.5t-55.5 172.5t-139.5 61.5t-139.5 -61.5t-55.5 -172.5zM774 362q0 -169 -104.5 -272t-271.5 -103q-168 0 -272 103t-104 272t104 272t272 103q167 0 271.5 -103t104.5 -272zM630 886l-159 -113h-146
l103 113h202z" />
    <glyph glyph-name="Ocircumflex" unicode="&#xd4;" horiz-adv-x="796" 
d="M203 362q0 -111 55.5 -172.5t139.5 -61.5t139.5 61.5t55.5 172.5t-55.5 172.5t-139.5 61.5t-139.5 -61.5t-55.5 -172.5zM774 362q0 -169 -104.5 -272t-271.5 -103q-168 0 -272 103t-104 272t104 272t272 103q167 0 271.5 -103t104.5 -272zM481 886l137 -113h-164l-54 49
l-59 -49h-162l140 113h162z" />
    <glyph glyph-name="Otilde" unicode="&#xd5;" horiz-adv-x="796" 
d="M203 362q0 -111 55.5 -172.5t139.5 -61.5t139.5 61.5t55.5 172.5t-55.5 172.5t-139.5 61.5t-139.5 -61.5t-55.5 -172.5zM774 362q0 -169 -104.5 -272t-271.5 -103q-168 0 -272 103t-104 272t104 272t272 103q167 0 271.5 -103t104.5 -272zM459 849q47 0 54 37h97
q-7 -36 -23.5 -60.5t-39 -35.5t-42 -15.5t-39.5 -4.5q-36 0 -74 18.5t-55 18.5q-46 0 -53 -37h-97q13 66 55 91t89 25q35 0 71.5 -18.5t56.5 -18.5z" />
    <glyph glyph-name="Odieresis" unicode="&#xd6;" horiz-adv-x="796" 
d="M203 362q0 -111 55.5 -172.5t139.5 -61.5t139.5 61.5t55.5 172.5t-55.5 172.5t-139.5 61.5t-139.5 -61.5t-55.5 -172.5zM774 362q0 -169 -104.5 -272t-271.5 -103q-168 0 -272 103t-104 272t104 272t272 103q167 0 271.5 -103t104.5 -272zM210 886h147v-113h-147v113z
M439 886h148v-113h-148v113z" />
    <glyph glyph-name="multiply" unicode="&#xd7;" horiz-adv-x="678" 
d="M602 130l-115 -110l-147 140l-156 -147l-114 108l155 149l-150 141l116 109l149 -142l154 148l115 -110l-155 -146z" />
    <glyph glyph-name="Oslash" unicode="&#xd8;" horiz-adv-x="795" 
d="M774 362q0 -169 -104.5 -272t-271.5 -103q-133 0 -225 64l-60 -71l-54 47l60 70q-97 100 -97 265q0 169 104 272t272 103q125 0 216 -59l48 57l56 -46l-48 -56q104 -101 104 -271zM593 362q0 83 -34 141l-283 -331q53 -44 122 -44q84 0 139.5 61.5t55.5 172.5zM203 362
q0 -78 28 -133l280 329q-50 38 -113 38q-84 0 -139.5 -61.5t-55.5 -172.5z" />
    <glyph glyph-name="Ugrave" unicode="&#xd9;" horiz-adv-x="735" 
d="M54 725h171v-433q0 -86 30 -125.5t114 -39.5t112.5 43t28.5 132v423h171v-409q0 -170 -72.5 -249.5t-239.5 -79.5q-166 0 -240.5 73.5t-74.5 249.5v415zM294 773l-159 113h201l104 -113h-146z" />
    <glyph glyph-name="Uacute" unicode="&#xda;" horiz-adv-x="735" 
d="M54 725h171v-433q0 -86 30 -125.5t114 -39.5t112.5 43t28.5 132v423h171v-409q0 -170 -72.5 -249.5t-239.5 -79.5q-166 0 -240.5 73.5t-74.5 249.5v415zM599 886l-159 -113h-146l103 113h202z" />
    <glyph glyph-name="Ucircumflex" unicode="&#xdb;" horiz-adv-x="735" 
d="M54 725h171v-433q0 -86 30 -125.5t114 -39.5t112.5 43t28.5 132v423h171v-409q0 -170 -72.5 -249.5t-239.5 -79.5q-166 0 -240.5 73.5t-74.5 249.5v415zM450 886l137 -113h-164l-54 49l-59 -49h-162l140 113h162z" />
    <glyph glyph-name="Udieresis" unicode="&#xdc;" horiz-adv-x="735" 
d="M54 725h171v-433q0 -86 30 -125.5t114 -39.5t112.5 43t28.5 132v423h171v-409q0 -170 -72.5 -249.5t-239.5 -79.5q-166 0 -240.5 73.5t-74.5 249.5v415zM179 886h147v-113h-147v113zM408 886h148v-113h-148v113z" />
    <glyph glyph-name="Yacute" unicode="&#xdd;" horiz-adv-x="692" 
d="M-16 725h200l162 -278l164 278h198l-280 -445v-280h-171v282zM578 886l-159 -113h-146l103 113h202z" />
    <glyph glyph-name="Thorn" unicode="&#xde;" horiz-adv-x="637" 
d="M228 609h96q60 0 107 -6t90 -22t71 -42.5t44.5 -68.5t16.5 -98q0 -69 -24 -116.5t-70.5 -72.5t-102.5 -35.5t-132 -10.5h-96v-137h-172v725h172v-116zM329 458h-101v-171h101q71 0 107 16.5t36 68.5q0 37 -20.5 56.5t-48.5 24.5t-74 5z" />
    <glyph glyph-name="germandbls" unicode="&#xdf;" horiz-adv-x="679" 
d="M223 0h-166v473q0 139 76 202q77 62 222 62q115 0 187 -52.5t72 -148.5q0 -85 -57 -134q103 -56 103 -181q0 -114 -71.5 -174t-191.5 -60q-83 0 -145 19l35 135q49 -17 97 -17q44 0 75.5 24.5t31.5 66.5q0 108 -147 108h-33v128h28q116 0 116 77q0 34 -26 55t-78 21
q-73 0 -102 -34q-26 -29 -26 -109v-461z" />
    <glyph glyph-name="agrave" unicode="&#xe0;" horiz-adv-x="597" 
d="M388 336v21q0 47 -22 66.5t-69 19.5q-85 0 -96 -79h-154q6 80 77.5 135.5t186.5 55.5q120 0 181 -53.5t59 -172.5l-2 -117v-56q0 -105 12 -156h-162l-2 65q-55 -78 -181 -78q-79 0 -132.5 43t-53.5 115q0 48 25.5 83t76 56.5t111.5 33.5t145 18zM392 226v13
q-49 -5 -79.5 -9.5t-58.5 -13.5t-41 -23.5t-13 -35.5q0 -26 21.5 -42t54.5 -16q116 0 116 127zM254 609l-158 116h187l95 -116h-124z" />
    <glyph glyph-name="aacute" unicode="&#xe1;" horiz-adv-x="597" 
d="M388 336v21q0 47 -22 66.5t-69 19.5q-85 0 -96 -79h-154q6 80 77.5 135.5t186.5 55.5q120 0 181 -53.5t59 -172.5l-2 -117v-56q0 -105 12 -156h-162l-2 65q-55 -78 -181 -78q-79 0 -132.5 43t-53.5 115q0 48 25.5 83t76 56.5t111.5 33.5t145 18zM392 226v13
q-49 -5 -79.5 -9.5t-58.5 -13.5t-41 -23.5t-13 -35.5q0 -26 21.5 -42t54.5 -16q116 0 116 127zM515 725l-158 -116h-124l95 116h187z" />
    <glyph glyph-name="acircumflex" unicode="&#xe2;" horiz-adv-x="597" 
d="M388 336v21q0 47 -22 66.5t-69 19.5q-85 0 -96 -79h-154q6 80 77.5 135.5t186.5 55.5q120 0 181 -53.5t59 -172.5l-2 -117v-56q0 -105 12 -156h-162l-2 65q-55 -78 -181 -78q-79 0 -132.5 43t-53.5 115q0 48 25.5 83t76 56.5t111.5 33.5t145 18zM392 226v13
q-49 -5 -79.5 -9.5t-58.5 -13.5t-41 -23.5t-13 -35.5q0 -26 21.5 -42t54.5 -16q116 0 116 127zM384 725l136 -116h-150l-62 46l-63 -46h-152l141 116h150z" />
    <glyph glyph-name="atilde" unicode="&#xe3;" horiz-adv-x="597" 
d="M388 336v21q0 47 -22 66.5t-69 19.5q-85 0 -96 -79h-154q6 80 77.5 135.5t186.5 55.5q120 0 181 -53.5t59 -172.5l-2 -117v-56q0 -105 12 -156h-162l-2 65q-55 -78 -181 -78q-79 0 -132.5 43t-53.5 115q0 48 25.5 83t76 56.5t111.5 33.5t145 18zM392 226v13
q-49 -5 -79.5 -9.5t-58.5 -13.5t-41 -23.5t-13 -35.5q0 -26 21.5 -42t54.5 -16q116 0 116 127zM365 692q44 0 53 44h97q-23 -127 -135 -127q-38 0 -79.5 22t-57.5 22q-43 0 -51 -44h-97q21 127 136 127q36 0 75 -22t59 -22z" />
    <glyph glyph-name="adieresis" unicode="&#xe4;" horiz-adv-x="597" 
d="M388 336v21q0 47 -22 66.5t-69 19.5q-85 0 -96 -79h-154q6 80 77.5 135.5t186.5 55.5q120 0 181 -53.5t59 -172.5l-2 -117v-56q0 -105 12 -156h-162l-2 65q-55 -78 -181 -78q-79 0 -132.5 43t-53.5 115q0 48 25.5 83t76 56.5t111.5 33.5t145 18zM392 226v13
q-49 -5 -79.5 -9.5t-58.5 -13.5t-41 -23.5t-13 -35.5q0 -26 21.5 -42t54.5 -16q116 0 116 127zM110 598v127h148v-127h-148zM334 725h147v-127h-147v127z" />
    <glyph glyph-name="aring" unicode="&#xe5;" horiz-adv-x="597" 
d="M388 336v21q0 47 -22 66.5t-69 19.5q-85 0 -96 -79h-154q6 80 77.5 135.5t186.5 55.5q120 0 181 -53.5t59 -172.5l-2 -117v-56q0 -105 12 -156h-162l-2 65q-55 -78 -181 -78q-79 0 -132.5 43t-53.5 115q0 48 25.5 83t76 56.5t111.5 33.5t145 18zM392 226v13
q-49 -5 -79.5 -9.5t-58.5 -13.5t-41 -23.5t-13 -35.5q0 -26 21.5 -42t54.5 -16q116 0 116 127zM304 785q39 0 66.5 -25.5t27.5 -63.5t-27.5 -63.5t-66.5 -25.5q-40 0 -67.5 25t-27.5 64q0 38 27.5 63.5t67.5 25.5zM304 737q-17 0 -29 -11.5t-12 -29.5q0 -17 12 -28.5
t29 -11.5t29 11.5t12 28.5q0 18 -12 29.5t-29 11.5z" />
    <glyph glyph-name="ae" unicode="&#xe6;" horiz-adv-x="966" 
d="M784 169h152q-34 -90 -107 -136t-159 -46q-145 0 -218 99q-57 -99 -219 -99q-89 0 -146 41t-57 113q0 32 12.5 58.5t38.5 46t56 34t74.5 26t83.5 19t93 15.5v17q0 47 -22 66.5t-69 19.5q-85 0 -96 -79h-154q6 79 77.5 134t186.5 55q121 0 174 -65q74 64 175 64
q135 0 210.5 -90t67.5 -235h-395q4 -54 39 -83t83 -29q87 0 119 54zM392 246l-66 -14q-65 -12 -95.5 -28.5t-30.5 -48.5q0 -26 21.5 -41t54.5 -15q116 0 116 127v20zM660 427q-102 0 -115 -100h229q-2 47 -33.5 73.5t-80.5 26.5z" />
    <glyph glyph-name="ccedilla" unicode="&#xe7;" horiz-adv-x="596" 
d="M302 554q61 0 112.5 -18.5t95.5 -68t59 -126.5h-154q-20 85 -103 85q-50 0 -83.5 -37.5t-33.5 -117.5q0 -81 33.5 -118.5t83.5 -37.5q90 0 110 83h154q-26 -110 -103 -160.5t-171 -50.5q-131 0 -203 77t-72 208q0 128 76 205t199 77zM185 -187l17 54q24 -14 66 -14
q48 0 48 29q0 28 -40 28q-24 0 -38 -9l-30 17l51 83h62l-33 -52q12 4 37 4q36 0 64.5 -16.5t28.5 -51.5q0 -44 -39.5 -65t-98.5 -21q-51 0 -95 14z" />
    <glyph glyph-name="egrave" unicode="&#xe8;" horiz-adv-x="620" 
d="M438 169h152q-34 -90 -108 -136t-160 -46q-133 0 -214 76.5t-81 208.5q0 126 83.5 204t204.5 78q133 0 209 -91t68 -236h-399q4 -54 39.5 -83t84.5 -29q89 0 121 54zM315 428q-47 0 -80.5 -25t-39.5 -76h233q-2 49 -33 75t-80 26zM247 609l-158 116h187l95 -116h-124z
" />
    <glyph glyph-name="eacute" unicode="&#xe9;" horiz-adv-x="620" 
d="M438 169h152q-34 -90 -108 -136t-160 -46q-133 0 -214 76.5t-81 208.5q0 126 83.5 204t204.5 78q133 0 209 -91t68 -236h-399q4 -54 39.5 -83t84.5 -29q89 0 121 54zM315 428q-47 0 -80.5 -25t-39.5 -76h233q-2 49 -33 75t-80 26zM529 725l-158 -116h-124l95 116h187z
" />
    <glyph glyph-name="ecircumflex" unicode="&#xea;" horiz-adv-x="620" 
d="M438 169h152q-34 -90 -108 -136t-160 -46q-133 0 -214 76.5t-81 208.5q0 126 83.5 204t204.5 78q133 0 209 -91t68 -236h-399q4 -54 39.5 -83t84.5 -29q89 0 121 54zM315 428q-47 0 -80.5 -25t-39.5 -76h233q-2 49 -33 75t-80 26zM391 725l136 -116h-150l-62 46l-63 -46
h-152l141 116h150z" />
    <glyph glyph-name="edieresis" unicode="&#xeb;" horiz-adv-x="620" 
d="M438 169h152q-34 -90 -108 -136t-160 -46q-133 0 -214 76.5t-81 208.5q0 126 83.5 204t204.5 78q133 0 209 -91t68 -236h-399q4 -54 39.5 -83t84.5 -29q89 0 121 54zM315 428q-47 0 -80.5 -25t-39.5 -76h233q-2 49 -33 75t-80 26zM124 598v127h148v-127h-148zM348 725
h147v-127h-147v127z" />
    <glyph glyph-name="igrave" unicode="&#xec;" horiz-adv-x="284" 
d="M59 538h166v-538h-166v538zM81 609l-158 116h187l95 -116h-124z" />
    <glyph glyph-name="iacute" unicode="&#xed;" horiz-adv-x="284" 
d="M59 538h166v-538h-166v538zM362 725l-158 -116h-124l95 116h187z" />
    <glyph glyph-name="icircumflex" unicode="&#xee;" horiz-adv-x="284" 
d="M59 538h166v-538h-166v538zM221 725l136 -116h-150l-62 46l-63 -46h-152l141 116h150z" />
    <glyph glyph-name="idieresis" unicode="&#xef;" horiz-adv-x="284" 
d="M59 538h166v-538h-166v538zM-42 598v127h148v-127h-148zM182 725h147v-127h-147v127z" />
    <glyph glyph-name="eth" unicode="&#xf0;" horiz-adv-x="623" 
d="M368 718l71 43l58 -28l-82 -49q83 -68 132 -164.5t49 -208.5q0 -155 -80.5 -239.5t-212.5 -84.5q-127 0 -201.5 75.5t-74.5 201.5q0 127 68 206.5t168 79.5q52 0 96.5 -24t68.5 -61l1 1q-23 79 -123 152l-67 -40l-57 27l76 46q-44 27 -87 46l125 59q42 -19 72 -38z
M315 422q-52 0 -85.5 -40t-33.5 -113t33.5 -113.5t85.5 -40.5t85 37.5t33 116.5q0 78 -33 115.5t-85 37.5z" />
    <glyph glyph-name="ntilde" unicode="&#xf1;" horiz-adv-x="621" 
d="M224 538v-71q20 34 64 58.5t103 24.5q100 0 140.5 -56t40.5 -171v-323h-165v282q0 28 -1 44.5t-5.5 37.5t-13 31.5t-24.5 18.5t-39 8q-53 0 -76.5 -35t-23.5 -111v-276h-165v538h165zM385 692q44 0 53 44h97q-23 -127 -135 -127q-38 0 -79.5 22t-57.5 22q-43 0 -51 -44
h-97q21 127 136 127q36 0 75 -22t59 -22z" />
    <glyph glyph-name="ograve" unicode="&#xf2;" horiz-adv-x="624" 
d="M312 426q-53 0 -85 -37t-32 -118t31.5 -118.5t85.5 -37.5t85.5 37.5t31.5 118.5t-32 118t-85 37zM312 554q121 0 203 -72.5t82 -210.5t-82 -211t-203 -73t-203 73t-82 211t82 210.5t203 72.5zM250 609l-158 116h187l95 -116h-124z" />
    <glyph glyph-name="oacute" unicode="&#xf3;" horiz-adv-x="624" 
d="M312 426q-53 0 -85 -37t-32 -118t31.5 -118.5t85.5 -37.5t85.5 37.5t31.5 118.5t-32 118t-85 37zM312 554q121 0 203 -72.5t82 -210.5t-82 -211t-203 -73t-203 73t-82 211t82 210.5t203 72.5zM532 725l-158 -116h-124l95 116h187z" />
    <glyph glyph-name="ocircumflex" unicode="&#xf4;" horiz-adv-x="624" 
d="M312 426q-53 0 -85 -37t-32 -118t31.5 -118.5t85.5 -37.5t85.5 37.5t31.5 118.5t-32 118t-85 37zM312 554q121 0 203 -72.5t82 -210.5t-82 -211t-203 -73t-203 73t-82 211t82 210.5t203 72.5zM390 725l136 -116h-150l-62 46l-63 -46h-152l141 116h150z" />
    <glyph glyph-name="otilde" unicode="&#xf5;" horiz-adv-x="624" 
d="M312 426q-53 0 -85 -37t-32 -118t31.5 -118.5t85.5 -37.5t85.5 37.5t31.5 118.5t-32 118t-85 37zM312 554q121 0 203 -72.5t82 -210.5t-82 -211t-203 -73t-203 73t-82 211t82 210.5t203 72.5zM372 692q44 0 53 44h97q-23 -127 -135 -127q-38 0 -79.5 22t-57.5 22
q-43 0 -51 -44h-97q21 127 136 127q36 0 75 -22t59 -22z" />
    <glyph glyph-name="odieresis" unicode="&#xf6;" horiz-adv-x="624" 
d="M312 426q-53 0 -85 -37t-32 -118t31.5 -118.5t85.5 -37.5t85.5 37.5t31.5 118.5t-32 118t-85 37zM312 554q121 0 203 -72.5t82 -210.5t-82 -211t-203 -73t-203 73t-82 211t82 210.5t203 72.5zM127 598v127h148v-127h-148zM351 725h147v-127h-147v127z" />
    <glyph glyph-name="divide" unicode="&#xf7;" horiz-adv-x="678" 
d="M246 0v178h186v-178h-186zM246 360v178h186v-178h-186zM628 199h-578v139h578v-139z" />
    <glyph glyph-name="oslash" unicode="&#xf8;" horiz-adv-x="624" 
d="M312 554q95 0 168 -46l45 52l50 -44l-44 -51q66 -78 66 -194q0 -138 -82 -211t-203 -73q-91 0 -160 41l-56 -64l-49 45l52 60q-72 77 -72 202q0 138 82 210.5t203 72.5zM312 426q-53 0 -85 -37t-32 -118q0 -44 11 -79l180 208q-27 26 -74 26zM429 271q0 35 -8 67
l-177 -203q28 -20 68 -20q54 0 85.5 37.5t31.5 118.5z" />
    <glyph glyph-name="ugrave" unicode="&#xf9;" horiz-adv-x="617" 
d="M392 0v75q-27 -43 -63 -65.5t-95 -22.5q-103 0 -144.5 56t-41.5 171v324h165v-283q0 -29 1 -45t5 -37t12.5 -31.5t24.5 -18.5t39 -8q53 0 75 32t22 107v284h165v-538h-165zM250 609l-158 116h187l95 -116h-124z" />
    <glyph glyph-name="uacute" unicode="&#xfa;" horiz-adv-x="617" 
d="M392 0v75q-27 -43 -63 -65.5t-95 -22.5q-103 0 -144.5 56t-41.5 171v324h165v-283q0 -29 1 -45t5 -37t12.5 -31.5t24.5 -18.5t39 -8q53 0 75 32t22 107v284h165v-538h-165zM512 725l-158 -116h-124l95 116h187z" />
    <glyph glyph-name="ucircumflex" unicode="&#xfb;" horiz-adv-x="617" 
d="M392 0v75q-27 -43 -63 -65.5t-95 -22.5q-103 0 -144.5 56t-41.5 171v324h165v-283q0 -29 1 -45t5 -37t12.5 -31.5t24.5 -18.5t39 -8q53 0 75 32t22 107v284h165v-538h-165zM380 725l136 -116h-150l-62 46l-63 -46h-152l141 116h150z" />
    <glyph glyph-name="udieresis" unicode="&#xfc;" horiz-adv-x="617" 
d="M392 0v75q-27 -43 -63 -65.5t-95 -22.5q-103 0 -144.5 56t-41.5 171v324h165v-283q0 -29 1 -45t5 -37t12.5 -31.5t24.5 -18.5t39 -8q53 0 75 32t22 107v284h165v-538h-165zM117 598v127h148v-127h-148zM341 725h147v-127h-147v127z" />
    <glyph glyph-name="yacute" unicode="&#xfd;" horiz-adv-x="563" 
d="M118 -175h-53v119h33q52 0 69 7.5t29 37.5l5 14l-201 535h181l99 -337l106 337h177l-211 -538q-41 -105 -86 -140t-148 -35zM501 725l-158 -116h-124l95 116h187z" />
    <glyph glyph-name="thorn" unicode="&#xfe;" horiz-adv-x="650" 
d="M224 725v-260q23 43 69.5 64t95.5 21q106 0 171.5 -75.5t65.5 -205.5t-65.5 -206t-171.5 -76q-49 0 -95.5 21t-69.5 64v-247h-165v900h165zM335 422q-52 0 -85.5 -37.5t-33.5 -115.5t33.5 -116t85.5 -38t86 41t34 113t-34 112.5t-86 40.5z" />
    <glyph glyph-name="ydieresis" unicode="&#xff;" horiz-adv-x="563" 
d="M118 -175h-53v119h33q52 0 69 7.5t29 37.5l5 14l-201 535h181l99 -337l106 337h177l-211 -538q-41 -105 -86 -140t-148 -35zM96 598v127h148v-127h-148zM320 725h147v-127h-147v127z" />
    <glyph glyph-name="Amacron" unicode="&#x100;" horiz-adv-x="725" 
d="M-5 0l273 725h188l274 -725h-186l-44 129h-280l-43 -129h-182zM361 544l-94 -276h187zM530 793h-335v95h335v-95z" />
    <glyph glyph-name="amacron" unicode="&#x101;" horiz-adv-x="597" 
d="M388 336v21q0 47 -22 66.5t-69 19.5q-85 0 -96 -79h-154q6 80 77.5 135.5t186.5 55.5q120 0 181 -53.5t59 -172.5l-2 -117v-56q0 -105 12 -156h-162l-2 65q-55 -78 -181 -78q-79 0 -132.5 43t-53.5 115q0 48 25.5 83t76 56.5t111.5 33.5t145 18zM392 226v13
q-49 -5 -79.5 -9.5t-58.5 -13.5t-41 -23.5t-13 -35.5q0 -26 21.5 -42t54.5 -16q116 0 116 127zM462 619h-313v107h313v-107z" />
    <glyph glyph-name="Abreve" unicode="&#x102;" horiz-adv-x="725" 
d="M-5 0l273 725h188l274 -725h-186l-44 129h-280l-43 -129h-182zM361 544l-94 -276h187zM435 886h118q-6 -62 -52 -90t-140 -28q-92 0 -138.5 28t-51.5 90h118q7 -47 72 -47q67 0 74 47z" />
    <glyph glyph-name="abreve" unicode="&#x103;" horiz-adv-x="597" 
d="M388 336v21q0 47 -22 66.5t-69 19.5q-85 0 -96 -79h-154q6 80 77.5 135.5t186.5 55.5q120 0 181 -53.5t59 -172.5l-2 -117v-56q0 -105 12 -156h-162l-2 65q-55 -78 -181 -78q-79 0 -132.5 43t-53.5 115q0 48 25.5 83t76 56.5t111.5 33.5t145 18zM392 226v13
q-49 -5 -79.5 -9.5t-58.5 -13.5t-41 -23.5t-13 -35.5q0 -26 21.5 -42t54.5 -16q116 0 116 127zM361 725h108q-7 -51 -49 -86t-122 -35q-78 0 -121 35.5t-47 85.5h108q8 -40 61 -40q26 0 42.5 11.5t19.5 28.5z" />
    <glyph glyph-name="Aogonek" unicode="&#x104;" horiz-adv-x="725" 
d="M-5 0l273 725h188l274 -725q-44 -22 -66 -39.5t-22 -38.5q0 -38 39 -38q22 0 49 9v-81q-32 -10 -91 -10q-53 0 -95 28.5t-42 79.5q0 42 42 90l-44 129h-280l-43 -129h-182zM361 544l-94 -276h187z" />
    <glyph glyph-name="aogonek" unicode="&#x105;" horiz-adv-x="597" 
d="M388 336v21q0 47 -22 66.5t-69 19.5q-85 0 -96 -79h-154q6 80 77.5 135.5t186.5 55.5q120 0 181 -53.5t59 -172.5l-2 -117v-56q0 -105 12 -156l-16 -8t-15.5 -7.5t-14 -6.5t-13 -7t-10 -7t-8.5 -7t-6.5 -7.5t-4.5 -8.5t-1 -9q0 -36 40 -36q19 0 48 9v-82q-38 -11 -77 -11
q-64 0 -110 24.5t-46 71.5q0 50 72 92l-2 65q-55 -78 -181 -78q-79 0 -132.5 43t-53.5 115q0 48 25.5 83t76 56.5t111.5 33.5t145 18zM392 226v13q-49 -5 -79.5 -9.5t-58.5 -13.5t-41 -23.5t-13 -35.5q0 -26 21.5 -42t54.5 -16q116 0 116 127z" />
    <glyph glyph-name="Cacute" unicode="&#x106;" horiz-adv-x="750" 
d="M562 270h168q-20 -127 -114.5 -205t-230.5 -78q-169 0 -266 101t-97 275q0 172 99 273t269 101q134 0 225.5 -79t109.5 -204h-168q-14 71 -61 106.5t-112 35.5q-78 0 -129.5 -62.5t-51.5 -170.5q0 -111 51 -173t132 -62q64 0 112.5 33t63.5 109zM608 886l-159 -113h-146
l103 113h202z" />
    <glyph glyph-name="cacute" unicode="&#x107;" horiz-adv-x="596" 
d="M302 554q61 0 112.5 -18.5t95.5 -68t59 -126.5h-154q-20 85 -103 85q-50 0 -83.5 -37.5t-33.5 -117.5q0 -81 33.5 -118.5t83.5 -37.5q90 0 110 83h154q-26 -110 -103 -160.5t-171 -50.5q-131 0 -203 77t-72 208q0 128 76 205t199 77zM521 725l-158 -116h-124l95 116h187z
" />
    <glyph glyph-name="Ccircumflex" unicode="&#x108;" horiz-adv-x="750" 
d="M562 270h168q-20 -127 -114.5 -205t-230.5 -78q-169 0 -266 101t-97 275q0 172 99 273t269 101q134 0 225.5 -79t109.5 -204h-168q-14 71 -61 106.5t-112 35.5q-78 0 -129.5 -62.5t-51.5 -170.5q0 -111 51 -173t132 -62q64 0 112.5 33t63.5 109zM472 886l137 -113h-164
l-54 49l-59 -49h-162l140 113h162z" />
    <glyph glyph-name="ccircumflex" unicode="&#x109;" horiz-adv-x="596" 
d="M302 554q61 0 112.5 -18.5t95.5 -68t59 -126.5h-154q-20 85 -103 85q-50 0 -83.5 -37.5t-33.5 -117.5q0 -81 33.5 -118.5t83.5 -37.5q90 0 110 83h154q-26 -110 -103 -160.5t-171 -50.5q-131 0 -203 77t-72 208q0 128 76 205t199 77zM382 725l136 -116h-150l-62 46
l-63 -46h-152l141 116h150z" />
    <glyph glyph-name="Cdotaccent" unicode="&#x10a;" horiz-adv-x="750" 
d="M562 270h168q-20 -127 -114.5 -205t-230.5 -78q-169 0 -266 101t-97 275q0 172 99 273t269 101q134 0 225.5 -79t109.5 -204h-168q-14 71 -61 106.5t-112 35.5q-78 0 -129.5 -62.5t-51.5 -170.5q0 -111 51 -173t132 -62q64 0 112.5 33t63.5 109zM306 886h171v-113h-171
v113z" />
    <glyph glyph-name="cdotaccent" unicode="&#x10b;" horiz-adv-x="596" 
d="M302 554q61 0 112.5 -18.5t95.5 -68t59 -126.5h-154q-20 85 -103 85q-50 0 -83.5 -37.5t-33.5 -117.5q0 -81 33.5 -118.5t83.5 -37.5q90 0 110 83h154q-26 -110 -103 -160.5t-171 -50.5q-131 0 -203 77t-72 208q0 128 76 205t199 77zM227 725h148v-116h-148v116z" />
    <glyph glyph-name="Ccaron" unicode="&#x10c;" horiz-adv-x="750" 
d="M562 270h168q-20 -127 -114.5 -205t-230.5 -78q-169 0 -266 101t-97 275q0 172 99 273t269 101q134 0 225.5 -79t109.5 -204h-168q-14 71 -61 106.5t-112 35.5q-78 0 -129.5 -62.5t-51.5 -170.5q0 -111 51 -173t132 -62q64 0 112.5 33t63.5 109zM308 773l-137 113h164
l54 -50l59 50h162l-140 -113h-162z" />
    <glyph glyph-name="ccaron" unicode="&#x10d;" horiz-adv-x="596" 
d="M302 554q61 0 112.5 -18.5t95.5 -68t59 -126.5h-154q-20 85 -103 85q-50 0 -83.5 -37.5t-33.5 -117.5q0 -81 33.5 -118.5t83.5 -37.5q90 0 110 83h154q-26 -110 -103 -160.5t-171 -50.5q-131 0 -203 77t-72 208q0 128 76 205t199 77zM225 609l-137 116h151l61 -46l63 46
h152l-141 -116h-149z" />
    <glyph glyph-name="Dcaron" unicode="&#x10e;" horiz-adv-x="750" 
d="M548 363q0 69 -19 114.5t-55.5 67t-74.5 29t-91 7.5h-71v-437h71q53 0 91 7.5t74.5 29.5t55.5 67.5t19 114.5zM66 725h239q424 0 424 -362q0 -363 -424 -363h-239v725zM295 773l-137 113h164l54 -50l59 50h162l-140 -113h-162z" />
    <glyph glyph-name="dcaron" unicode="&#x10f;" horiz-adv-x="782" 
d="M802 725l-59 -170h-112l20 170h151zM426 725h165v-725h-165v72q-25 -42 -71 -63.5t-94 -21.5q-106 0 -171.5 76t-65.5 206t65.5 205.5t171.5 75.5q48 0 94 -21.5t71 -63.5v260zM315 422q-52 0 -86 -40.5t-34 -112.5t34 -113t86 -41q53 0 86 37.5t33 116.5t-33 116t-86 37
z" />
    <glyph glyph-name="Dcroat" unicode="&#x110;" horiz-adv-x="784" 
d="M100 725h239q424 0 424 -362q0 -363 -424 -363h-239v292h-89v150h89v283zM582 363q0 69 -19 114.5t-55.5 67t-74.5 29t-91 7.5h-71v-139h105v-150h-105v-148h71q53 0 91 7.5t74.5 29.5t55.5 67.5t19 114.5z" />
    <glyph glyph-name="dcroat" unicode="&#x111;" horiz-adv-x="655" 
d="M426 725h165v-73h64v-87h-64v-565h-165v72q-25 -42 -71 -63.5t-94 -21.5q-106 0 -171.5 76t-65.5 206t65.5 205.5t171.5 75.5q48 0 94 -21.5t71 -63.5v100h-118v87h118v73zM315 422q-52 0 -86 -40.5t-34 -112.5t34 -113t86 -41q53 0 86 37.5t33 116.5t-33 116t-86 37z
" />
    <glyph glyph-name="Emacron" unicode="&#x112;" horiz-adv-x="663" 
d="M66 0v725h556v-150h-385v-127h364v-151h-364v-146h385v-151h-556zM515 793h-335v95h335v-95z" />
    <glyph glyph-name="emacron" unicode="&#x113;" horiz-adv-x="620" 
d="M438 169h152q-34 -90 -108 -136t-160 -46q-133 0 -214 76.5t-81 208.5q0 126 83.5 204t204.5 78q133 0 209 -91t68 -236h-399q4 -54 39.5 -83t84.5 -29q89 0 121 54zM315 428q-47 0 -80.5 -25t-39.5 -76h233q-2 49 -33 75t-80 26zM466 619h-313v107h313v-107z" />
    <glyph glyph-name="Ebreve" unicode="&#x114;" horiz-adv-x="663" 
d="M66 0v725h556v-150h-385v-127h364v-151h-364v-146h385v-151h-556zM420 886h118q-6 -62 -52 -90t-140 -28q-92 0 -138.5 28t-51.5 90h118q7 -47 72 -47q67 0 74 47z" />
    <glyph glyph-name="ebreve" unicode="&#x115;" horiz-adv-x="620" 
d="M438 169h152q-34 -90 -108 -136t-160 -46q-133 0 -214 76.5t-81 208.5q0 126 83.5 204t204.5 78q133 0 209 -91t68 -236h-399q4 -54 39.5 -83t84.5 -29q89 0 121 54zM315 428q-47 0 -80.5 -25t-39.5 -76h233q-2 49 -33 75t-80 26zM371 725h108q-7 -51 -49 -86t-122 -35
q-78 0 -121 35.5t-47 85.5h108q8 -40 61 -40q26 0 42.5 11.5t19.5 28.5z" />
    <glyph glyph-name="Edotaccent" unicode="&#x116;" horiz-adv-x="663" 
d="M66 0v725h556v-150h-385v-127h364v-151h-364v-146h385v-151h-556zM259 886h171v-113h-171v113z" />
    <glyph glyph-name="edotaccent" unicode="&#x117;" horiz-adv-x="620" 
d="M438 169h152q-34 -90 -108 -136t-160 -46q-133 0 -214 76.5t-81 208.5q0 126 83.5 204t204.5 78q133 0 209 -91t68 -236h-399q4 -54 39.5 -83t84.5 -29q89 0 121 54zM315 428q-47 0 -80.5 -25t-39.5 -76h233q-2 49 -33 75t-80 26zM235 725h148v-116h-148v116z" />
    <glyph glyph-name="Eogonek" unicode="&#x118;" horiz-adv-x="663" 
d="M66 0v725h556v-150h-385v-127h364v-151h-364v-146h385v-151h-556zM451 0h170q-27 -13 -37.5 -18.5t-28.5 -16t-25 -19t-7 -17.5q0 -35 50 -35q19 0 49 10v-82q-32 -10 -86 -10q-61 0 -107.5 24.5t-46.5 71.5q0 53 69 92z" />
    <glyph glyph-name="eogonek" unicode="&#x119;" horiz-adv-x="620" 
d="M481 -94v-82q-38 -11 -77 -11q-65 0 -110.5 22.5t-45.5 69.5q0 41 42 83q-120 10 -191.5 85.5t-71.5 198.5q0 126 83.5 204t204.5 78q127 0 202.5 -83.5t75.5 -217.5v-13q0 -8 -1 -13h-399q4 -54 40 -83t84 -29q89 0 121 54h152q-29 -74 -95 -127q-102 -77 -102 -109
q0 -36 40 -36q19 0 48 9zM315 428q-47 0 -80.5 -25t-39.5 -76h233q-2 49 -33 75t-80 26z" />
    <glyph glyph-name="Ecaron" unicode="&#x11a;" horiz-adv-x="663" 
d="M66 0v725h556v-150h-385v-127h364v-151h-364v-146h385v-151h-556zM264 773l-137 113h164l54 -50l59 50h162l-140 -113h-162z" />
    <glyph glyph-name="ecaron" unicode="&#x11b;" horiz-adv-x="620" 
d="M438 169h152q-34 -90 -108 -136t-160 -46q-133 0 -214 76.5t-81 208.5q0 126 83.5 204t204.5 78q133 0 209 -91t68 -236h-399q4 -54 39.5 -83t84.5 -29q89 0 121 54zM315 428q-47 0 -80.5 -25t-39.5 -76h233q-2 49 -33 75t-80 26zM233 609l-137 116h151l61 -46l63 46h152
l-141 -116h-149z" />
    <glyph glyph-name="Gcircumflex" unicode="&#x11c;" horiz-adv-x="783" 
d="M392 737q124 0 211.5 -61.5t113.5 -177.5h-168q-13 42 -53.5 70t-105.5 28q-82 0 -134.5 -60t-52.5 -171q0 -113 51 -175t139 -62q68 0 114.5 29t46.5 93v14h-175v140h346v-404h-131l-5 80q-68 -93 -222 -93q-160 0 -252.5 102t-92.5 276q0 170 102 271t268 101zM471 886
l137 -113h-164l-54 49l-59 -49h-162l140 113h162z" />
    <glyph glyph-name="gcircumflex" unicode="&#x11d;" horiz-adv-x="650" 
d="M427 465v73h164v-466q0 -72 -21.5 -124.5t-61 -81t-87 -41.5t-106.5 -13q-114 0 -185 53t-84 132h155q19 -69 112 -69q61 0 87.5 28t26.5 84v64q-25 -42 -71.5 -63.5t-94.5 -21.5q-107 0 -172 70t-65 196q0 125 65 195t172 70q48 0 94.5 -21.5t71.5 -63.5zM315 422
q-53 0 -86.5 -34.5t-33.5 -102.5q0 -69 33.5 -103.5t86.5 -34.5q119 0 119 138q0 137 -119 137zM405 725l136 -116h-150l-62 46l-63 -46h-152l141 116h150z" />
    <glyph glyph-name="Gbreve" unicode="&#x11e;" horiz-adv-x="783" 
d="M392 737q124 0 211.5 -61.5t113.5 -177.5h-168q-13 42 -53.5 70t-105.5 28q-82 0 -134.5 -60t-52.5 -171q0 -113 51 -175t139 -62q68 0 114.5 29t46.5 93v14h-175v140h346v-404h-131l-5 80q-68 -93 -222 -93q-160 0 -252.5 102t-92.5 276q0 170 102 271t268 101zM463 886
h118q-6 -62 -52 -90t-140 -28q-92 0 -138.5 28t-51.5 90h118q7 -47 72 -47q67 0 74 47z" />
    <glyph glyph-name="gbreve" unicode="&#x11f;" horiz-adv-x="650" 
d="M427 465v73h164v-466q0 -72 -21.5 -124.5t-61 -81t-87 -41.5t-106.5 -13q-114 0 -185 53t-84 132h155q19 -69 112 -69q61 0 87.5 28t26.5 84v64q-25 -42 -71.5 -63.5t-94.5 -21.5q-107 0 -172 70t-65 196q0 125 65 195t172 70q48 0 94.5 -21.5t71.5 -63.5zM315 422
q-53 0 -86.5 -34.5t-33.5 -102.5q0 -69 33.5 -103.5t86.5 -34.5q119 0 119 138q0 137 -119 137zM369 725h108q-7 -51 -49 -86t-122 -35q-78 0 -121 35.5t-47 85.5h108q8 -40 61 -40q26 0 42.5 11.5t19.5 28.5z" />
    <glyph glyph-name="Gdotaccent" unicode="&#x120;" horiz-adv-x="783" 
d="M392 737q124 0 211.5 -61.5t113.5 -177.5h-168q-13 42 -53.5 70t-105.5 28q-82 0 -134.5 -60t-52.5 -171q0 -113 51 -175t139 -62q68 0 114.5 29t46.5 93v14h-175v140h346v-404h-131l-5 80q-68 -93 -222 -93q-160 0 -252.5 102t-92.5 276q0 170 102 271t268 101zM302 886
h171v-113h-171v113z" />
    <glyph glyph-name="gdotaccent" unicode="&#x121;" horiz-adv-x="650" 
d="M427 465v73h164v-466q0 -72 -21.5 -124.5t-61 -81t-87 -41.5t-106.5 -13q-114 0 -185 53t-84 132h155q19 -69 112 -69q61 0 87.5 28t26.5 84v64q-25 -42 -71.5 -63.5t-94.5 -21.5q-107 0 -172 70t-65 196q0 125 65 195t172 70q48 0 94.5 -21.5t71.5 -63.5zM315 422
q-53 0 -86.5 -34.5t-33.5 -102.5q0 -69 33.5 -103.5t86.5 -34.5q119 0 119 138q0 137 -119 137zM235 725h148v-116h-148v116z" />
    <glyph glyph-name="uni0122" unicode="&#x122;" horiz-adv-x="783" 
d="M392 737q124 0 211.5 -61.5t113.5 -177.5h-168q-13 42 -53.5 70t-105.5 28q-82 0 -134.5 -60t-52.5 -171q0 -113 51 -175t139 -62q68 0 114.5 29t46.5 93v14h-175v140h346v-404h-131l-5 80q-68 -93 -222 -93q-160 0 -252.5 102t-92.5 276q0 170 102 271t268 101z
M311 -136v100h127v-106l-44 -89h-86l39 95h-36z" />
    <glyph glyph-name="uni0123" unicode="&#x123;" horiz-adv-x="650" 
d="M370 716v-100h-127v106l44 89h86l-38 -95h35zM427 465v73h164v-466q0 -72 -21.5 -124.5t-61 -81t-87 -41.5t-106.5 -13q-114 0 -185 53t-84 132h155q19 -69 112 -69q61 0 87.5 28t26.5 84v64q-25 -42 -71.5 -63.5t-94.5 -21.5q-107 0 -172 70t-65 196q0 125 65 195
t172 70q48 0 94.5 -21.5t71.5 -63.5zM315 422q-53 0 -86.5 -34.5t-33.5 -102.5q0 -69 33.5 -103.5t86.5 -34.5q119 0 119 138q0 137 -119 137z" />
    <glyph glyph-name="Hcircumflex" unicode="&#x124;" horiz-adv-x="772" 
d="M535 725h171v-725h-171v297h-298v-297h-171v725h171v-277h298v277zM469 886l137 -113h-164l-54 49l-59 -49h-162l140 113h162z" />
    <glyph glyph-name="hcircumflex" unicode="&#x125;" horiz-adv-x="621" 
d="M224 725v-258q20 34 64 58.5t103 24.5q100 0 140.5 -56t40.5 -171v-323h-165v282q0 29 -1 45t-5 37t-12.5 31.5t-24.5 18.5t-39 8q-53 0 -77 -35t-24 -111v-276h-165v725h165zM226 886l137 -113h-164l-54 49l-59 -49h-162l140 113h162z" />
    <glyph glyph-name="Hbar" unicode="&#x126;" horiz-adv-x="772" 
d="M535 725h171v-96h56v-107h-56v-522h-171v297h-298v-297h-171v522h-56v107h56v96h171v-96h298v96zM237 448h298v74h-298v-74z" />
    <glyph glyph-name="hbar" unicode="&#x127;" horiz-adv-x="641" 
d="M236 565v-98q20 34 64 58.5t103 24.5q100 0 140.5 -56t40.5 -171v-323h-165v282q0 29 -1 45t-5 37t-12.5 31.5t-24.5 18.5t-39 8q-53 0 -77 -35t-24 -111v-276h-165v565h-76v87h76v73h165v-73h107v-87h-107z" />
    <glyph glyph-name="Itilde" unicode="&#x128;" horiz-adv-x="302" 
d="M237 725v-725h-171v725h171zM213 849q47 0 54 37h97q-7 -36 -23.5 -60.5t-39 -35.5t-42 -15.5t-39.5 -4.5q-36 0 -74 18.5t-55 18.5q-46 0 -53 -37h-97q13 66 55 91t89 25q35 0 71.5 -18.5t56.5 -18.5z" />
    <glyph glyph-name="itilde" unicode="&#x129;" horiz-adv-x="284" 
d="M59 538h166v-538h-166v538zM203 692q44 0 53 44h97q-23 -127 -135 -127q-38 0 -79.5 22t-57.5 22q-43 0 -51 -44h-97q21 127 136 127q36 0 75 -22t59 -22z" />
    <glyph glyph-name="Imacron" unicode="&#x12a;" horiz-adv-x="302" 
d="M237 725v-725h-171v725h171zM320 793h-335v95h335v-95z" />
    <glyph glyph-name="imacron" unicode="&#x12b;" horiz-adv-x="284" 
d="M59 538h166v-538h-166v538zM300 619h-313v107h313v-107z" />
    <glyph glyph-name="Ibreve" unicode="&#x12c;" horiz-adv-x="302" 
d="M237 725v-725h-171v725h171zM225 886h118q-6 -62 -52 -90t-140 -28q-92 0 -138.5 28t-51.5 90h118q7 -47 72 -47q67 0 74 47z" />
    <glyph glyph-name="ibreve" unicode="&#x12d;" horiz-adv-x="284" 
d="M59 538h166v-538h-166v538zM205 725h108q-7 -51 -49 -86t-122 -35q-78 0 -121 35.5t-47 85.5h108q8 -40 61 -40q26 0 42.5 11.5t19.5 28.5z" />
    <glyph glyph-name="Iogonek" unicode="&#x12e;" horiz-adv-x="302" 
d="M237 725v-725h-171v725h171zM67 0h170q-27 -13 -37.5 -18.5t-28.5 -16t-25 -19t-7 -17.5q0 -35 50 -35q19 0 49 10v-82q-32 -10 -86 -10q-61 0 -107.5 24.5t-46.5 71.5q0 53 69 92z" />
    <glyph glyph-name="iogonek" unicode="&#x12f;" horiz-adv-x="284" 
d="M60 0h-1v538h166v-538h-1q-45 -22 -66.5 -37t-21.5 -31q0 -36 40 -36q19 0 48 9v-82q-38 -11 -77 -11q-64 0 -110 24.5t-46 71.5q0 53 69 92zM59 725h165v-132h-165v132z" />
    <glyph glyph-name="Idotaccent" unicode="&#x130;" horiz-adv-x="302" 
d="M237 725v-725h-171v725h171zM66 886h171v-113h-171v113z" />
    <glyph glyph-name="dotlessi" unicode="&#x131;" horiz-adv-x="284" 
d="M59 538h166v-538h-166v538z" />
    <glyph glyph-name="Jcircumflex" unicode="&#x134;" horiz-adv-x="641" 
d="M406 277v448h171v-448q0 -137 -73 -213.5t-210 -76.5q-136 0 -207.5 79t-75.5 211h171q2 -85 29 -119.5t83 -34.5t84 35t28 119zM574 886l137 -113h-164l-54 49l-59 -49h-162l140 113h162z" />
    <glyph glyph-name="jcircumflex" unicode="&#x135;" horiz-adv-x="284" 
d="M59 2v536h165v-542q0 -99 -40.5 -135t-137.5 -36h-61v119h19q34 0 44.5 11.5t10.5 46.5zM220 725l136 -116h-150l-62 46l-63 -46h-152l141 116h150z" />
    <glyph glyph-name="uni0136" unicode="&#x136;" horiz-adv-x="713" 
d="M237 725v-287l263 287h209l-268 -289l282 -436h-206l-196 306l-84 -92v-214h-171v725h171zM308 -136v100h127v-106l-44 -89h-86l39 95h-36z" />
    <glyph glyph-name="uni0137" unicode="&#x137;" horiz-adv-x="612" 
d="M59 725h165v-392l181 205h195l-192 -206l208 -332h-193l-127 212l-72 -77v-135h-165v725zM255 -136v100h127v-106l-44 -89h-86l39 95h-36z" />
    <glyph glyph-name="Lacute" unicode="&#x139;" horiz-adv-x="584" 
d="M237 725v-574h348v-151h-519v725h171zM374 886l-159 -113h-146l103 113h202z" />
    <glyph glyph-name="lacute" unicode="&#x13a;" horiz-adv-x="283" 
d="M224 725v-725h-165v725h165zM373 886l-159 -113h-146l103 113h202z" />
    <glyph glyph-name="uni013B" unicode="&#x13b;" horiz-adv-x="584" 
d="M237 725v-574h348v-151h-519v725h171zM263 -136v100h127v-106l-44 -89h-86l39 95h-36z" />
    <glyph glyph-name="uni013C" unicode="&#x13c;" horiz-adv-x="283" 
d="M224 725v-725h-165v725h165zM79 -136v100h127v-106l-44 -89h-86l39 95h-36z" />
    <glyph glyph-name="Lcaron" unicode="&#x13d;" horiz-adv-x="584" 
d="M237 725v-574h348v-151h-519v725h171zM489 725l-59 -170h-112l20 170h151z" />
    <glyph glyph-name="lcaron" unicode="&#x13e;" horiz-adv-x="415" 
d="M435 725l-59 -170h-112l20 170h151zM224 725v-725h-165v725h165z" />
    <glyph glyph-name="Ldot" unicode="&#x13f;" horiz-adv-x="584" 
d="M237 725v-574h348v-151h-519v725h171zM358 494h171v-113h-171v113z" />
    <glyph glyph-name="ldot" unicode="&#x140;" horiz-adv-x="431" 
d="M283 495h148v-116h-148v116zM224 725v-725h-165v725h165z" />
    <glyph glyph-name="Lslash" unicode="&#x141;" horiz-adv-x="612" 
d="M265 725v-214l145 87v-158l-145 -87v-202h348v-151h-519v250l-114 -68v158l114 68v317h171z" />
    <glyph glyph-name="lslash" unicode="&#x142;" horiz-adv-x="326" 
d="M246 725v-228l70 37v-134l-70 -37v-363h-165v276l-71 -37v133l71 37v316h165z" />
    <glyph glyph-name="Nacute" unicode="&#x143;" horiz-adv-x="795" 
d="M730 0h-208l-291 500v-500h-165v725h208l291 -500v500h165v-725zM630 886l-159 -113h-146l103 113h202z" />
    <glyph glyph-name="nacute" unicode="&#x144;" horiz-adv-x="621" 
d="M224 538v-71q20 34 64 58.5t103 24.5q100 0 140.5 -56t40.5 -171v-323h-165v282q0 28 -1 44.5t-5.5 37.5t-13 31.5t-24.5 18.5t-39 8q-53 0 -76.5 -35t-23.5 -111v-276h-165v538h165zM535 725l-158 -116h-124l95 116h187z" />
    <glyph glyph-name="uni0145" unicode="&#x145;" horiz-adv-x="795" 
d="M730 0h-208l-291 500v-500h-165v725h208l291 -500v500h165v-725zM336 -136v100h127v-106l-44 -89h-86l39 95h-36z" />
    <glyph glyph-name="uni0146" unicode="&#x146;" horiz-adv-x="621" 
d="M224 538v-71q20 34 64 58.5t103 24.5q100 0 140.5 -56t40.5 -171v-323h-165v282q0 28 -1 44.5t-5.5 37.5t-13 31.5t-24.5 18.5t-39 8q-53 0 -76.5 -35t-23.5 -111v-276h-165v538h165zM253 -136v100h127v-106l-44 -89h-86l39 95h-36z" />
    <glyph glyph-name="Ncaron" unicode="&#x147;" horiz-adv-x="795" 
d="M730 0h-208l-291 500v-500h-165v725h208l291 -500v500h165v-725zM327 773l-137 113h164l54 -50l59 50h162l-140 -113h-162z" />
    <glyph glyph-name="ncaron" unicode="&#x148;" horiz-adv-x="621" 
d="M224 538v-71q20 34 64 58.5t103 24.5q100 0 140.5 -56t40.5 -171v-323h-165v282q0 28 -1 44.5t-5.5 37.5t-13 31.5t-24.5 18.5t-39 8q-53 0 -76.5 -35t-23.5 -111v-276h-165v538h165zM239 609l-137 116h151l61 -46l63 46h152l-141 -116h-149z" />
    <glyph glyph-name="Eng" unicode="&#x14a;" horiz-adv-x="795" 
d="M556 0l-325 500v-500h-165v725h208l291 -451v451h165v-725q0 -109 -41 -142t-159 -33h-70v129h26q36 0 53 7.5t17 30.5v8z" />
    <glyph glyph-name="eng" unicode="&#x14b;" horiz-adv-x="621" 
d="M407 3v279q0 28 -1 44.5t-5.5 37.5t-13 31.5t-24.5 18.5t-39 8q-53 0 -76.5 -35t-23.5 -111v-276h-165v538h165v-71q20 34 64 58.5t103 24.5q100 0 140.5 -56t40.5 -171v-337q0 -98 -40 -129.5t-139 -31.5h-64v120h22q35 0 45.5 11.5t10.5 46.5z" />
    <glyph glyph-name="Omacron" unicode="&#x14c;" horiz-adv-x="796" 
d="M203 362q0 -111 55.5 -172.5t139.5 -61.5t139.5 61.5t55.5 172.5t-55.5 172.5t-139.5 61.5t-139.5 -61.5t-55.5 -172.5zM774 362q0 -169 -104.5 -272t-271.5 -103q-168 0 -272 103t-104 272t104 272t272 103q167 0 271.5 -103t104.5 -272zM566 793h-335v95h335v-95z" />
    <glyph glyph-name="omacron" unicode="&#x14d;" horiz-adv-x="624" 
d="M312 426q-53 0 -85 -37t-32 -118t31.5 -118.5t85.5 -37.5t85.5 37.5t31.5 118.5t-32 118t-85 37zM312 554q121 0 203 -72.5t82 -210.5t-82 -211t-203 -73t-203 73t-82 211t82 210.5t203 72.5zM469 619h-313v107h313v-107z" />
    <glyph glyph-name="Obreve" unicode="&#x14e;" horiz-adv-x="796" 
d="M203 362q0 -111 55.5 -172.5t139.5 -61.5t139.5 61.5t55.5 172.5t-55.5 172.5t-139.5 61.5t-139.5 -61.5t-55.5 -172.5zM774 362q0 -169 -104.5 -272t-271.5 -103q-168 0 -272 103t-104 272t104 272t272 103q167 0 271.5 -103t104.5 -272zM471 886h118q-6 -62 -52 -90
t-140 -28q-92 0 -138.5 28t-51.5 90h118q7 -47 72 -47q67 0 74 47z" />
    <glyph glyph-name="obreve" unicode="&#x14f;" horiz-adv-x="624" 
d="M312 426q-53 0 -85 -37t-32 -118t31.5 -118.5t85.5 -37.5t85.5 37.5t31.5 118.5t-32 118t-85 37zM312 554q121 0 203 -72.5t82 -210.5t-82 -211t-203 -73t-203 73t-82 211t82 210.5t203 72.5zM374 725h108q-7 -51 -49 -86t-122 -35q-78 0 -121 35.5t-47 85.5h108
q8 -40 61 -40q26 0 42.5 11.5t19.5 28.5z" />
    <glyph glyph-name="Ohungarumlaut" unicode="&#x150;" horiz-adv-x="796" 
d="M203 362q0 -111 55.5 -172.5t139.5 -61.5t139.5 61.5t55.5 172.5t-55.5 172.5t-139.5 61.5t-139.5 -61.5t-55.5 -172.5zM774 362q0 -169 -104.5 -272t-271.5 -103q-168 0 -272 103t-104 272t104 272t272 103q167 0 271.5 -103t104.5 -272zM521 886l-160 -113h-145
l103 113h202zM740 886l-159 -113h-145l103 113h201z" />
    <glyph glyph-name="ohungarumlaut" unicode="&#x151;" horiz-adv-x="624" 
d="M420 725l-158 -116h-124l95 116h187zM644 725l-158 -116h-124l94 116h188zM312 426q-53 0 -85 -37t-32 -118t31.5 -118.5t85.5 -37.5t85.5 37.5t31.5 118.5t-32 118t-85 37zM312 554q121 0 203 -72.5t82 -210.5t-82 -211t-203 -73t-203 73t-82 211t82 210.5t203 72.5z
" />
    <glyph glyph-name="OE" unicode="&#x152;" horiz-adv-x="1174" 
d="M593 364q0 113 -55 172.5t-140 59.5t-140 -59.5t-55 -172.5q0 -112 55.5 -174t139.5 -62t139.5 62t55.5 174zM597 0v48q-79 -61 -205 -61q-168 0 -269 103t-101 274t101 272t269 101q126 0 205 -59v47h536v-150h-385v-127h364v-151h-364v-146h385v-151h-536z" />
    <glyph glyph-name="oe" unicode="&#x153;" horiz-adv-x="999" 
d="M694 427q-102 0 -115 -100h229q-2 47 -33.5 73.5t-80.5 26.5zM195 270q0 -80 31.5 -117.5t85.5 -37.5q53 0 86 38t33 117q0 154 -119 154q-117 0 -117 -154zM818 169h152q-34 -90 -107 -136t-159 -46q-125 0 -199 79q-73 -79 -193 -79q-121 0 -203 72.5t-82 210.5
q0 139 82 210.5t203 71.5q122 0 194 -80q77 80 188 80q135 0 210.5 -90t67.5 -235h-395q4 -54 39 -83t83 -29q87 0 119 54z" />
    <glyph glyph-name="Racute" unicode="&#x154;" horiz-adv-x="721" 
d="M510 0l-157 273h-116v-273h-171v725h279q60 0 107 -6t89.5 -21t71 -40t45 -64.5t16.5 -92.5q0 -145 -142 -200l179 -301h-201zM350 581h-113v-164h113q69 0 106 17t37 65q0 47 -37.5 64.5t-105.5 17.5zM565 886l-159 -113h-146l103 113h202z" />
    <glyph glyph-name="racute" unicode="&#x155;" horiz-adv-x="401" 
d="M390 541v-161q-19 3 -45 3q-62 0 -91.5 -26t-29.5 -87v-270h-165v538h159v-102q40 102 147 106h12q9 0 13 -1zM444 725l-158 -116h-124l95 116h187z" />
    <glyph glyph-name="uni0156" unicode="&#x156;" horiz-adv-x="721" 
d="M510 0l-157 273h-116v-273h-171v725h279q60 0 107 -6t89.5 -21t71 -40t45 -64.5t16.5 -92.5q0 -145 -142 -200l179 -301h-201zM350 581h-113v-164h113q69 0 106 17t37 65q0 47 -37.5 64.5t-105.5 17.5zM296 -136v100h127v-106l-44 -89h-86l39 95h-36z" />
    <glyph glyph-name="uni0157" unicode="&#x157;" horiz-adv-x="401" 
d="M390 541v-161q-19 3 -45 3q-62 0 -91.5 -26t-29.5 -87v-270h-165v538h159v-102q40 102 147 106h12q9 0 13 -1zM78 -136v100h127v-106l-44 -89h-86l39 95h-36z" />
    <glyph glyph-name="Rcaron" unicode="&#x158;" horiz-adv-x="721" 
d="M510 0l-157 273h-116v-273h-171v725h279q60 0 107 -6t89.5 -21t71 -40t45 -64.5t16.5 -92.5q0 -145 -142 -200l179 -301h-201zM350 581h-113v-164h113q69 0 106 17t37 65q0 47 -37.5 64.5t-105.5 17.5zM271 773l-137 113h164l54 -50l59 50h162l-140 -113h-162z" />
    <glyph glyph-name="rcaron" unicode="&#x159;" horiz-adv-x="401" 
d="M390 541v-161q-19 3 -45 3q-62 0 -91.5 -26t-29.5 -87v-270h-165v538h159v-102q40 102 147 106h12q9 0 13 -1zM149 609l-137 116h151l61 -46l63 46h152l-141 -116h-149z" />
    <glyph glyph-name="Sacute" unicode="&#x15a;" horiz-adv-x="673" 
d="M632 515h-169q-13 41 -50.5 63t-92.5 22q-52 0 -83.5 -18.5t-31.5 -51.5q0 -27 22.5 -46t61.5 -27l99 -20q45 -9 74 -16.5t69 -24.5t63.5 -37.5t41 -55t17.5 -78.5q0 -108 -91.5 -173t-212.5 -65q-140 0 -227 65.5t-107 183.5h170q28 -111 168 -111q51 0 87.5 19t36.5 60
q0 33 -34.5 53t-100.5 34l-88 18q-225 46 -225 211q0 70 46.5 121t113 73.5t141.5 22.5q74 0 136 -21.5t108.5 -73t57.5 -127.5zM566 886l-159 -113h-146l103 113h202z" />
    <glyph glyph-name="sacute" unicode="&#x15b;" horiz-adv-x="582" 
d="M544 380h-154q-14 52 -105 52q-86 0 -86 -40q0 -19 15.5 -30t50.5 -18l100 -18q101 -19 146 -53.5t45 -103.5q0 -88 -72 -135t-188 -47q-109 0 -179.5 48t-84.5 140h153q20 -68 113 -68q46 0 73 12.5t27 35.5q0 19 -19 30.5t-65 19.5l-96 16q-82 13 -128.5 54.5
t-46.5 110.5q0 77 71 121.5t175 44.5q100 0 170 -42.5t85 -129.5zM514 725l-158 -116h-124l95 116h187z" />
    <glyph glyph-name="Scircumflex" unicode="&#x15c;" horiz-adv-x="673" 
d="M632 515h-169q-13 41 -50.5 63t-92.5 22q-52 0 -83.5 -18.5t-31.5 -51.5q0 -27 22.5 -46t61.5 -27l99 -20q45 -9 74 -16.5t69 -24.5t63.5 -37.5t41 -55t17.5 -78.5q0 -108 -91.5 -173t-212.5 -65q-140 0 -227 65.5t-107 183.5h170q28 -111 168 -111q51 0 87.5 19t36.5 60
q0 33 -34.5 53t-100.5 34l-88 18q-225 46 -225 211q0 70 46.5 121t113 73.5t141.5 22.5q74 0 136 -21.5t108.5 -73t57.5 -127.5zM417 886l137 -113h-164l-54 49l-59 -49h-162l140 113h162z" />
    <glyph glyph-name="scircumflex" unicode="&#x15d;" horiz-adv-x="582" 
d="M544 380h-154q-14 52 -105 52q-86 0 -86 -40q0 -19 15.5 -30t50.5 -18l100 -18q101 -19 146 -53.5t45 -103.5q0 -88 -72 -135t-188 -47q-109 0 -179.5 48t-84.5 140h153q20 -68 113 -68q46 0 73 12.5t27 35.5q0 19 -19 30.5t-65 19.5l-96 16q-82 13 -128.5 54.5
t-46.5 110.5q0 77 71 121.5t175 44.5q100 0 170 -42.5t85 -129.5zM372 725l136 -116h-150l-62 46l-63 -46h-152l141 116h150z" />
    <glyph glyph-name="Scedilla" unicode="&#x15e;" horiz-adv-x="673" 
d="M632 515h-169q-13 41 -50.5 63t-92.5 22q-52 0 -83.5 -18.5t-31.5 -51.5q0 -27 22.5 -46t61.5 -27l99 -20q45 -9 74 -16.5t69 -24.5t63.5 -37.5t41 -55t17.5 -78.5q0 -108 -91.5 -173t-212.5 -65q-140 0 -227 65.5t-107 183.5h170q28 -111 168 -111q51 0 87.5 19t36.5 60
q0 33 -34.5 53t-100.5 34l-88 18q-225 46 -225 211q0 70 46.5 121t113 73.5t141.5 22.5q74 0 136 -21.5t108.5 -73t57.5 -127.5zM218 -187l17 54q24 -14 66 -14q48 0 48 29q0 28 -40 28q-24 0 -38 -9l-30 17l51 83h62l-33 -52q12 4 37 4q36 0 64.5 -16.5t28.5 -51.5
q0 -44 -39.5 -65t-98.5 -21q-51 0 -95 14z" />
    <glyph glyph-name="scedilla" unicode="&#x15f;" horiz-adv-x="582" 
d="M544 380h-154q-14 52 -105 52q-86 0 -86 -40q0 -19 15.5 -30t50.5 -18l100 -18q101 -19 146 -53.5t45 -103.5q0 -88 -72 -135t-188 -47q-109 0 -179.5 48t-84.5 140h153q20 -68 113 -68q46 0 73 12.5t27 35.5q0 19 -19 30.5t-65 19.5l-96 16q-82 13 -128.5 54.5
t-46.5 110.5q0 77 71 121.5t175 44.5q100 0 170 -42.5t85 -129.5zM178 -187l17 54q24 -14 66 -14q48 0 48 29q0 28 -40 28q-24 0 -38 -9l-30 17l51 83h62l-33 -52q12 4 37 4q36 0 64.5 -16.5t28.5 -51.5q0 -44 -39.5 -65t-98.5 -21q-51 0 -95 14z" />
    <glyph glyph-name="Scaron" unicode="&#x160;" horiz-adv-x="673" 
d="M632 515h-169q-13 41 -50.5 63t-92.5 22q-52 0 -83.5 -18.5t-31.5 -51.5q0 -27 22.5 -46t61.5 -27l99 -20q45 -9 74 -16.5t69 -24.5t63.5 -37.5t41 -55t17.5 -78.5q0 -108 -91.5 -173t-212.5 -65q-140 0 -227 65.5t-107 183.5h170q28 -111 168 -111q51 0 87.5 19t36.5 60
q0 33 -34.5 53t-100.5 34l-88 18q-225 46 -225 211q0 70 46.5 121t113 73.5t141.5 22.5q74 0 136 -21.5t108.5 -73t57.5 -127.5zM252 773l-137 113h164l54 -50l59 50h162l-140 -113h-162z" />
    <glyph glyph-name="scaron" unicode="&#x161;" horiz-adv-x="582" 
d="M544 380h-154q-14 52 -105 52q-86 0 -86 -40q0 -19 15.5 -30t50.5 -18l100 -18q101 -19 146 -53.5t45 -103.5q0 -88 -72 -135t-188 -47q-109 0 -179.5 48t-84.5 140h153q20 -68 113 -68q46 0 73 12.5t27 35.5q0 19 -19 30.5t-65 19.5l-96 16q-82 13 -128.5 54.5
t-46.5 110.5q0 77 71 121.5t175 44.5q100 0 170 -42.5t85 -129.5zM218 609l-137 116h151l61 -46l63 46h152l-141 -116h-149z" />
    <glyph glyph-name="uni0162" unicode="&#x162;" horiz-adv-x="647" 
d="M237 0v575h-232v150h637v-150h-233v-575h-172zM260 -136v100h127v-106l-44 -89h-86l39 95h-36z" />
    <glyph glyph-name="uni0163" unicode="&#x163;" horiz-adv-x="396" 
d="M85 538v147h165v-147h118v-117h-118v-241q0 -37 14.5 -49t56.5 -12h47v-119h-105q-103 0 -140.5 30t-37.5 121v270h-85v117h85zM122 -136v100h127v-106l-44 -89h-86l39 95h-36z" />
    <glyph glyph-name="Tcaron" unicode="&#x164;" horiz-adv-x="647" 
d="M237 0v575h-232v150h637v-150h-233v-575h-172zM241 773l-137 113h164l54 -50l59 50h162l-140 -113h-162z" />
    <glyph glyph-name="tcaron" unicode="&#x165;" horiz-adv-x="452" 
d="M472 725l-69 -140h-102l20 140h151zM85 538v147h165v-147h118v-117h-118v-241q0 -37 14.5 -49t56.5 -12h47v-119h-105q-103 0 -140.5 30t-37.5 121v270h-85v117h85z" />
    <glyph glyph-name="Tbar" unicode="&#x166;" horiz-adv-x="647" 
d="M237 0v292h-139v150h139v133h-232v150h637v-150h-233v-133h139v-150h-139v-292h-172z" />
    <glyph glyph-name="tbar" unicode="&#x167;" horiz-adv-x="447" 
d="M117 538v147h165v-147h118v-117h-118v-77h118v-128h-118v-36q0 -37 14.5 -49t56.5 -12h47v-119h-105q-103 0 -140.5 30t-37.5 121v65h-85v128h85v77h-85v117h85z" />
    <glyph glyph-name="Utilde" unicode="&#x168;" horiz-adv-x="735" 
d="M54 725h171v-433q0 -86 30 -125.5t114 -39.5t112.5 43t28.5 132v423h171v-409q0 -170 -72.5 -249.5t-239.5 -79.5q-166 0 -240.5 73.5t-74.5 249.5v415zM428 849q47 0 54 37h97q-7 -36 -23.5 -60.5t-39 -35.5t-42 -15.5t-39.5 -4.5q-36 0 -74 18.5t-55 18.5
q-46 0 -53 -37h-97q13 66 55 91t89 25q35 0 71.5 -18.5t56.5 -18.5z" />
    <glyph glyph-name="utilde" unicode="&#x169;" horiz-adv-x="617" 
d="M392 0v75q-27 -43 -63 -65.5t-95 -22.5q-103 0 -144.5 56t-41.5 171v324h165v-283q0 -29 1 -45t5 -37t12.5 -31.5t24.5 -18.5t39 -8q53 0 75 32t22 107v284h165v-538h-165zM372 692q44 0 53 44h97q-23 -127 -135 -127q-38 0 -79.5 22t-57.5 22q-43 0 -51 -44h-97
q21 127 136 127q36 0 75 -22t59 -22z" />
    <glyph glyph-name="Umacron" unicode="&#x16a;" horiz-adv-x="735" 
d="M54 725h171v-433q0 -86 30 -125.5t114 -39.5t112.5 43t28.5 132v423h171v-409q0 -170 -72.5 -249.5t-239.5 -79.5q-166 0 -240.5 73.5t-74.5 249.5v415zM535 793h-335v95h335v-95z" />
    <glyph glyph-name="umacron" unicode="&#x16b;" horiz-adv-x="617" 
d="M392 0v75q-27 -43 -63 -65.5t-95 -22.5q-103 0 -144.5 56t-41.5 171v324h165v-283q0 -29 1 -45t5 -37t12.5 -31.5t24.5 -18.5t39 -8q53 0 75 32t22 107v284h165v-538h-165zM459 619h-313v107h313v-107z" />
    <glyph glyph-name="Ubreve" unicode="&#x16c;" horiz-adv-x="735" 
d="M54 725h171v-433q0 -86 30 -125.5t114 -39.5t112.5 43t28.5 132v423h171v-409q0 -170 -72.5 -249.5t-239.5 -79.5q-166 0 -240.5 73.5t-74.5 249.5v415zM440 886h118q-6 -62 -52 -90t-140 -28q-92 0 -138.5 28t-51.5 90h118q7 -47 72 -47q67 0 74 47z" />
    <glyph glyph-name="ubreve" unicode="&#x16d;" horiz-adv-x="617" 
d="M392 0v75q-27 -43 -63 -65.5t-95 -22.5q-103 0 -144.5 56t-41.5 171v324h165v-283q0 -29 1 -45t5 -37t12.5 -31.5t24.5 -18.5t39 -8q53 0 75 32t22 107v284h165v-538h-165zM364 725h108q-7 -51 -49 -86t-122 -35q-78 0 -121 35.5t-47 85.5h108q8 -40 61 -40
q26 0 42.5 11.5t19.5 28.5z" />
    <glyph glyph-name="Uring" unicode="&#x16e;" horiz-adv-x="735" 
d="M54 725h171v-433q0 -86 30 -125.5t114 -39.5t112.5 43t28.5 132v423h171v-409q0 -170 -72.5 -249.5t-239.5 -79.5q-166 0 -240.5 73.5t-74.5 249.5v415zM367 935q39 0 65 -24t26 -61q0 -38 -26 -61.5t-65 -23.5t-64.5 23.5t-25.5 61.5q0 36 26.5 60.5t63.5 24.5zM367 893
q-18 0 -30.5 -12.5t-12.5 -30.5t12.5 -30t30.5 -12t30.5 12t12.5 30t-12.5 30.5t-30.5 12.5z" />
    <glyph glyph-name="uring" unicode="&#x16f;" horiz-adv-x="617" 
d="M392 0v75q-27 -43 -63 -65.5t-95 -22.5q-103 0 -144.5 56t-41.5 171v324h165v-283q0 -29 1 -45t5 -37t12.5 -31.5t24.5 -18.5t39 -8q53 0 75 32t22 107v284h165v-538h-165zM303 785q39 0 66.5 -25.5t27.5 -63.5t-27.5 -63.5t-66.5 -25.5q-40 0 -67.5 25t-27.5 64
q0 38 27.5 63.5t67.5 25.5zM303 737q-17 0 -29 -11.5t-12 -29.5q0 -17 12 -28.5t29 -11.5t29 11.5t12 28.5q0 18 -12 29.5t-29 11.5z" />
    <glyph glyph-name="Uhungarumlaut" unicode="&#x170;" horiz-adv-x="735" 
d="M54 725h171v-433q0 -86 30 -125.5t114 -39.5t112.5 43t28.5 132v423h171v-409q0 -170 -72.5 -249.5t-239.5 -79.5q-166 0 -240.5 73.5t-74.5 249.5v415zM490 886l-160 -113h-145l103 113h202zM709 886l-159 -113h-145l103 113h201z" />
    <glyph glyph-name="uhungarumlaut" unicode="&#x171;" horiz-adv-x="616" 
d="M410 725l-158 -116h-124l95 116h187zM634 725l-158 -116h-124l94 116h188zM392 0v75q-27 -43 -63 -65.5t-95 -22.5q-103 0 -144.5 56t-41.5 171v324h165v-283q0 -29 1 -45t5 -37t12.5 -31.5t24.5 -18.5t39 -8q53 0 75 32t22 107v284h165v-538h-165z" />
    <glyph glyph-name="Uogonek" unicode="&#x172;" horiz-adv-x="735" 
d="M401 -188q-61 0 -107.5 24.5t-46.5 71.5q0 44 53 82q-129 14 -187.5 88.5t-58.5 231.5v415h171v-433q0 -86 30 -125.5t114 -39.5t112.5 43t28.5 132v423h171v-409q0 -136 -45 -211t-148 -107q-100 -30 -100 -66q0 -19 15 -28.5t35 -9.5q19 0 49 10v-82q-32 -10 -86 -10z
" />
    <glyph glyph-name="uogonek" unicode="&#x173;" horiz-adv-x="617" 
d="M392 0v75q-27 -43 -63 -65.5t-95 -22.5q-103 0 -144.5 56t-41.5 171v324h165v-283q0 -29 1 -45t5 -37t12.5 -31.5t24.5 -18.5t39 -8q53 0 75 32t22 107v284h165v-538h-165zM393 0h164q-45 -22 -66.5 -37t-21.5 -31q0 -36 40 -36q19 0 48 9v-82q-38 -11 -77 -11
q-64 0 -110 24.5t-46 71.5q0 53 69 92z" />
    <glyph glyph-name="Wcircumflex" unicode="&#x174;" horiz-adv-x="916" 
d="M547 725l107 -503l91 503h171l-164 -725h-184l-110 511l-109 -511h-183l-166 725h173l99 -501l98 501h177zM541 886l137 -113h-164l-54 49l-59 -49h-162l140 113h162z" />
    <glyph glyph-name="wcircumflex" unicode="&#x175;" horiz-adv-x="785" 
d="M307 538h170l63 -365l71 365h169l-124 -538h-192l-72 397l-72 -397h-191l-124 538h169l71 -365zM470 725l136 -116h-150l-62 46l-63 -46h-152l141 116h150z" />
    <glyph glyph-name="Ycircumflex" unicode="&#x176;" horiz-adv-x="692" 
d="M-16 725h200l162 -278l164 278h198l-280 -445v-280h-171v282zM429 886l137 -113h-164l-54 49l-59 -49h-162l140 113h162z" />
    <glyph glyph-name="ycircumflex" unicode="&#x177;" horiz-adv-x="563" 
d="M118 -175h-53v119h33q52 0 69 7.5t29 37.5l5 14l-201 535h181l99 -337l106 337h177l-211 -538q-41 -105 -86 -140t-148 -35zM359 725l136 -116h-150l-62 46l-63 -46h-152l141 116h150z" />
    <glyph glyph-name="Ydieresis" unicode="&#x178;" horiz-adv-x="692" 
d="M-16 725h200l162 -278l164 278h198l-280 -445v-280h-171v282zM158 886h147v-113h-147v113zM387 886h148v-113h-148v113z" />
    <glyph glyph-name="Zacute" unicode="&#x179;" horiz-adv-x="656" 
d="M619 725v-131l-375 -443h380v-151h-605v131l377 444h-348v150h571zM553 886l-159 -113h-146l103 113h202z" />
    <glyph glyph-name="zacute" unicode="&#x17a;" horiz-adv-x="548" 
d="M22 0v131l282 276h-263v131h475v-131l-282 -276h294v-131h-506zM475 725l-158 -116h-124l95 116h187z" />
    <glyph glyph-name="Zdotaccent" unicode="&#x17b;" horiz-adv-x="656" 
d="M619 725v-131l-375 -443h380v-151h-605v131l377 444h-348v150h571zM246 886h171v-113h-171v113z" />
    <glyph glyph-name="zdotaccent" unicode="&#x17c;" horiz-adv-x="548" 
d="M22 0v131l282 276h-263v131h475v-131l-282 -276h294v-131h-506zM211 725h148v-116h-148v116z" />
    <glyph glyph-name="Zcaron" unicode="&#x17d;" horiz-adv-x="656" 
d="M619 725v-131l-375 -443h380v-151h-605v131l377 444h-348v150h571zM261 773l-137 113h164l54 -50l59 50h162l-140 -113h-162z" />
    <glyph glyph-name="zcaron" unicode="&#x17e;" horiz-adv-x="548" 
d="M22 0v131l282 276h-263v131h475v-131l-282 -276h294v-131h-506zM212 609l-137 116h151l61 -46l63 46h152l-141 -116h-149z" />
    <glyph glyph-name="uni018F" unicode="&#x18f;" horiz-adv-x="795" 
d="M220 509h-179q22 104 119.5 166t235.5 62q165 0 271 -100.5t106 -271.5t-106 -274.5t-274 -103.5q-190 0 -288 121t-72 335h549q-9 81 -62.5 119t-122.5 38q-65 0 -112 -23.5t-65 -67.5zM392 123q79 0 134.5 43.5t58.5 134.5h-373q2 -91 54.5 -134.5t125.5 -43.5z" />
    <glyph glyph-name="uni0218" unicode="&#x218;" horiz-adv-x="673" 
d="M632 515h-169q-13 41 -50.5 63t-92.5 22q-52 0 -83.5 -18.5t-31.5 -51.5q0 -27 22.5 -46t61.5 -27l99 -20q45 -9 74 -16.5t69 -24.5t63.5 -37.5t41 -55t17.5 -78.5q0 -108 -91.5 -173t-212.5 -65q-140 0 -227 65.5t-107 183.5h170q28 -111 168 -111q51 0 87.5 19t36.5 60
q0 33 -34.5 53t-100.5 34l-88 18q-225 46 -225 211q0 70 46.5 121t113 73.5t141.5 22.5q74 0 136 -21.5t108.5 -73t57.5 -127.5zM272 -136v100h127v-106l-44 -89h-86l39 95h-36z" />
    <glyph glyph-name="uni0219" unicode="&#x219;" horiz-adv-x="582" 
d="M544 380h-154q-14 52 -105 52q-86 0 -86 -40q0 -19 15.5 -30t50.5 -18l100 -18q101 -19 146 -53.5t45 -103.5q0 -88 -72 -135t-188 -47q-109 0 -179.5 48t-84.5 140h153q20 -68 113 -68q46 0 73 12.5t27 35.5q0 19 -19 30.5t-65 19.5l-96 16q-82 13 -128.5 54.5
t-46.5 110.5q0 77 71 121.5t175 44.5q100 0 170 -42.5t85 -129.5zM232 -136v100h127v-106l-44 -89h-86l39 95h-36z" />
    <glyph glyph-name="uni021A" unicode="&#x21a;" horiz-adv-x="647" 
d="M237 0v575h-232v150h637v-150h-233v-575h-172zM260 -136v100h127v-106l-44 -89h-86l39 95h-36z" />
    <glyph glyph-name="uni021B" unicode="&#x21b;" horiz-adv-x="396" 
d="M85 538v147h165v-147h118v-117h-118v-241q0 -37 14.5 -49t56.5 -12h47v-119h-105q-103 0 -140.5 30t-37.5 121v270h-85v117h85zM122 -136v100h127v-106l-44 -89h-86l39 95h-36z" />
    <glyph glyph-name="uni0232" unicode="&#x232;" horiz-adv-x="692" 
d="M-16 725h200l162 -278l164 278h198l-280 -445v-280h-171v282zM514 793h-335v95h335v-95z" />
    <glyph glyph-name="uni0233" unicode="&#x233;" horiz-adv-x="563" 
d="M118 -175h-53v119h33q52 0 69 7.5t29 37.5l5 14l-201 535h181l99 -337l106 337h177l-211 -538q-41 -105 -86 -140t-148 -35zM438 619h-313v107h313v-107z" />
    <glyph glyph-name="uni0237" unicode="&#x237;" horiz-adv-x="284" 
d="M59 2v536h165v-542q0 -99 -40.5 -135t-137.5 -36h-61v119h19q34 0 44.5 11.5t10.5 46.5z" />
    <glyph glyph-name="uni0259" unicode="&#x259;" horiz-adv-x="615" 
d="M178 372h-152q34 90 107.5 136t160.5 46q133 0 214 -76.5t81 -208.5q0 -126 -83.5 -204t-204.5 -78q-133 0 -209 91t-68 236h398q-4 54 -39.5 83t-83.5 29q-89 0 -121 -54zM301 113q47 0 80.5 25.5t39.5 75.5h-233q2 -49 33 -75t80 -26z" />
    <glyph glyph-name="circumflex" unicode="&#x2c6;" horiz-adv-x="471" 
d="M313 725l136 -116h-150l-62 46l-63 -46h-152l141 116h150z" />
    <glyph glyph-name="caron" unicode="&#x2c7;" horiz-adv-x="471" 
d="M159 609l-137 116h151l61 -46l63 46h152l-141 -116h-149z" />
    <glyph glyph-name="breve" unicode="&#x2d8;" horiz-adv-x="383" 
d="M253 725h108q-7 -51 -49 -86t-122 -35q-78 0 -121 35.5t-47 85.5h108q8 -40 61 -40q26 0 42.5 11.5t19.5 28.5z" />
    <glyph glyph-name="dotaccent" unicode="&#x2d9;" horiz-adv-x="192" 
d="M22 725h148v-116h-148v116z" />
    <glyph glyph-name="ring" unicode="&#x2da;" horiz-adv-x="233" 
d="M117 785q39 0 66.5 -25.5t27.5 -63.5t-27.5 -63.5t-66.5 -25.5q-40 0 -67.5 25t-27.5 64q0 38 27.5 63.5t67.5 25.5zM117 737q-17 0 -29 -11.5t-12 -29.5q0 -17 12 -28.5t29 -11.5t29 11.5t12 28.5q0 18 -12 29.5t-29 11.5z" />
    <glyph glyph-name="ogonek" unicode="&#x2db;" horiz-adv-x="277" 
d="M91 0h164q-45 -22 -66.5 -37t-21.5 -31q0 -36 40 -36q19 0 48 9v-82q-38 -11 -77 -11q-64 0 -110 24.5t-46 71.5q0 53 69 92z" />
    <glyph glyph-name="tilde" unicode="&#x2dc;" horiz-adv-x="464" 
d="M292 692q44 0 53 44h97q-23 -127 -135 -127q-38 0 -79.5 22t-57.5 22q-43 0 -51 -44h-97q21 127 136 127q36 0 75 -22t59 -22z" />
    <glyph glyph-name="hungarumlaut" unicode="&#x2dd;" horiz-adv-x="550" 
d="M304 725l-158 -116h-124l95 116h187zM528 725l-158 -116h-124l94 116h188z" />
    <glyph glyph-name="uni0326" unicode="&#x326;" horiz-adv-x="174" 
d="M25 -136v100h127v-106l-44 -89h-86l39 95h-36z" />
    <glyph glyph-name="uni032C" unicode="&#x32c;" horiz-adv-x="471" 
d="M159 -138l-137 138h151l61 -57l63 57h152l-141 -138h-149z" />
    <glyph glyph-name="uni0394" unicode="&#x394;" horiz-adv-x="693" 
d="M0 0l346 738l347 -738h-693zM498 127l-152 321l-152 -321h304z" />
    <glyph glyph-name="uni0394" unicode="&#x2206;" horiz-adv-x="693" 
d="M0 0l346 738l347 -738h-693zM498 127l-152 321l-152 -321h304z" />
    <glyph glyph-name="uni03A9" unicode="&#x3a9;" horiz-adv-x="785" 
d="M393 737q145 0 249.5 -81.5t104.5 -225.5q0 -94 -48 -163t-138 -101v-28h186v-138h-328v242q84 12 131.5 60t47.5 123q0 82 -55.5 135t-149.5 53q-95 0 -151 -53t-56 -135q0 -75 47.5 -123t131.5 -60v-242h-327v138h185v28q-89 32 -137 101t-48 163q0 97 51 168.5
t130 105t174 33.5z" />
    <glyph glyph-name="uni03A9" unicode="&#x2126;" horiz-adv-x="785" 
d="M393 737q145 0 249.5 -81.5t104.5 -225.5q0 -94 -48 -163t-138 -101v-28h186v-138h-328v242q84 12 131.5 60t47.5 123q0 82 -55.5 135t-149.5 53q-95 0 -151 -53t-56 -135q0 -75 47.5 -123t131.5 -60v-242h-327v138h185v28q-89 32 -137 101t-48 163q0 97 51 168.5
t130 105t174 33.5z" />
    <glyph glyph-name="pi" unicode="&#x3c0;" horiz-adv-x="705" 
d="M267 0h-155v399h-80v139h640v-139h-79v-211q0 -34 11 -46t46 -12h22v-130h-55q-97 0 -138 36t-41 135v228h-171v-399z" />
    <glyph glyph-name="uni0401" unicode="&#x401;" horiz-adv-x="669" 
d="M72 0v725h556v-150h-385v-127h364v-151h-364v-146h385v-151h-556zM170 886h147v-113h-147v113zM399 886h148v-113h-148v113z" />
    <glyph glyph-name="uni0402" unicode="&#x402;" horiz-adv-x="818" 
d="M379 300v-300h-172v575h-202v150h617v-150h-243v-151q98 24 174 24q109 0 164.5 -56.5t55.5 -161.5q0 -64 -19.5 -112t-53.5 -75t-75 -40t-88 -13q-37 0 -96 13l15 136q37 -7 69 -7q41 0 64.5 24t23.5 72q0 95 -99 95q-63 0 -135 -23z" />
    <glyph glyph-name="uni0403" unicode="&#x403;" horiz-adv-x="591" 
d="M586 725v-150h-343v-575h-171v725h514zM538 886l-159 -113h-146l103 113h202z" />
    <glyph glyph-name="uni0404" unicode="&#x404;" horiz-adv-x="750" 
d="M562 270h168q-20 -127 -114.5 -205t-230.5 -78q-169 0 -266 101t-97 275q0 172 99 273t269 101q134 0 225.5 -79t109.5 -204h-168q-14 71 -61 106.5t-112 35.5q-66 0 -113.5 -44.5t-61.5 -123.5h264v-131h-265q15 -81 62.5 -125t115.5 -44q64 0 112.5 33t63.5 109z" />
    <glyph glyph-name="uni0405" unicode="&#x405;" horiz-adv-x="673" 
d="M632 515h-169q-13 41 -50.5 63t-92.5 22q-52 0 -83.5 -18.5t-31.5 -51.5q0 -27 22.5 -46t61.5 -27l99 -20q45 -9 74 -16.5t69 -24.5t63.5 -37.5t41 -55t17.5 -78.5q0 -108 -91.5 -173t-212.5 -65q-140 0 -227 65.5t-107 183.5h170q28 -111 168 -111q51 0 87.5 19t36.5 60
q0 33 -34.5 53t-100.5 34l-88 18q-225 46 -225 211q0 70 46.5 121t113 73.5t141.5 22.5q74 0 136 -21.5t108.5 -73t57.5 -127.5z" />
    <glyph glyph-name="uni0406" unicode="&#x406;" horiz-adv-x="307" 
d="M239 725v-725h-171v725h171z" />
    <glyph glyph-name="uni0407" unicode="&#x407;" horiz-adv-x="302" 
d="M237 725v-725h-171v725h171zM-36 886h147v-113h-147v113zM193 886h148v-113h-148v113z" />
    <glyph glyph-name="uni0408" unicode="&#x408;" horiz-adv-x="641" 
d="M406 277v448h171v-448q0 -137 -73 -213.5t-210 -76.5q-136 0 -207.5 79t-75.5 211h171q2 -85 29 -119.5t83 -34.5t84 35t28 119z" />
    <glyph glyph-name="uni0409" unicode="&#x409;" horiz-adv-x="1083" 
d="M661 484h58q75 0 131.5 -11t103 -37t70.5 -75t24 -120t-24 -120t-71 -74.5t-102.5 -36t-131.5 -10.5h-229v574h-176l-6 -149q-15 -425 -242 -425h-51v151h22q23 0 40 12t28 37t18.5 52t12 69.5t6.5 76t3 83.5l7 244h509v-241zM661 144h63q68 0 105.5 20.5t37.5 76.5
q0 57 -37.5 78t-105.5 21h-63v-196z" />
    </font>
</defs>
</svg>
